CoelacanthPearlHairline.sfdir
StartChar: exclam
Encoding: 33 33 328
Width: 291
Flags: HW
HStem: 0.443359 118.316<118.824 172.5>
VStem: 88.389 115.64<30.0707 86.4186> 119.656 55.6758<209 656.067>
LayerCount: 2
Fore
SplineSet
119.65625 209 m 17xa0
 119.65625 339 119.65625 437 119.65625 533 c 0
 119.677584135 580 119.805588942 604 119.794921875 654 c 1
 154.971202762 664 173.645030887 692 175.81640625 661 c 1
 175.81640625 625 175.81640625 602.260304652 175.81640625 533 c 0
 175.632677802 407 175.33203125 342 175.33203125 208 c 9
 119.65625 209 l 17xa0
EndSplineSet
Refer: 635 46 N 1 0 0 1 36.7093 0 2
Position2: "cpsp-1" dx=0 dy=0 dh=50 dv=100
Substitution2: "pcap-1" exclam.pcap
Substitution2: "smcp-1" exclam.smcp
EndChar
StartChar: dollar
Encoding: 36 36 1373
Width: 533
VWidth: 1159
UnlinkRmOvrlpSave: 1
Flags: HW
HStem: 0.639648 55.7803<143.373 311.157> 441.47 56.4199<167.822 335.793>
VStem: 67 57.8799<335.666 406.443> 361.97 56.3506<99.4846 177.576>
LayerCount: 2
Back
SplineSet
386.376760864 375.180362616 m 1
 339.662573021 406.063766804 l 1
 341.765850635 409.245181163 345.317513776 414.801242363 346.884904044 417.288124111 c 1
 319.848871514 431.874879266 289.574602986 441.889648438 256.860351562 441.889648438 c 0
 168.73905084 441.889648438 123 392.81648084 123 366.01953125 c 0
 123 337.890339242 187.224041845 305.329477579 269.439880664 277.986121885 c 0
 331.923273518 257.205385955 418.3203125 219.828109923 418.3203125 139.870117188 c 0
 418.3203125 60.3363789354 327.71372307 0.6396484375 224.099609375 0.6396484375 c 0
 150.156244074 0.6396484375 84.1696637769 39.2017300205 47.4352245346 87.4448934812 c 0
 33.1070869704 106.261968054 l 1
 49.2634862893 123.534738027 l 0
 65.1811604658 140.552287491 92.8209885471 154.875281911 93.7410109426 155.404714735 c 1
 121.672042274 106.867538377 l 1
 121.672042274 106.867538377 117.612024666 104.55370602 111.356574237 100.621481129 c 1
 139.329364892 75.7962071913 181.050517994 56.6396484375 224.099609375 56.6396484375 c 0
 313.273792897 56.6396484375 362.3203125 108.358558363 362.3203125 139.870117188 c 0
 362.3203125 171.559527981 318.076726482 202.794614045 251.767150586 224.84786249 c 0
 184.751334454 247.135992416 67 279.719142092 67 366.01953125 c 0
 67 442.529374415 156.138130224 497.889648438 256.860351562 497.889648438 c 0
 315.685477829 497.889648438 366.948274053 473.663387585 401.591022773 449.066372237 c 0
 423.007536878 433.860236882 l 1
 409.199847576 411.51652759 l 0
 401.12902132 398.456254313 393.617111762 386.132105819 386.376760864 375.180362616 c 1
EndSplineSet
Fore
SplineSet
461.450195312 432.580078125 m 1
 441.276694901 401.243424025 429.312383342 378.85976835 409 352 c 1
 363.770507812 384.870117188 l 1
 371.523084628 394.811832364 378.400390625 402.732012262 378.400390625 415.459960938 c 3
 378.400390625 423.896365784 338.492130061 441.469726562 295.860351562 441.469726562 c 3
 226.915732871 441.469726562 163.879882812 406.970889771 163.879882812 366.099609375 c 3
 163.879882812 333.840379256 235.528241691 302.296998708 310.259765625 276.309570312 c 0
 399.461886893 245.290080582 457.3203125 212.631637388 457.3203125 139.870117188 c 3
 457.3203125 60.5624999998 366.459960938 0.6396484375 263.099609375 0.6396484375 c 3
 179.831054688 0.6396484375 105.487304688 49.8984375002 73.5595703125 107.110351562 c 1
 91.3255050875 128.173121388 116.530247647 151.72997744 137 176 c 1
 178.559570312 136.650390625 l 1
 171.46625572 129.603732639 154.969726562 114.113426731 154.969726562 104.940429688 c 3
 154.969726562 89.1506297352 207.737742595 56.419921875 265.120117188 56.419921875 c 3
 331.514455059 56.419921875 400.969726562 97.3470789152 400.969726562 139.469726562 c 3
 400.969726562 166.397656992 362.305466212 203.138014958 290.8203125 224.41015625 c 0
 189.138295096 254.66810673 106 291.0351468 106 366.01953125 c 3
 106 442.24890148 195.41731809 497.889648438 295.860351562 497.889648438 c 3
 367.149872217 497.889648438 427.416104093 462.560589962 461.450195312 432.580078125 c 1
EndSplineSet
Refer: 1968 58113 N 0.0181668 0.693762 -0.968418 0.0253589 272.417 -112.881 2
Substitution2: "case-1" dollar.alt
Substitution2: "lnum-1" dollar.alt
EndChar
StartChar: ampersand
Encoding: 38 38 78
Width: 676
Flags: HW
HStem: -11 54<128.072 291.283 521.479 586.492> 440.065 51.3648<562.067 647.828>
VStem: 17 57<95.3203 262.793> 81 57<450.804 556.751> 294 57<471.061 570.206>
LayerCount: 2
Back
SplineSet
653.535998459 72.9804638925 m 1
 638.724663923 48.361848667 608.05031679 4.19295 551.29075 4.19295 c 0
 480.044061821 4.19295 438.995366064 73.8564691114 407.719947226 166.795034957 c 0
 400.157295757 189.268338519 l 1
 411.032208844 210.339155673 l 0
 447.157068748 280.3333075 470.839340895 340.234738974 499.461664779 417.16279738 c 0
 504.26093133 430.184227284 511.29068328 441.516170789 520.184060235 451.266117826 c 1
 502.212264438 455.290936404 484.178443572 459.997914765 467.325468375 465.18581975 c 1
 483.801163497 518.707324496 l 1
 524.655919374 506.130874986 573.35285579 496.459673104 615.890349631 492.843113703 c 0
 863.787279155 471.766790442 l 1
 617.406922996 437.215102081 l 0
 583.454600644 432.453723863 560.267782786 420.211839277 551.961573385 397.675328268 c 1
 523.140344057 320.21267282 498.337185178 257.523574892 460.795472614 184.655287056 c 1
 461.114414847 183.707512899 460.476357767 185.603574157 460.7953 184.6558 c 0
 492.633901748 90.0436702526 525.043402736 60.19295 551.29075 60.19295 c 0
 577.500705483 60.19295 595.400735854 83.8929494765 609.391748891 108.424801057 c 0
 622.009992979 130.549638647 l 1
 646.477593885 119.512721634 l 1
 634.96440212 93.9892732894 l 0
 653.535998459 72.9804638925 l 1
398.55570568 157.526721967 m 1
 433.747946529 113.966347956 l 1
 406 91.5489 l 0
 374.375116322 65.9992910148 331.772699345 -11 199 -11 c 0
 80.1206525955 -11 17 85.0570742587 17 172 c 0
 17 278.693026213 77.4517401024 352.394806776 146.149504824 387.140685656 c 1
 110.654512318 411.255654336 81 452.168283866 81 506 c 0
 81 589.397017084 150.914758464 623.499879875 221.231373538 649.443177115 c 0
 231.204878193 653.122899119 l 1
 241.107445688 649.256336549 l 0
 318.123098596 619.184757536 350.156259796 571.587317847 350.99013295 500.312901436 c 0
 351.050925518 495.116721621 l 1
 349.24316659 490.244762255 l 0
 341.129190065 468.377375339 312.745027217 429.746709269 283.7627 404.4837 c 1
 332.577008984 385.657067023 395.460552357 323.076757719 426.1721 256.2138 c 0
 449.061462608 206.380737138 l 1
 398.172882876 183.00655367 l 1
 375.283520267 232.839616532 l 0
 350.779814656 286.187310086 291.422280973 341.508953913 263.611488529 352.234980626 c 0
 228.533169551 365.763936593 l 1
 171.225521617 337.066743906 l 0
 118.993011753 310.910960966 73 255.768574401 73 172 c 0
 73 109.515741945 115.71301396 45 199 45 c 0
 309.296974679 45 321.378188052 95.1753338038 370.807759151 135.109274011 c 0
 398.55570568 157.526721967 l 1
208.057701736 412.782300814 m 1
 246.966137051 446.697595285 l 0
 263.598306086 461.195348945 286.822185972 492.019793958 294.827538306 506.07394903 c 1
 292.874197813 550.582395693 281.851465345 570.770649735 230.468947121 593.091726416 c 1
 165.522963717 568.183170365 137 547.063641909 137 506 c 0
 137 474.099961556 153.812362605 449.636081074 177.621309882 433.46050313 c 0
 208.057701736 412.782300814 l 1
EndSplineSet
Fore
SplineSet
226 365 m 1
 106 318 74 247.791666667 74 171 c 3
 74 91.9411764712 129.522875817 43 202 43 c 3
 320.152443902 43 354.625 128.4 400 183 c 1
 333.804347824 316.523364486 280.934782608 351.392523364 226 365 c 1
232 589 m 3
 198.641025639 589 138 564.347826086 138 505 c 3
 138 458.745445669 174.26377959 431.124658241 215.602539062 418.762695312 c 1
 260.27583313 452.806945009 294 489.403472504 294 513 c 3
 294 550.254901962 268.391304348 589 232 589 c 3
647.828125 440.065429688 m 1
 568.999821281 446.000289001 570.739376754 445.643511403 552.946289062 398.634765625 c 0
 523.404823918 321.071893607 498.787374438 257.811001924 460.7953 184.6558 c 1
 494.507473851 78.3056663839 533.766583012 44.193359375 551.291015625 44.193359375 c 3
 585.176240913 44.193359375 611.071663404 96.3951648828 620.8931 131.05345 c 1
 672 108 l 1
 644.732394366 35.0935857992 609.281690141 -11.3974609375 551 -11.3974609375 c 3
 497.572580645 -11.3974609375 453.217741935 47.1854863799 426 121 c 1
 382 63 327.850241546 -11 199 -11 c 3
 80 -11 17 85 17 172 c 3
 17 278.525383496 77.3272286185 352.67540534 146.15125 387.1395 c 1
 110.614204546 411.283039062 81 452.141335938 81 506 c 3
 81 593 156 626 231 653 c 1
 316 623 351 575 351 498 c 3
 351 482.886254546 316.273042857 432.821972727 283.7627 404.4837 c 1
 333.437241518 384.843229208 398.798480357 318.236415223 430.171875 248.213867188 c 1
 456.282628205 300.047498796 489.75978519 386.538309793 508.09765625 434.979492188 c 0
 516.835266331 458.235552109 460.679289641 467.622842153 432.786132812 479.032226562 c 1
 448.2699 531.39765 l 1
 500.971423636 509.34667069 592.571690909 490.052063793 655.3116 491.43025 c 1
 647.828125 440.065429688 l 1
EndSplineSet
Substitution2: "pcap-1" ampersand.pcap
Substitution2: "smcp-1" ampersand.smcp
Position2: "cpsp-1" dx=0 dy=0 dh=50 dv=100
EndChar
StartChar: quotesingle
Encoding: 39 39 79
Width: 200
VWidth: 1159
Flags: W
HStem: 445.7 254<72.6024 126.312>
VStem: 72.6024 53.7092<445.7 699.7>
LayerCount: 2
Fore
SplineSet
71.171875 699.700195312 m 1
 127.7421875 699.700195312 l 1
 127.689357947 630.734190749 126.447812367 537.034184549 126.3116 445.700178505 c 1
 72.60235 445.700178505 l 1
 72.459844037 536.911184541 71.2326395345 630.890190759 71.171875 699.700195312 c 1
EndSplineSet
Validated: 1
Position2: "cpsp-1" dx=0 dy=0 dh=7 dv=14
EndChar
StartChar: parenleft
Encoding: 40 40 59
Width: 351
VWidth: 1515
Flags: W
VStem: 37 57<122.356 415.339>
LayerCount: 2
Back
SplineSet
309.28412365 -113.112505564 m 1
 280.073979802 -160.890821738 l 1
 122.337256338 -64.4556027638 37 80.9914505592 37 271 c 0
 37 461.804570865 129.05185464 613.183746476 278.863287462 699.856295915 c 1
 306.906684083 651.383954256 l 1
 173.667185976 574.299003064 93 442.846315363 93 271 c 0
 93 99.2980690338 166.322939084 -25.7105814236 309.28412365 -113.112505564 c 1
EndSplineSet
Fore
SplineSet
305 714 m 1
 331 665 l 1
 172.640909091 585.85013624 94 447.065395095 94 271 c 3
 94 91.3827992141 173.558902877 -41.7718009103 333 -126 c 1
 308 -177 l 1
 133 -81.5925925926 37 69.8148148148 37 271 c 3
 37 472.269320843 139 629.964871194 305 714 c 1
EndSplineSet
Validated: 1
Position2: "cpsp-1" dx=0 dy=0 dh=50 dv=100
Position2: "'case' vertical ajustments for all-caps-1" dx=0 dy=125 dh=0 dv=0
EndChar
StartChar: asterisk
Encoding: 42 42 87
Width: 418
VWidth: 1159
Flags: W
HStem: 557.686 20G<338.056 395.576>
VStem: 176.007 57<537.666 677.087> 183.97 56.8506<520.655 659.007>
LayerCount: 2
Fore
SplineSet
216 432 m 1xa0
 128.368164062 297.838867188 l 1
 111.545898438 303.96875 96.7158203125 317.565429688 84.017578125 333.76953125 c 1
 168.629882812 463.520507812 l 1
 13.955078125 505.405273438 l 1
 14.5869140625 523.297851562 22.9345703125 541.604492188 34.421875 558.688476562 c 1
 183.969726562 518.3125 l 1xa0
 176.006835938 678.360351562 l 1
 193.21875 683.288085938 213.208984375 681.005859375 233.006835938 675.360351562 c 1xc0
 240.8203125 520.655273438 l 1
 390.573242188 577.685546875 l 1
 400.579101562 562.838867188 404.5859375 543.122070312 405.333984375 522.548828125 c 1
 260.615234375 467.310546875 l 1
 361.130859375 342.510742188 l 1
 350.102539062 328.407226562 332.588867188 318.502929688 313.25390625 311.434570312 c 1
 216 432 l 1xa0
EndSplineSet
Validated: 33
EndChar
StartChar: comma
Encoding: 44 44 244
Width: 217
Flags: HW
HStem: -134.937 253.586
VStem: 111 62<-40.2243 25.2953>
LayerCount: 2
Fore
SplineSet
69.203125 -134.936523438 m 1
 38 -89 l 1
 70.6865793319 -68.4829014141 111 -21.1593858547 111 2 c 3
 111 16.4242412967 74.0914949398 33.2015893526 58.6025390625 45.1181640625 c 0
 55.2935990606 47.8185373681 52.1298828125 53.3634436421 52.1298828125 58.859375 c 3
 52.1298828125 65.9563616316 56.7592846171 70.172452713 60.6025390625 74.236328125 c 0
 68.6510434137 82.7468546597 81.9118091553 95.474481423 92.0341796875 110.00390625 c 0
 95.1078043243 114.41571848 103.995289911 118.649414062 108.690429688 118.649414062 c 3
 115.358697161 118.649414062 120.715663874 114.141726471 124.25 110.00390625 c 0
 134.585186104 97.9039982272 151.117947602 80.4607188546 160.633789062 71.30078125 c 0
 170.283751123 62.0117393166 173 32.5785169298 173 21 c 3
 173 -32.6081091468 127.146796039 -96.8223654533 69.203125 -134.936523438 c 1
EndSplineSet
Position2: "Extra space for context kern-1" dx=78 dy=0 dh=156 dv=0
Position2: "cpsp-1" dx=0 dy=0 dh=7 dv=14
EndChar
StartChar: period
Encoding: 46 46 635
Width: 217
Flags: HW
HStem: 0.443359 118.316<82.1145 135.791>
VStem: 51.6797 115.64<30.0707 86.4186>
LayerCount: 2
Fore
SplineSet
157.857421875 39.904296875 m 0
 145.066065004 29.8583858313 135.158634242 20.0450913937 125.978515625 9.9052734375 c 0
 121.657835476 5.10718213194 116.03258134 0.443359375 108.505859375 0.443359375 c 3
 101.785622506 0.443359375 94.4476794941 4.89936655391 90.6669921875 9.9052734375 c 0
 82.9836697292 20.1724493455 72.4112254199 31.1399818705 62.1533203125 41.44921875 c 0
 57.7176244382 45.866343536 51.6796875 52.6521160088 51.6796875 59.3740234375 c 3
 51.6796875 66.9315814938 57.5328641927 71.2079094114 62.1533203125 75.75 c 0
 72.0176055484 85.5580944699 82.795028112 97.2341494606 90.6669921875 108.115234375 c 0
 94.3842008527 113.19516709 101.785622506 118.759765625 108.505859375 118.759765625 c 3
 116.03258134 118.759765625 121.647174316 112.911313669 125.978515625 108.115234375 c 0
 135.316858737 97.7213923945 147.147969825 83.9173299514 157.857421875 74.2060546875 c 0
 162.649191882 69.8832795728 167.319335938 65.3876221908 167.319335938 57.8291015625 c 3
 167.319335938 51.1071941338 162.785900266 43.7958242921 157.857421875 39.904296875 c 0
EndSplineSet
Position2: "Extra space for context kern-1" dx=78 dy=0 dh=156 dv=0
Position2: "cpsp-1" dx=0 dy=0 dh=7 dv=14
EndChar
StartChar: zero
Encoding: 48 48 63
Width: 573
VWidth: 1159
Flags: W
HStem: -12 56<203.448 370.333> 452 56<202.64 371.333>
VStem: 51 56<148.89 346.957> 466 56<152.318 351.577>
LayerCount: 2
Fore
SplineSet
285 452 m 3
 153.199959021 452 107 321.679849683 107 260 c 3
 107 132.332346797 170.778916089 44 297 44 c 3
 403.627257107 44 466 155.615268371 466 252 c 3
 466 347.037222272 414.765439742 452 285 452 c 3
285 508 m 3
 456 508 522 364 522 252 c 3
 522 140 449 -12 297 -12 c 3
 134 -12 51 112 51 260 c 3
 51 336 107 508 285 508 c 3
EndSplineSet
Validated: 1
Substitution2: "'zero' Slashed Zero lookup 22-1" zero.alt
Substitution2: "dnom-1" zero.denom
Substitution2: "numr-1" zero.numerator
Substitution2: "lnum-1" zero.proportionallining
Substitution2: "tnum-1" zero.tabulartext
EndChar
StartChar: one
Encoding: 49 49 591
Width: 485
Flags: HW
HStem: -0.65625 55.2236<110.567 219.16 274.994 377.154> 442.641 56.4805<117.524 215.781> 456.085 57.9658<278.026 378.812>
VStem: 219.17 55.4951<56.1286 441.611>
LayerCount: 2
Fore
SplineSet
117.524414062 499.12109375 m 1xd0
 131.851426973 498.191195606 149.100279467 497.761902275 167.881490761 497.761902275 c 0
 243.678366633 497.761902275 344.433593103 504.754033268 378.8125 514.05078125 c 1
 378.984375 456.084960938 l 1xb0
 279.418776472 443.990840139 275.068992804 447.247071612 275 436 c 0
 274.733828721 392.609280205 274.665039062 315.566540401 274.665039062 242.504882812 c 3
 274.665039062 154.380145774 275 109 275 64 c 0
 275 54.0571083082 276.637268993 56.3847580449 380.9296875 55.734375 c 1
 377.154296875 -0.65625 l 1
 340.273893005 -0.369195302944 299.50408299 -0.211279659969 253.803787367 -0.211279659969 c 0
 210.729119283 -0.211279659969 163.274234909 -0.351571048414 110.567382812 -0.65625 c 1
 103.021484375 54.5673828125 l 1
 213.20814952 55.0972679011 219.15598476 55.2718884676 219.157226562 61.8779296875 c 0
 219.161946491 86.9866293169 219.169921875 120.802152339 219.169921875 242.504882812 c 3
 219.169921875 354.803384813 218.938728186 379.071003237 218.547851562 433.208984375 c 0
 218.449289288 446.860254987 218.547851562 439.208984375 115.690429688 442.640625 c 1
 117.524414062 499.12109375 l 1xd0
EndSplineSet
Substitution2: "dnom-1" one.denom
Substitution2: "numr-1" one.numerator
Substitution2: "tnum-1" one.tabulartext
Substitution2: "lnum-1" one.proportionallining
EndChar
StartChar: two
Encoding: 50 50 779
Width: 623
Flags: HW
HStem: -6.54492 15.6328G<102.214 121.188 487.648 502.273> 0.992188 56.0078<209.515 461.959> 460 55.7314<222.445 351.814>
VStem: 389 56.0273<285.472 422.155>
LayerCount: 2
Fore
SplineSet
87.302734375 386.836914062 m 1xb0
 123.980253671 431.68583749 193.160491339 515.731445312 289.674804688 515.731445312 c 3
 395.63878765 515.731445312 445.02734375 426.194600354 445.02734375 357.551757812 c 3
 445.02734375 209.282665454 275 107 208 57 c 1
 353 60 439.196762174 53 453 53 c 1
 464 86 487 128 512 157 c 1
 558.072265625 121.48828125 l 1
 558.072265625 121.48828125 510.359938424 80.9584353012 494.185546875 -11.912109375 c 1
 481.110902269 -1.23708173675 359.538779624 0.9921875 334.098632812 0.9921875 c 1x70
 254.951826748 0.9921875 134.602097773 3.76627430396 107.774414062 -6.544921875 c 1
 94 43 l 1
 200.279461279 125.725806452 389 239.894194726 389 356 c 3
 389 420.007812023 343.012498047 460 291 460 c 3
 243.023458173 460 183 426.429203652 126.244140625 342.372070312 c 1
 87.302734375 386.836914062 l 1xb0
EndSplineSet
Substitution2: "dnom-1" two.denom
Substitution2: "numr-1" two.numerator
Substitution2: "tnum-1" two.tabulartext
Substitution2: "lnum-1" two.proportionallining
EndChar
StartChar: three
Encoding: 51 51 762
Width: 490
Flags: HW
HStem: -177.1 50.4707<114.763 152.925> 451 56.3849<189.422 308.062>
VStem: 327 55.7904<316.75 431.793> 362 55.7402<22.7073 138.902>
LayerCount: 2
Fore
SplineSet
94.6611328125 -126.62890625 m 1xd0
 285.506703206 -64.0326507413 362 31.434684041 362 67 c 3xd0
 362 148.841987731 301.91156152 176.509341174 258 204 c 1
 236.565445487 189.453839233 173.313763288 157.766244473 130.74609375 138.388671875 c 1
 99.5302734375 183.491210938 l 1
 213.531214749 242.849221469 327 290.228463028 327 380 c 3
 327 419.838329136 300.415509972 451 249 451 c 3
 211 451 149 409 111.177351855 364.872159278 c 1
 73.9510619628 402.511373926 l 1
 99.8139851562 444.115723535 179.711400684 507.384854834 249.019701513 507.384854834 c 3
 331.194224707 507.384854834 382.790434278 448.02138086 382.790434278 381.367524072 c 3xe0
 382.790434278 301.370550389 331.700831769 259.865392815 308.267578125 238.3359375 c 1
 350.402888731 212.948357017 417.740234375 164.483687679 417.740234375 68.4609375 c 3
 417.740234375 -55.4290682166 213.870190824 -148.784580583 118 -177.099609375 c 1
 94.6611328125 -126.62890625 l 1xd0
EndSplineSet
Substitution2: "dnom-1" three.denom
Substitution2: "numr-1" three.numerator
Substitution2: "tnum-1" three.tabulartext
Substitution2: "lnum-1" three.proportionallining
EndChar
StartChar: four
Encoding: 52 52 354
Width: 641
Flags: HW
HStem: -8.63477 21G<542.871 564.186> 1.04492 56.9551<166.187 386.952 442.193 528.352> 487.018 20G<391.723 438.875>
VStem: 386.952 55.2412<-118.833 1.04492 58.3945 369.356>
LayerCount: 2
Fore
SplineSet
387 58 m 1x70
 387 183.401696596 387 287.229212254 385 372 c 1
 385 372 242.042769499 183.244324327 149 62 c 1
 218.438288161 58 331.29122292 58 387 58 c 1x70
452.108398438 479.17578125 m 1
 445.583710595 445.235382494 441.176816405 412.531690608 440.897460938 223.267578125 c 0
 440.790559004 142.514832277 441.624277934 151.745944 442.193359375 58.39453125 c 1
 510.603511633 57.5474495138 519.912142922 52.6197732537 540.87890625 102.48046875 c 1
 540.87890625 102.48046875 582.503169428 85.833466249 586.077148438 83.841796875 c 1
 586.077148438 83.841796875 569.31202648 28.2548375472 559.060546875 -8.634765625 c 1xb0
 526.680623236 -0.279416755379 477.008571188 1.98720714906 442.193359375 2.1435546875 c 1
 441.879536218 -52.6467287029 445.937300856 -101.347767211 452.4140625 -119.715820312 c 1
 428.05115661 -125.654259315 417.213907021 -160.214622629 406 -177.099609375 c 1
 406 -177.099609375 362.132420985 -142.959655092 360.409179688 -138.801757812 c 1
 384.772511591 -101.554242458 386.767413651 -112.792873042 386.952148438 1.044921875 c 1
 48.0365836743 1.044921875 115.05407971 8.4529602769 71.1083984375 -28.75390625 c 1
 71.1083984375 -28.75390625 33.0614862113 4.56362320729 30.505859375 7.71484375 c 1
 49.5357212401 27.4549496647 378.318852538 439.777186778 405.127050536 507.017878183 c 1
 452.108398438 479.17578125 l 1
EndSplineSet
Substitution2: "dnom-1" four.denom
Substitution2: "numr-1" four.numerator
Substitution2: "tnum-1" four.tabulartext
Substitution2: "lnum-1" four.proportionallining
EndChar
StartChar: five
Encoding: 53 53 342
Width: 488
Flags: HW
HStem: -177.1 56.0996<69 148.492> 441 58.0391<159 327.303> 550.239 20G<380.351 385.02>
VStem: 102.699 55.3008<296.135 440.907> 332 56.4707<37.8056 183.278>
LayerCount: 2
Fore
SplineSet
102.69921875 499.0390625 m 1
 256.250991516 491.950717209 290.179491259 495.633008616 320.098632812 497.995117188 c 0
 351.400280649 500.466374277 375.683163167 548.040321315 385.01953125 570.239257812 c 1
 385.01953125 570.239257812 430.492422805 539.563581069 433.568359375 537.970703125 c 1
 406 487 380 452 340.788085938 444.579101562 c 0
 300.025370945 436.864712321 263.984511647 439.450901791 159 441 c 1
 159 441 160.551971652 312.591524058 158 293 c 1
 303.010590156 300.67372575 388.470703125 225.634570821 388.470703125 115.732421875 c 3
 388.470703125 -42.1917056676 223.587635937 -158.058646834 69 -177.099609375 c 1
 69 -177.099609375 69.169940491 -124.20382482 68 -121 c 1
 203 -101 332 -0.0173899895142 332 115 c 3
 332 152.729955134 316 269 97.517578125 230.197265625 c 1
 104.558112047 306.95389291 106.481063422 409.757969157 102.69921875 499.0390625 c 1
EndSplineSet
Substitution2: "dnom-1" five.denom
Substitution2: "numr-1" five.numerator
Substitution2: "tnum-1" five.tabulartext
Substitution2: "lnum-1" five.proportionallining
EndChar
StartChar: six
Encoding: 54 54 723
Width: 603
Flags: HW
HStem: -14.0537 56<228.543 388.434> 364.665 56<272.65 404.167> 656.785 20G<281.436 391.891>
VStem: 86.6972 56<142.03 375.123> 471.259 56<123.938 289.178>
LayerCount: 2
Fore
SplineSet
384.50390625 676.78515625 m 1
 404 624 l 1
 215.879054014 523.540110514 142.697210693 402.695695489 142.697210693 243.2464 c 3
 142.697210693 158.965839674 188.097108553 41.9462890625 306.094726562 41.9462890625 c 3
 399.585066965 41.9462890625 471.25895 116.380400809 471.25895 197.19295 c 3
 471.25895 296.967187461 410.983989853 364.6649 340.65616538 364.6649 c 3
 307.605694113 364.6649 286.193356761 355.110957389 266.340820312 338.267578125 c 1
 236 380 l 1
 259.091925588 403.091277247 294.738793564 420.6649 340.65616538 420.6649 c 3
 451.377766314 420.6649 527.25895 317.15653757 527.25895 197.19295 c 3
 527.25895 83.5442871556 429.117813409 -14.0537109375 306.094726562 -14.0537109375 c 3
 140.049576265 -14.0537109375 86.6972106934 148.401635974 86.6972106934 243.2464 c 3
 86.6972106934 429.875601966 178.368542246 570.111394591 384.50390625 676.78515625 c 1
EndSplineSet
Substitution2: "dnom-1" six.denom
Substitution2: "numr-1" six.numerator
Substitution2: "tnum-1" six.tabulartext
Substitution2: "lnum-1" six.proportionallining
EndChar
StartChar: seven
Encoding: 55 55 708
Width: 575
Flags: HW
HStem: 443.44 56.5371<147.462 455.003>
VStem: 146.306 63.4287<-172.181 -134.759>
LayerCount: 2
Fore
SplineSet
164.084960938 507.116210938 m 1
 164.773353625 506.083524826 179.768187553 500.226525802 191.2109375 499.977539062 c 0
 318.490609551 497.208016819 495.168729343 499.028236942 518.037109375 500.927734375 c 1
 518.037109375 500.927734375 533.863423524 461.865052506 537 459 c 1
 510.729229441 418.15433796 219.77948355 -133.950263333 209.734375 -172.337890625 c 1
 209.734375 -172.337890625 147.581649112 -172.113512824 146.305664062 -172.180664062 c 1
 241.909627645 29.1979242778 334 200 455 428 c 0
 464.62041548 446.127725037 464.438598549 442.652755149 443.267578125 442.545898438 c 0
 358.3265608 442.117174758 345.600301818 443.440429688 282.171875 443.440429688 c 3
 148.838866541 443.440429688 156 455 108.012695312 344.680664062 c 1
 108.012695312 344.680664062 61.6439525394 369.028074234 57.427734375 370.1484375 c 1
 57.427734375 370.1484375 113.49002002 485.047802777 122.692382812 526.783203125 c 1
 164.084960938 507.116210938 l 1
EndSplineSet
Substitution2: "dnom-1" seven.denom
Substitution2: "numr-1" seven.numerator
Substitution2: "tnum-1" seven.tabulartext
Substitution2: "lnum-1" seven.proportionallining
EndChar
StartChar: eight
Encoding: 56 56 297
Width: 570
UnlinkRmOvrlpSave: 1
Flags: HW
HStem: -12.5264 54.5264<199.401 373.701> 604.136 56.7168<217.513 356.474>
VStem: 82.5742 55.4258<100.954 220.983> 119.264 56.7363<452.804 561.756> 391.527 56.4727<460.684 570.304> 434 54.877<99.277 229.241>
LayerCount: 2
Fore
SplineSet
278.333984375 604.135742188 m 3xe8
 225.501407721 604.135742188 178 557.813742954 178 518 c 3
 178 378.910101014 488.876953125 359.310187219 488.876953125 173.89453125 c 3xd4
 488.876953125 87.6819690175 437.276279164 -12.5263671875 279.974609375 -12.5263671875 c 3
 163.43678299 -12.5263671875 82.57421875 59.3987685114 82.57421875 167.532226562 c 3
 82.57421875 330.46225312 389.52734375 393.991718582 389.52734375 524.934570312 c 3
 389.52734375 567.356875289 350.999980385 604.135742188 278.333984375 604.135742188 c 3xe8
275.196289062 660.852539062 m 3
 366.097585616 660.852539062 446 610.481189167 446 526 c 3
 446 347.9887644 138 293.46223565 138 168 c 3xe8
 138 115.065762458 176.619513212 42 282 42 c 3
 374.117390832 42 434 91.1346506575 434 173 c 3
 434 220.400908925 396.935895648 257.312894178 342 291 c 0
 236 356 121.263671875 405.992873968 121.263671875 518.041015625 c 3
 121.263671875 596.922614748 203.280497286 660.852539062 275.196289062 660.852539062 c 3
EndSplineSet
Substitution2: "dnom-1" eight.denom
Substitution2: "numr-1" eight.numerator
Substitution2: "lnum-1" eight.proportionallining
Substitution2: "tnum-1" eight.tabulartext
EndChar
StartChar: greater
Encoding: 62 62 333
Width: 463
VWidth: 0
Flags: W
LayerCount: 2
Back
SplineSet
97.0494522069 423.413816098 m 1
 128.633817926 469.656954423 l 1
 412 276.116 l 1
 106.213299773 81.5244634922 l 1
 76.1482722106 128.769506805 l 1
 310.290257775 277.768952164 l 1
 97.0494522069 423.413816098 l 1
EndSplineSet
Fore
SplineSet
62 447 m 1
 94 493.116210938 l 1
 412 276.116 l 1
 91 72.1162109375 l 1
 62 120 l 1
 310 278 l 1
 62 447 l 1
EndSplineSet
Validated: 1
Position2: "'case' vertical ajustments for all-caps-1" dx=0 dy=90 dh=0 dv=0
EndChar
StartChar: question
Encoding: 63 63 657
Width: 394
Flags: HW
HStem: 0.443359 118.316<147.64 201.316> 631.364 55.9619<92.1055 236.386>
VStem: 43.8867 43.0254<693.267 709.308> 117.205 115.64<30.0707 86.4186> 142.521 56.6943<213 324.935> 328 55.8203<412.579 550.885>
LayerCount: 2
Fore
SplineSet
53.171875 624.322265625 m 1xec
 54.3562591654 641.480993542 54.85546875 656.983257016 54.85546875 670.993164062 c 3
 54.85546875 681.850263318 43.88671875 696.052111742 43.88671875 699.950195312 c 3
 43.88671875 708.158843342 54.3825975269 713.863048023 86.912109375 717.326171875 c 1
 102.269550457 687.326171875 122.110616744 687.326171875 141.34765625 687.326171875 c 3
 224.340285747 687.326171875 383.8203125 638.786164497 383.8203125 474.154296875 c 3
 383.8203125 366.221635452 303.050520236 329.118253801 206 324 c 0
 200.764703086 323.723900724 196.67397458 291.45112782 199.215820312 213 c 1
 199.215820312 213 176.734805554 209.982421875 144.82421875 209.982421875 c 1
 142.590382284 217.7104512 142.521484375 246.894235246 142.521484375 279.09375 c 3
 142.521484375 312.889713801 147.059519364 350.26288606 164 368 c 0
 204.513460496 410.418623198 328 352.328031355 328 474 c 3
 328 584.883180347 225.61916827 631.364257812 137.033203125 631.364257812 c 3
 110.316505286 631.364257812 82.027616964 628.93527634 53.171875 624.322265625 c 1xec
EndSplineSet
Refer: 635 46 N 1 0 0 1 65.5254 0 2
Position2: "cpsp-1" dx=0 dy=0 dh=50 dv=100
Substitution2: "smcp-1" question.smcp
Substitution2: "pcap-1" question.pcap
EndChar
StartChar: at
Encoding: 64 64 189
Width: 838
Flags: HW
HStem: -173.741 55.3281<296.988 537.198> 19.8887 56.1113<262.403 363.602 514.158 596.991> 477.609 20G<566.224 618.459> 629.438 55.5283<348.851 585.153>
VStem: 18.5762 56.0283<101.666 347.816> 195.948 56.0518<87.3 225.64> 760.096 55.877<267.516 465.578>
LayerCount: 2
Fore
SplineSet
521.8359375 399.030273438 m 1
 520.870010434 400.509888929 518.261896673 401.990234375 517.392578125 401.990234375 c 3
 498.450670102 401.990234375 420.44088465 387.247292707 398 375 c 0
 325.253028757 335.297757229 252 226.614189296 252 131 c 3
 252 101.921767209 269.466591999 76 313 76 c 3
 333.439609492 76 427.197809343 127.962741209 471 178 c 1
 479.272420591 217.386485109 486.785634029 263.103887097 499.126953125 305.318359375 c 0
 510.29737397 343.527680229 522.180664062 381.91629643 522.180664062 391.614257812 c 3
 522.180664062 395.090645085 522.080942083 397.715816479 521.8359375 399.030273438 c 1
597.203125 427.319335938 m 1
 564.295221975 338.099527471 543.867011478 263.2281501 519 137 c 0
 516.095198074 122.254851637 514.022460938 106.069624675 514.022460938 99.9736328125 c 3
 514.022460938 78.8706451469 517.356988646 70 523 70 c 3
 552.70164885 70 613.143340948 96.5225388505 659.282226562 151.224609375 c 0
 705.992433637 206.604036243 760.095703125 275.031121652 760.095703125 360.23828125 c 3
 760.095703125 527.293446732 616.652028178 629.438476562 474.172851562 629.438476562 c 3
 258.963558741 629.438476562 74.6044921875 448.783096768 74.6044921875 217.438476562 c 3
 74.6044921875 12.8194723202 241.777226051 -118.413085938 417.877929688 -118.413085938 c 3
 542.000653221 -118.413085938 665.945729515 -44.6429379705 747.190429688 47.7666015625 c 1
 764.302734375 34.9677734375 773.955078125 27.748046875 791.067382812 14.94921875 c 1
 710.138671875 -81.8154296875 571.520507812 -173.741210938 416.772460938 -173.741210938 c 3
 215.852539062 -173.741210938 18.576171875 -23.3916015625 18.576171875 216.438476562 c 3
 18.576171875 474.852539062 222.891601562 684.966796875 474.172851562 684.966796875 c 3
 646.473632812 684.966796875 815.97265625 560.233398438 815.97265625 360.5390625 c 3
 815.97265625 242.875976562 732.851321875 147.877174633 688.967773438 100.206054688 c 0
 650.76953125 58.7109375 584.583007812 13.8896484375 519.184570312 13.8896484375 c 3
 465.600935635 13.8896484375 449.824957 56.2635647538 454.497070312 99.8720703125 c 1
 409.220015678 54.6643838186 349.159282695 19.888671875 313.123046875 19.888671875 c 3
 243.599609375 19.888671875 195.948242188 68.6171875 195.948242188 127.10546875 c 3
 195.948242188 261.28515625 291.228279496 386.210461167 377.918945312 427.131835938 c 0
 418.188476562 446.140625 467.839291316 450.050863363 533.553710938 464.948242188 c 0
 546.93359375 467.981445312 561.129882812 483.615234375 566.223632812 493.659179688 c 1
 622.852539062 497.609375 l 1
 614.065429688 473.868164062 605.836914062 450.647460938 597.203125 427.319335938 c 1
EndSplineSet
Position2: "'case' vertical ajustments for all-caps-1" dx=0 dy=160 dh=0 dv=0
Position2: "cpsp-1" dx=0 dy=0 dh=50 dv=100
EndChar
StartChar: A
Encoding: 65 65 2288
Width: 733
Flags: HMW
AnchorPoint: "Top" 384 679 basechar 0
AnchorPoint: "Bottom" 370 -15 basechar 0
LayerCount: 2
Fore
SplineSet
239 247 m 1
 286 245 469 245 513 245 c 1
 482 326 416 470 385 585 c 1
 355 505 274 325 239 247 c 1
527 -8 m 1
 527 -8 517 46 517 47 c 1
 529 53 596 49 586 72 c 0
 568 114 555 146 539 189 c 1
 460 190 317 191 213 192 c 1
 195 150 182 117 162 75 c 0
 152 53 189 57 211 51 c 1
 207 -6 l 1
 185 1 159 0 133 0 c 3
 104 0 76 -1 51 -4 c 1
 49 13 47 23 43 47 c 1
 92 57 100 74 110 96 c 0
 200 298 277 460 334 609 c 0
 349 648 349 654 357 689 c 1
 411 689 l 1
 417 657 421 650 434 610 c 0
 504 392 557 285 647 70 c 0
 655 50 665 56 699 52 c 1
 700 35 701 16 702 -3 c 1
 665 -2 631 0 599 0 c 3
 574 0 551 1 527 -8 c 1
EndSplineSet
Position2: "cpsp-1" dx=0 dy=0 dh=50 dv=100
Substitution2: "c2pc-1" a.pcap
Substitution2: "c2sc-1" a.smcp
EndChar
StartChar: B
Encoding: 66 66 27
Width: 691
Flags: HMW
AnchorPoint: "Bottom" 313 -15 basechar 0
AnchorPoint: "Top" 327 679 basechar 0
LayerCount: 2
Back
SplineSet
152.654514909 679.422573958 m 0
 156.581167949 679.160089097 160.66144067 678.947589192 165.286528556 678.770818108 c 0
 172.994605503 678.476215031 181.761132196 678.311523438 191.860351562 678.311523438 c 0
 252.362782603 678.311523438 299.689306942 688.311523438 357.708007812 688.311523438 c 0
 495.816675558 688.311523438 564.67578125 602.740778983 564.67578125 510.171875 c 0
 564.67578125 441.04112503 530.371823102 384.914321172 457.601454447 360.556494231 c 1
 458.590998584 360.412263861 456.604205862 360.701847558 457.59375 360.557617188 c 0
 561.35057892 345.434607244 628.3638 276.267520937 628.3638 191.9674 c 0
 628.3638 71.046403738 513.582307013 -3.4833984375 363.708007812 -3.4833984375 c 0
 304.471372686 -3.4833984375 263.956027865 1.6025390625 197.6875 1.6025390625 c 0
 184.5651062 1.6025390625 173.371848163 1.50395776299 163.706939263 1.33435781969 c 0
 152.027419422 1.12940545819 142.435655484 0.814261668718 134.435456978 0.448243868189 c 0
 122.367012936 -1.15220251822 112.018868017 -1.21948367446 107.540233029 -1.21482862537 c 1
 105.305430831 54.6936813082 l 1
 111.889274349 55.2278018827 119.563034554 55.7797754017 128.937319021 56.2492081316 c 0
 137.23597893 57.5998795123 144.796052737 60.3495608203 148.263782265 62.829806352 c 0
 151.066492157 64.8344057968 151.447334464 65.518531225 151.848963711 68.2050205187 c 0
 151.957180053 68.9288772786 l 1
 152.103065037 69.6460920004 l 0
 155.198400771 84.8636990221 153.443359375 171.001469464 153.443359375 287.483398438 c 0
 153.443359375 445.350051976 150.764717551 580.363069748 145.428392305 595.936382421 c 0
 144.538174652 598.534357097 l 1
 144.169688498 601.255786471 l 0
 144.169688498 601.255786471 142.122553786 614.123915671 137.300294578 622.44678605 c 0
 136.898046326 623.14103742 136.338709315 623.993364659 135.899184007 624.620203149 c 0
 122.429519416 625.995408919 111.256166913 627.906749264 101.595158948 629.861045808 c 1
 110.445056332 685.10971264 l 1
 122.567266645 683.671627877 135.044301934 682.326204221 141.065351058 681.87175755 c 0
 141.927239837 681.806705351 l 1
 142.783475161 681.688615873 l 0
 145.274362374 681.345079977 149.446295355 680.336256164 152.654514909 679.422573958 c 0
206.802384288 57.5726410995 m 1
 270.841825077 57.1156407259 310.99494 52.5166015625 363.708007812 52.5166015625 c 0
 499.908085735 52.5166015625 572.3638 115.428688091 572.3638 191.9674 c 0
 572.3638 243.125129007 533.317771047 292.928795962 449.516849275 305.14314548 c 0
 213.932229205 339.480630435 l 1
 440.121197251 413.762033362 l 0
 490.442060656 430.287615323 508.67578125 460.672574132 508.67578125 510.171875 c 0
 508.67578125 571.908247626 469.518930872 632.311523438 357.708007812 632.311523438 c 0
 308.630576109 632.311523438 261.080977954 622.928578967 196.930582398 622.331024958 c 1
 198.103944511 617.663317923 198.796944764 614.143810176 199.263832745 611.38508729 c 1
 211.279598193 569.954712932 209.443359375 445.200281122 209.443359375 287.483398438 c 0
 209.443359375 170.421180002 213.31344682 90.7563703079 206.802384288 57.5726410995 c 1
376.554794587 342.083460794 m 2
 380.22081482 324.07023638 l 1
 377.993741056 323.616986185 l 1
 375.737262332 323.345698419 l 0
 352.737246542 320.580494899 344.276515857 320.9453125 258.376953125 320.9453125 c 0
 231.15420918 320.9453125 l 1
 231.15420918 376.9453125 l 1
 258.376953125 376.9453125 l 0
 345.428817813 376.9453125 350.77451937 376.747792945 369.052734375 378.9453125 c 0
 369.30002543 378.975043353 375.924271053 345.181578423 376.554794587 342.083460794 c 2
EndSplineSet
Fore
SplineSet
77 51 m 5
 122 54 151 55 152 70 c 4
 153 79 153 172 153 287 c 3
 153 444 147 581 145 596 c 0
 140 611 145 625 126 626 c 0
 114 627 86 631 75 633 c 1
 84 690 l 1
 115 685 125 678 192 678 c 3
 252 678 300 688 358 688 c 3
 496 688 565 603 565 510 c 3
 565 441 531 385 458 361 c 1
 562 346 628 276 628 192 c 3
 628 71 514 -4 364 -4 c 7
 305 -4 264 1 198 1 c 7
 123 1 113 -2 82 -4 c 5
 77 51 l 5
340 377 m 0
 394 389 510 413 510 509 c 3
 510 561 482 633 360 633 c 3
 331 633 225 625 217 621 c 0
 207 617 203 615 205 580 c 0
 209 501 209 408 210 377 c 1
 297 377 322 373 340 377 c 0
354 320 m 0
 333 321 234 321 210 321 c 1
 211 222 211 133 210 77 c 4
 210 58 213 56 226 56 c 4
 237 56 326 50 366 50 c 7
 474 50 574 101 574 193 c 3
 574 258 520 311 354 320 c 0
EndSplineSet
Position2: "cpsp-1" dx=0 dy=0 dh=50 dv=100
Substitution2: "c2pc-1" b.pcap
Substitution2: "c2sc-1" b.smcp
EndChar
StartChar: C
Encoding: 67 67 2308
Width: 732
Flags: HW
HStem: -16 56<307.203 538.098> 632 56<286.57 553.553>
VStem: 43 56<215.879 444.931> 607 52<491.378 596.716> 636 53<131.551 187.717>
AnchorPoint: "Top" 417 679 basechar 0
AnchorPoint: "Bottom" 403 -15 basechar 0
LayerCount: 2
Fore
SplineSet
43 320 m 3xe8
 43 503 166 688 414 688 c 3
 497 688 533 677 607 650 c 0
 620 645 618 648 628 668 c 1
 679 644 l 1
 655 595 657 577 659 522 c 0
 660 486 645 478 607 477 c 1xf0
 598 540 605 589 597 593 c 0
 535 621 488 632 412 632 c 3
 228 632 99 516 99 318 c 3
 99 133 278 40 428 40 c 3
 506 40 617 65 636 199 c 1
 689 186 l 1
 683 135 663 99 648 52 c 1
 582 17 519 -16 428 -16 c 3
 201 -16 43 121 43 320 c 3xe8
EndSplineSet
Position2: "cpsp-1" dx=0 dy=0 dh=50 dv=100
Substitution2: "c2pc-1" c.pcap
Substitution2: "c2sc-1" c.smcp
EndChar
StartChar: D
Encoding: 68 68 2320
Width: 804
Flags: HW
HStem: -7 56<69.4 133.461 191.518 517.556> 0 56<190.955 357.789> 619 55<191 379.876> 632 56<192.179 508.021>
VStem: 135 56<56.0862 619.037> 708 57<218.181 449.885>
AnchorPoint: "Top" 379 679 basechar 0
AnchorPoint: "Bottom" 365 -15 basechar 0
LayerCount: 2
Fore
SplineSet
361 49 m 3x8c
 577 49 708 142 708 340 c 3
 708 526 548 632 384 632 c 3x9c
 295 632 272 619 205 619 c 0
 191 619 191 617 191 597 c 0
 191 531 191 458 191 388 c 3
 191 269 190 170 191 71 c 0
 191 62 192 56 204 56 c 0x6c
 249 57 298 49 361 49 c 3x8c
68 682 m 1
 113 678 131 674 174 674 c 1x6c
 258 674 302 688 384 688 c 3
 530 688 765 596 765 342 c 3
 765 70 549 -7 361 -7 c 3x9c
 292 -7 255 0 182 0 c 3x4c
 147 0 116 -3 70 -11 c 1
 60 43 l 1
 111 53 135 52 135 61 c 0
 135 109 135 177 135 241 c 3
 135 392 135 543 135 616 c 0
 135 621 91 623 64 624 c 1
 68 682 l 1
EndSplineSet
Position2: "cpsp-1" dx=0 dy=0 dh=50 dv=100
Substitution2: "c2pc-1" d.pcap
Substitution2: "c2sc-1" d.smcp
EndChar
StartChar: E
Encoding: 69 69 30
Width: 683
Flags: HW
HStem: -14 55<95.7273 142.082> 1 53<201.292 550.927> 311 55<199 482.271> 623 56<85 143.092 198.915 530.427> 667 20G<558 581>
VStem: 144 55<54.0551 311 366 622.835> 493 50<261.16 311.781 367.967 419.612> 524 54<547 625.272>
AnchorPoint: "Top" 349 679 basechar 0
AnchorPoint: "Bottom" 340 -15 basechar 0
LayerCount: 2
Back
SplineSet
598.375946483 641.956795886 m 0
 595.978145051 634.365335627 584.959340604 607.674669674 580.140354851 565.893341523 c 1
 524.509160865 572.309746723 l 1
 527.061344615 594.437562041 530.654352793 611.045463719 534.89522168 626.931812708 c 1
 490.175594542 624.090801799 421.624896939 623.139648438 348.677734375 623.139648438 c 0
 297.84251365 623.139648438 247.371774386 623.620417216 198.275276447 624.596633608 c 1
 198.542204586 622.013273886 199.045905322 614.880147462 199.203628085 609.662129553 c 1
 199.494889219 596.362295328 199.561523438 474.100603915 199.561523438 345.940429688 c 0
 199.561523438 225.01941582 199.387692475 115.442262014 199.09248817 76.9249426467 c 1
 199.084235234 69.3544419054 199.016515728 62.3602102832 198.716421064 56.1096840866 c 1
 235.570187595 58.5316992132 274.099236044 59.3037109375 312.853515625 59.3037109375 c 0
 390.993797396 59.3037109375 468.673492818 56.5007478173 546.327292015 57.144509288 c 1
 552.558145474 80.979518578 558.69127425 100.682868029 565.864630208 127.754708574 c 1
 619.99652004 113.411121045 l 1
 610.474208455 77.4744545297 603.640868256 57.1667058989 595.515270321 22.9532205914 c 0
 590.492831014 1.80583491042 l 1
 568.760513718 1.4274135764 l 0
 482.718036969 -0.0708301861555 396.674301182 3.3037109375 312.853515625 3.3037109375 c 0
 261.448771446 3.3037109375 211.928450609 1.93265153797 166.95013733 -2.75861183491 c 0
 155.553485856 -3.94728899358 144.340923464 -5.36413425063 133.525940389 -7.01031202754 c 0
 130.51277017 -7.49247317427 127.26644446 -8.00759718506 124.025143336 -8.53582179512 c 1
 114.861315911 46.7086991629 l 1
 117.993424443 47.2373606007 121.54695003 47.8066169474 124.917512784 48.3245771994 c 0
 132.806429845 49.5908235813 139.169324234 50.7632056182 142.188823917 51.5078980609 c 1
 142.804182129 56.2125625612 143.079077417 64.6536493241 143.092722109 77.1700605107 c 1
 143.387763218 115.666086767 143.561523438 225.003349629 143.561523438 345.940429688 c 0
 143.561523438 473.419829986 143.452376406 597.690439047 143.222153165 608.203104822 c 1
 142.984182895 616.07598953 142.253810437 622.007375354 141.670613372 624.777119844 c 1
 136.077188402 625.876342446 125.982417033 626.397207131 110.647708749 627.058202365 c 1
 112.918156606 683.012371777 l 1
 178.748110559 680.506986999 265.47152097 679.139648438 348.677734375 679.139648438 c 0
 439.758100511 679.139648438 524.660563803 680.846618666 558.487606769 685.25326165 c 0
 570.842575751 686.862741304 l 1
 580.309141749 678.762135678 l 0
 584.891765493 674.840753025 601.840804857 668.690473914 598.375946483 641.956795886 c 0
480.448064531 300.695097228 m 2
 480.166626986 304.034381368 479.894663426 308.023340495 479.690791592 311.693614801 c 0
 456.601491591 311.038184879 298.27606693 313.276519613 256.238604251 311.318023198 c 1
 226.025213751 310.926182595 l 1
 225.299004999 366.921473655 l 1
 254.581244556 367.301238064 l 1
 299.235668022 369.29162981 448.001065352 367.264687716 475.803897819 367.624357867 c 1
 480.185276314 374.644063315 483.882924595 389.657283689 485.4388845 398.305710225 c 1
 486.312187206 403.417218157 485.713935461 400.504135934 486.361045361 403.372965227 c 1
 541.224853759 392.212553193 l 1
 541.046309505 391.22862131 541.209828817 392.135177302 540.915519314 390.493014136 c 0
 540.799899411 389.816281946 540.628220028 388.819048035 540.387503799 387.460950101 c 0
 538.093566142 373.96629524 536.679741545 361.987712062 535.938683334 350.154631727 c 0
 535.475400533 342.757017734 535.262695312 335.319525471 535.262695312 327.434570312 c 0
 535.262695312 314.32587039 536.522036877 299.44252347 538.505939845 285.773239784 c 0
 541.964039018 261.946601407 l 1
 506.415638421 251.162634002 l 1
 498.287337548 277.956863324 l 0
 480.448064531 300.695097228 l 2
EndSplineSet
Fore
SplineSet
85 684 m 1xa6
 149 681 253 679 349 679 c 3xb6
 452 679 546 681 570 687 c 1
 592 671 599 660 599 647 c 3
 599 629 580 605 578 543 c 1
 524 547 l 1x2d
 517 575 544 628 528 627 c 0
 487 623 396 623 318 623 c 3
 276 623 237 623 213 623 c 0
 205 623 199 619 199 608 c 0
 198 536 200 433 199 366 c 1
 244 368 469 367 474 368 c 0
 483 369 483 397 494 429 c 1
 547 419 l 1
 539 387 535 357 535 327 c 3
 535 307 538 286 543 262 c 1
 493 248 l 1
 476 291 485 312 477 312 c 0
 443 311 255 311 199 311 c 1
 199 221 198 132 199 72 c 0
 199 57 206 54 212 54 c 0
 260 58 342 56 377 56 c 1
 415 56 499 56 533 55 c 0
 552 55 555 96 568 141 c 1
 622 126 l 1
 607 65 603 57 591 0 c 1
 500 -3 404 1 313 1 c 3x76
 233 1 158 0 97 -14 c 1
 87 41 l 1
 125 49 143 49 143 57 c 1
 143 95 144 225 144 346 c 3
 144 482 143 607 143 619 c 0
 143 625 143 626 82 628 c 1
 85 684 l 1xa6
EndSplineSet
Position2: "cpsp-1" dx=0 dy=0 dh=50 dv=100
Substitution2: "c2pc-1" e.pcap
Substitution2: "c2sc-1" e.smcp
EndChar
StartChar: F
Encoding: 70 70 31
Width: 618
VWidth: 1159
Flags: W
HStem: -7 54<97.2222 142.415 200.906 299.982> 307 56<200 472.044> 620 56<82 144.999 200 515.444> 669 20G<533.5 557.5>
VStem: 145 55<57.5585 307 363 619.873> 482 54<258.315 306.24 363 403.655> 514 56<550 626.653>
AnchorPoint: "Top" 334 679 basechar 0
AnchorPoint: "Bottom" 245 -15 basechar 0
LayerCount: 2
Back
SplineSet
155 307 m 1
 155 363 l 1
 511 363 l 1
 511 307 l 1
 155 307 l 1
199.268025862 16.1113215646 m 1
 143.26952469 16.521036638 l 1
 143.474382226 44.5202872242 l 0
 143.718093977 77.8300032196 143.814453125 134.445166687 143.814453125 217.107421875 c 0
 143.814453125 371.496602598 144.198718536 570.390275039 144.633453353 634.644517698 c 0
 144.822892926 662.643876845 l 1
 200.82161122 662.264997699 l 1
 200.632171647 634.265638552 l 0
 200.199939584 570.381305419 199.814453125 371.362011795 199.814453125 217.107421875 c 0
 199.814453125 134.387036891 199.71898375 77.7467542135 199.472883399 44.1105721508 c 0
 199.268025862 16.1113215646 l 1
78.4549506038 624.856005906 m 1
 80.7255714323 680.809953765 l 1
 108.702545362 679.674643351 l 0
 161.404731994 677.535979552 234.077005534 675.737304688 305.677734375 675.737304688 c 0
 403.876284067 675.737304688 498.874502593 677.475010604 534.94884671 686.630749035 c 0
 544.152151338 688.966565581 l 1
 552.877888329 685.222454344 l 0
 565.114545366 679.97184856 578.846679688 659.194731066 578.846679688 640.568359375 c 0
 578.846679688 623.311687851 574.591214846 603.59647944 572.023635887 574.34197484 c 0
 569.575571664 546.449198327 l 1
 513.79001864 551.345326773 l 1
 516.238082863 579.238103285 l 0
 518.007331029 599.396579207 520.364503023 615.81393867 521.720195758 627.305674477 c 1
 469.661012081 620.221975366 389.230141626 619.737304688 305.677734375 619.737304688 c 0
 233.138873759 619.737304688 159.926424146 621.549879496 106.431924533 623.720695491 c 0
 78.4549506038 624.856005906 l 1
480.923450301 415.215986346 m 1
 535.227705096 401.539440324 l 1
 528.389432085 374.387312927 l 0
 524.492255742 358.913138615 523.236328125 347.508311307 523.236328125 333.489257812 c 0
 523.236328125 319.100888766 525.613906279 303.283228198 529.371152616 287.157407097 c 0
 535.724848776 259.887816981 l 1
 481.185668543 247.180424662 l 1
 474.831972384 274.450014778 l 0
 474.605054664 275.423928711 474.831972384 275.450014778 474.831972384 274.450014778 c 1
 470.45384939 293.240592185 467.236328125 313.103754624 467.236328125 333.489257812 c 0
 467.236328125 351.327090106 469.200677874 368.669408011 474.08517729 388.063858948 c 0
 480.923450301 415.215986346 l 1
307.292262199 47.4492045858 m 1
 298.664048336 -7.88210594928 l 1
 270.998393068 -3.56799901752 l 0
 271.986452185 -3.72207426508 270.998393068 -2.56799901752 270.998393068 -3.56799901752 c 1
 235.630643783 1.94715147776 205.845538455 4.46875 174.28515625 4.46875 c 0
 158.11827652 4.46875 140.788543211 2.12593862995 126.00815806 -1.9074375746 c 1
 126.00815806 -2.9074375746 126.972882734 -1.6441766714 126.00815806 -1.9074375746 c 0
 98.9958671844 -9.27874286418 l 1
 84.2532566052 44.7458388863 l 1
 111.26554748 52.1171441758 l 0
 112.230272155 52.380405079 111.26554748 53.1171441758 111.26554748 52.1171441758 c 1
 131.217308496 57.5617220605 152.923822742 60.46875 174.28515625 60.46875 c 0
 208.910049067 60.46875 242.094626683 57.6159462947 279.626606932 51.7633115175 c 0
 307.292262199 47.4492045858 l 1
EndSplineSet
Fore
SplineSet
299 -8 m 1xec
 256 0 216 0 177 0 c 3
 150 0 125 1 99 -7 c 1
 83 47 l 1
 144 64 142 44 143 84 c 1
 143 108 144 155 144 217 c 3
 144 365 145 555 145 616 c 0
 145 622 144 622 77 624 c 1
 82 681 l 1
 135 678 221 676 306 676 c 7xec
 416 676 523 678 544 689 c 1
 571 680 579 654 579 641 c 3
 579 621 572 593 570 550 c 1
 514 545 l 1xda
 516 588 522 627 519 627 c 0
 444 620 313 619 205 620 c 0
 202 620 200 613 200 602 c 0
 200 519 200 439 200 363 c 1
 298 363 449 362 463 363 c 0
 470 363 472 378 481 415 c 1
 535 402 l 1
 528 374 523 351 523 327 c 3
 523 313 528 285 536 260 c 1
 482 247 l 1
 465 304 473 307 462 307 c 0
 419 307 296 307 200 307 c 1
 200 203 200 145 200 78 c 0
 200 47 200 66 308 48 c 1
 299 -8 l 1xec
EndSplineSet
Validated: 33
Position2: "cpsp-1" dx=0 dy=0 dh=50 dv=100
Substitution2: "c2pc-1" f.pcap
Substitution2: "c2sc-1" f.smcp
EndChar
StartChar: G
Encoding: 71 71 2345
Width: 777
Flags: HW
HStem: -12 56<301.522 581.713> 299 55<685.911 720> 632 56<302.134 545.029>
VStem: 38 56<230.907 436.218> 594 53<661.474 683> 629 56<78.0865 293.115 541.887 570.526>
AnchorPoint: "Top" 424 679 basechar 0
AnchorPoint: "Bottom" 424 -15 basechar 0
LayerCount: 2
Fore
SplineSet
38 334 m 3xf4
 38 542 217 688 426 688 c 3
 487 688 532 674 577 659 c 0
 597 652 598 650 594 683 c 1
 647 688 l 1xf8
 685 544 l 1
 632 528 l 1
 614 614 476 632 425 632 c 3
 235 632 94 499 94 335 c 3
 94 160 244 44 436 44 c 3
 491 44 576 66 621 73 c 0
 624 73 626 80 626 84 c 0
 627 132 628 196 629 279 c 0
 629 292 629 292 595 294 c 0
 566 296 547 298 515 301 c 1
 520 357 l 1
 599 345 674 345 720 354 c 1
 726 299 l 1
 686 292 685 294 685 278 c 0
 683 200 682 152 681 98 c 0
 681 88 687 87 709 77 c 1
 704 32 l 1
 622 18 503 -12 436 -12 c 3
 222 -12 38 124 38 334 c 3xf4
EndSplineSet
Position2: "cpsp-1" dx=0 dy=0 dh=50 dv=100
Substitution2: "c2pc-1" g.pcap
Substitution2: "c2sc-1" g.smcp
EndChar
StartChar: H
Encoding: 72 72 2353
Width: 870
Flags: HW
HStem: -7 54<53 119.888 176.016 249 620.309 694.716 751.736 812> 322 55<176 695> 627 57<176.594 253.228 619.525 694.772> 634 55<55.7719 118.547 751.102 805.527>
VStem: 120 56<53.8598 322 377 619.878> 695 56<55.3636 321 377 617.916>
AnchorPoint: "Top" 442 679 basechar 0
AnchorPoint: "Bottom" 439 -15 basechar 0
LayerCount: 2
Fore
SplineSet
57 687 m 1xdc
 89 679 119 674 151 674 c 3
 183 674 215 677 252 684 c 1
 262 627 l 1xec
 177 614 177 625 176 612 c 1
 176 573 176 473 176 377 c 1
 695 377 l 1
 695 446 695 583 695 607 c 0
 695 623 695 612 616 625 c 1
 620 682 l 1
 655 677 684 673 712 673 c 3
 739 673 766 677 804 689 c 1
 816 634 l 1
 751 617 751 622 751 610 c 0
 751 502 751 361 751 232 c 3
 751 155 751 94 751 65 c 0
 751 48 751 59 817 48 c 1
 817 48 812 -6 812 -7 c 1
 779 -2 748 0 716 0 c 3
 686 0 655 -2 621 -8 c 1
 619 8 616 27 613 47 c 1
 696 63 695 48 695 69 c 0
 695 163 695 228 695 321 c 1
 176 322 l 1
 176 234 176 129 176 67 c 0
 176 47 176 61 255 46 c 1
 255 46 249 -8 249 -9 c 1
 213 -3 183 0 154 0 c 3
 121 0 88 -2 53 -7 c 1
 53 -7 46 46 46 47 c 1
 120 60 120 48 120 64 c 0
 120 183 120 337 120 463 c 3
 120 539 120 588 120 609 c 0
 120 627 120 615 47 632 c 1
 57 687 l 1xdc
EndSplineSet
Position2: "cpsp-1" dx=0 dy=0 dh=50 dv=100
Substitution2: "c2pc-1" h.pcap
Substitution2: "c2sc-1" h.smcp
EndChar
StartChar: I
Encoding: 73 73 2357
Width: 453
Flags: HW
HStem: -13 55<69.2364 196.041> 634 55<74.6538 205.152 262.766 389.218>
VStem: 201 57<56.248 620.751>
AnchorPoint: "Top" 232 679 basechar 0
AnchorPoint: "Bottom" 233 -15 basechar 0
LayerCount: 2
Fore
SplineSet
75 693 m 1
 128 681 178 675 229 675 c 3
 280 675 333 681 389 689 c 1
 393 634 l 1
 315 620 261 624 261 615 c 0
 261 541 260 425 260 283 c 3
 260 212 259 142 258 60 c 0
 258 52 314 51 390 46 c 1
 385 -10 l 1
 334 -3 281 0 230 0 c 3
 174 0 119 -4 70 -13 c 1
 64 42 l 1
 147 59 201 47 201 73 c 0
 202 153 204 257 204 362 c 3
 204 466 207 551 206 610 c 0
 206 625 160 617 69 637 c 1
 75 693 l 1
EndSplineSet
Position2: "cpsp-1" dx=0 dy=0 dh=50 dv=100
Substitution2: "c2pc-1" i.pcap
Substitution2: "c2sc-1" i.smcp
EndChar
StartChar: J
Encoding: 74 74 35
Width: 401
VWidth: 1356
Flags: HMW
AnchorPoint: "Top" 211 679 basechar 0
AnchorPoint: "Bottom" 266 -65 basechar 0
LayerCount: 2
Back
SplineSet
41.8349426238 634.319295047 m 1
 51.6606595735 689.450550125 l 1
 79.2262871122 684.53769165 l 0
 119.016558478 677.446107335 153.370082983 674.708007812 187.625976562 674.708007812 c 0
 233.838875015 674.708007812 278.728186219 679.758187507 331.039111053 686.589477728 c 0
 358.803369092 690.21521566 l 1
 366.054844956 634.686699583 l 1
 338.290586918 631.06096165 l 0
 285.520533427 624.16971376 237.975773115 618.708007812 187.625976562 618.708007812 c 0
 150.32453498 618.708007812 112.2484387 621.769914829 69.4005701625 629.406436572 c 1
 68.4005701625 629.406436572 68.4160834647 629.581895804 69.4005701625 629.406436572 c 0
 41.8349426238 634.319295047 l 1
77.514547439 -176.890370912 m 1
 43.0765614474 -132.731282144 l 1
 65.1561058316 -115.512289148 l 0
 135.312490529 -60.8000054301 183 -25.492221267 183 105 c 0
 183 655 l 1
 239 655 l 1
 239 105 l 0
 239 -45.9687786706 171.192820633 -103.834265138 99.5940918231 -159.671377916 c 0
 77.514547439 -176.890370912 l 1
EndSplineSet
Fore
SplineSet
183 602 m 3
 183 629 184 611 65 635 c 1
 70 691 l 1
 122 680 166 675 209 675 c 7
 250 675 289 682 338 691 c 1
 343 635 l 1
 242 616 239 629 239 608 c 0
 240 495 240 387 240 231 c 3
 240 127 239 80 236 52 c 0
 227 -24 198 -75 135 -131 c 0
 116 -148 95 -162 76 -178 c 1
 46 -130 l 1
 67 -115 82 -101 100 -88 c 0
 108 -83 114 -77 121 -70 c 0
 155 -38 182 10 184 105 c 1
 184 136 183 590 183 602 c 3
EndSplineSet
Validated: 33
Position2: "cpsp-1" dx=0 dy=0 dh=50 dv=100
Substitution2: "c2pc-1" j.pcap
Substitution2: "c2sc-1" j.smcp
EndChar
StartChar: K
Encoding: 75 75 36
Width: 754
VWidth: 1159
Flags: W
HStem: -9 54<67.3571 132.893 189.997 252.75 505.222 542.044 635.354 699> 632 53<70.4151 131.214 190.12 251 457.517 485.916> 638 54<574.067 628.944>
VStem: 133 56<54.9606 301 377 621.02>
AnchorPoint: "Top" 369 679 basechar 0
AnchorPoint: "Bottom" 374 -15 basechar 0
LayerCount: 2
Back
SplineSet
621.477342566 67.8756142048 m 1
 586.522657434 24.1243857952 l 1
 208.522657434 326.124385795 l 1
 243.477342566 369.875614205 l 1
 621.477342566 67.8756142048 l 1
537.859462311 660.328874616 m 1
 574.140537689 617.671125384 l 1
 186.140537689 287.671125384 l 1
 149.859462311 330.328874616 l 1
 537.859462311 660.328874616 l 1
133 637 m 1
 189 637 l 1
 189 46 l 1
 133 46 l 1
 133 637 l 1
90.3888834871 625.82991476 m 1
 98.4052123764 681.253181274 l 1
 126.662859949 677.166042229 152.493839967 675.522460938 179.177734375 675.522460938 c 0
 207.199500017 675.522460938 235.632034376 677.86856925 263.02699481 681.521579454 c 1
 270.428857565 626.012909611 l 1
 241.127793311 622.105727961 210.306842291 619.522460938 179.177734375 619.522460938 c 0
 150.16663905 619.522460938 121.357148749 621.35071649 90.3888834871 625.82991476 c 1
272.036251295 56.1588933724 m 1
 265.464481186 0.545838811255 l 1
 233.947991944 4.27012843343 205.225093929 6.1298828125 172.168945312 6.1298828125 c 0
 148.888262972 6.1298828125 122.891304565 4.67381525282 95.8088128459 1.96944863937 c 1
 90.2445139998 57.6923216661 l 1
 118.87080804 60.5508471914 146.578587795 62.1298828125 172.168945312 62.1298828125 c 0
 207.354860246 62.1298828125 238.717725152 60.0961288998 272.036251295 56.1588933724 c 1
475.363512975 620.793507121 m 1
 480.71442174 676.537276059 l 1
 490.101179835 675.636230307 497.934757823 675.276367188 506.7890625 675.276367188 c 0
 540.42926527 675.276367188 576.636535234 679.312044036 610.388211349 685.861714287 c 1
 621.056264309 630.887241611 l 1
 584.220987164 623.73918419 544.830855914 619.276367188 506.7890625 619.276367188 c 0
 496.343580307 619.276367188 486.348652019 619.739030936 475.363512975 620.793507121 c 1
689.462318318 56.2272595034 m 1
 682.616862227 0.647229538346 l 1
 657.658092383 3.72125024588 635.782414973 5.9443359375 609.103515625 5.9443359375 c 0
 566.030817571 5.9443359375 537.2727091 2.67545501271 505.393460696 -0.964315968988 c 1
 499.041004901 54.6742165905 l 1
 530.872138163 58.3084940895 563.13930223 61.9443359375 609.103515625 61.9443359375 c 0
 639.001806479 61.9443359375 663.866502523 59.3797413072 689.462318318 56.2272595034 c 1
EndSplineSet
Fore
SplineSet
458 681 m 1xd0
 475 677 491 675 507 675 c 3
 546 675 585 681 627 692 c 1
 642 638 l 1xb0
 603 629 581 624 562 608 c 0
 462 525 336 422 232 337 c 1
 634 59 l 1
 663 51 685 50 707 45 c 1
 698 -9 l 1
 669 -5 641 0 609 0 c 3
 566 0 543 -5 506 -10 c 1
 499 45 l 1
 502 46 545 51 543 53 c 1
 522 66 307 218 189 301 c 1
 189 223 188 118 189 67 c 0
 189 51 192 61 259 47 c 1
 252 -9 l 1
 225 -3 200 0 172 0 c 3
 141 0 108 -2 68 -7 c 1
 62 47 l 1
 133 61 133 49 133 63 c 0
 133 169 133 276 133 388 c 3
 133 464 133 521 133 594 c 0
 133 631 132 614 60 632 c 1
 72 685 l 1
 105 678 137 675 168 675 c 3
 196 675 223 679 250 685 c 1
 258 629 l 1
 190 613 190 629 189 606 c 1
 189 530 190 455 190 377 c 1
 272 441 383 531 461 595 c 0
 478 609 483 614 486 619 c 0
 486 619 467 623 454 627 c 1
 458 681 l 1xd0
EndSplineSet
Validated: 33
Position2: "cpsp-1" dx=0 dy=0 dh=50 dv=100
Substitution2: "c2pc-1" k.pcap
Substitution2: "c2sc-1" k.smcp
EndChar
StartChar: L
Encoding: 76 76 2377
Width: 682
Flags: HW
HStem: -15 21G<597.5 617.5> 1 55<67 128 185.781 574.583> 635 53<63.7273 126.525 185.502 267.717>
VStem: 128 55<56.088 621.405> 588 55<59 142.764>
AnchorPoint: "Top" 207 679 basechar 0
AnchorPoint: "Bottom" 335 -15 basechar 0
LayerCount: 2
Fore
SplineSet
266 688 m 1x78
 279 635 l 1
 184 609 184 635 184 599 c 0
 184 542 184 178 183 162 c 1
 184 81 185 56 195 56 c 0x78
 279 57 508 56 549 55 c 0
 581 55 569 67 588 148 c 1
 643 142 l 1
 639 68 625 47 610 -15 c 1xb8
 585 -7 578 -2 532 -1 c 0
 518 -1 426 1 319 1 c 1
 94 1 113 -4 67 -4 c 1
 62 51 l 1
 129 59 129 47 128 63 c 0
 128 74 128 178 128 303 c 3
 128 455 128 585 128 601 c 0
 128 632 128 612 55 633 c 1
 65 688 l 1
 95 679 128 675 159 675 c 3
 197 675 234 680 266 688 c 1x78
EndSplineSet
Position2: "cpsp-1" dx=0 dy=0 dh=50 dv=100
Substitution2: "c2pc-1" l.pcap
Substitution2: "c2sc-1" l.smcp
EndChar
StartChar: M
Encoding: 77 77 2384
Width: 899
Flags: HW
HStem: -10 57<32.1579 94.475 153.246 208.138 682.868 750.951 807.036 874.321> -3 21G<410.5 466> 630 56<790 861> 637 56<45.625 112.577>
VStem: 96 57<55.3373 303.454> 115 59<396.935 621.805> 411 53<-3 77.4723> 732 58<405.77 623.979> 752 55<54.6358 280.699>
AnchorPoint: "Top" 456 679 basechar 0
AnchorPoint: "Bottom" 437 -15 basechar 0
LayerCount: 2
Fore
SplineSet
874 -9 m 1x2280
 837 -1 799 0 760 0 c 3
 736 0 711 -1 684 -11 c 1
 674 43 l 1
 727 62 753 46 752 66 c 0x2280
 745 253 736 457 732 624 c 1
 656 456 579 290 507 128 c 0
 490 89 468 43 464 -3 c 1
 411 -3 l 1
 410 39 396 73 378 119 c 0
 295 326 190 583 174 622 c 1x67
 166 463 160 266 153 96 c 0
 151 43 147 64 218 48 c 1
 207 -6 l 1
 183 0 156 0 126 0 c 3
 96 0 64 0 33 -10 c 1
 25 47 l 1
 95 61 95 50 96 82 c 1x8a
 96 84 115 568 115 572 c 1
 117 604 118 618 113 622 c 0
 104 630 94 628 36 637 c 1
 47 693 l 1x96
 92 682 142 676 186 678 c 1
 210 679 220 653 222 650 c 0
 301 468 365 290 440 115 c 1
 438 124 686 659 687 660 c 0
 694 674 707 684 724 682 c 0
 772 676 813 681 860 686 c 1
 868 630 l 1
 797 622 790 628 790 616 c 0x27
 789 440 803 267 807 70 c 0
 807 46 813 63 877 46 c 1
 874 -9 l 1x2280
EndSplineSet
Position2: "cpsp-1" dx=0 dy=0 dh=50 dv=100
Substitution2: "c2pc-1" m.pcap
Substitution2: "c2sc-1" m.smcp
EndChar
StartChar: N
Encoding: 78 78 2387
Width: 802
Flags: HW
HStem: -10 55<38.125 98.573 157.563 235.4> 625 53<31 100.683 724.722 787.075> 637 54<591.833 667.092>
VStem: 101 57<55.8633 573> 661 56<129 316.233> 668 57<393.69 623.074>
AnchorPoint: "Bottom" 407 -15 basechar 0
AnchorPoint: "Top" 410 679 basechar 0
LayerCount: 2
Fore
SplineSet
31 684 m 1xd8
 52 684 98 676 126 674 c 0
 145.94921875 672.575195312 157 662 162 656 c 0
 323 459 483 332 661 129 c 1xd8
 663 253 665 326 665 463 c 3
 665 513 668 563 668 610 c 3
 668 630 669 621 584 637 c 1
 593 691 l 1xb4
 640 681 680 678 721 678 c 3
 742 678 764 679 787 681 c 1
 791 625 l 1
 726 619 725 630 725 616 c 0xd4
 719 435 717 295 717 97 c 0
 717 70 727 26 733 3 c 1
 682 -7 l 1
 666 36 636 74 604 110 c 0
 456 276 304 404 158 573 c 1
 158 562 157 82 156 71 c 1
 158 46 157 66 245 45 c 1
 234 -10 l 1
 203 -1 173 0 146 0 c 3
 111 0 77 -2 39 -8 c 1
 32 46 l 1
 102 61 100 46 100 70 c 0
 102 197 101 323 101 455 c 3
 101 517 101 549 101 604 c 1
 101 619 102 619 28 629 c 1
 31 684 l 1xd8
EndSplineSet
Position2: "cpsp-1" dx=0 dy=0 dh=50 dv=100
Substitution2: "c2pc-1" n.pcap
Substitution2: "c2sc-1" n.smcp
EndChar
StartChar: O
Encoding: 79 79 2400
Width: 818
Flags: HW
HStem: -15 56<295.35 524.401> 634 56<301.12 517.308>
VStem: 48 56<221.25 442.054> 714 56<223.429 440.074>
AnchorPoint: "Bottom" 420 -15 basechar 0
AnchorPoint: "Top" 415 679 basechar 0
AnchorPoint: "Horn" 644 595 basechar 0
AnchorPoint: "Middle" 413.697 347.853 basechar 0
LayerCount: 2
Fore
SplineSet
407 634 m 0
 247 634 104 502 104 332 c 0
 104 140 265 41 416 41 c 0
 574 41 714 166 714 330 c 0
 714 508 567 634 407 634 c 0
407 690 m 3
 596 690 770 541 770 330 c 3
 770 132 603 -15 416 -15 c 3
 244 -15 48 101 48 332 c 3
 48 534 217 690 407 690 c 3
EndSplineSet
Position2: "cpsp-1" dx=0 dy=0 dh=50 dv=100
Substitution2: "c2pc-1" o.pcap
Substitution2: "c2sc-1" o.smcp
EndChar
StartChar: P
Encoding: 80 80 2418
Width: 639
Flags: HW
HStem: -10 51<76.5294 118.301> -6 54<175.034 251.296> 198 56<175.991 413.406> 630 56<177.021 423.029>
VStem: 119 56<57.9564 218 270.468 620.01> 543 56<363.894 522.164>
AnchorPoint: "Bottom" 220 -15 basechar 0
AnchorPoint: "Top" 316 679 basechar 0
LayerCount: 2
Fore
SplineSet
285 254 m 3x3c
 450 254 543 340 543 447 c 3
 543 519 490 585 408 615 c 0
 387 623 347 630 318 630 c 0
 254 631 175 618 175 615 c 0
 175 544 175 389 175 276 c 1
 194 270 265 254 285 254 c 3x3c
61 681 m 1
 88 677 103 675 139 675 c 1
 214 675 244 686 317 686 c 1
 482 686 599 572 599 446 c 1
 599 345 518 198 280 198 c 1
 250 198 197 212 175 218 c 1
 175 158 175 101 175 73 c 0
 175 45 179 69 260 48 c 1
 250 -6 l 1x7c
 209 4 179 0 148 0 c 3
 129 0 108 6 79 -10 c 1
 61 41 l 1xbc
 120 64 119 48 119 72 c 0
 119 104 119 136 119 179 c 3
 119 341 119 546 119 616 c 0
 119 623 114 616 54 625 c 1
 61 681 l 1
EndSplineSet
Position2: "cpsp-1" dx=0 dy=0 dh=50 dv=100
Substitution2: "c2pc-1" p.pcap
Substitution2: "c2sc-1" p.smcp
EndChar
StartChar: Q
Encoding: 81 81 2423
Width: 801
Flags: HW
HStem: -157 56<641.005 792.424> 635 56<274.532 502.526>
VStem: 42 56<229.157 461.619> 689 56<236.681 457.195>
AnchorPoint: "Bottom" 321 -15 basechar 0
AnchorPoint: "Top" 394 679 basechar 0
LayerCount: 2
Fore
SplineSet
390 635 m 3
 220 635 98 512 98 348 c 3
 98 145 245 44 411 44 c 3
 544 44 689 174 689 354 c 3
 689 524 545 635 390 635 c 3
524 12 m 1
 593 -62 658 -101 724 -101 c 3
 751 -101 774 -89 786 -83 c 1
 804 -136 l 1
 789 -145 760 -157 724 -157 c 3
 628 -157 543 -98 468 -6 c 1
 215 -42 42 125 42 347 c 3
 42 547 194 691 389 691 c 3
 585 691 745 547 745 356 c 3
 745 200 647 61 524 12 c 1
EndSplineSet
Position2: "cpsp-1" dx=0 dy=0 dh=50 dv=100
Substitution2: "salt-1" Q.alt
Substitution2: "c2pc-1" q.pcap
Substitution2: "c2sc-1" q.smcp
EndChar
StartChar: R
Encoding: 82 82 2425
Width: 757
Flags: HMW
AnchorPoint: "Bottom" 332 -15 basechar 0
AnchorPoint: "Top" 313 679 basechar 0
LayerCount: 2
Fore
SplineSet
170 320 m 1
 196 319 280 316 308 316 c 3
 430 316 510 399 510 484 c 3
 510 556 428 635 308 635 c 3
 280 635 164 616 165 608 c 0
 166 588 170 397 170 320 c 1
44 675 m 1
 87 674 113 673 151 673 c 1
 211 673 237 691 307 691 c 3
 437 691 564 609 564 485 c 3
 564 384 499 325 437 290 c 1
 556 83 654 29 753 25 c 1
 742 -29 l 1
 586 -25 449 131 386 269 c 1
 356 263 331 259 303 259 c 1
 268 259 205 263 169 264 c 1
 168 200 164 121 164 64 c 0
 164 48 194 71 280 48 c 1
 272 -8 l 1
 237 2 200 2 163 2 c 3
 129 2 94 2 59 -7 c 1
 47 47 l 1
 99 61 107 52 107 62 c 1
 112 172 113 262 113 339 c 3
 113 420 112 499 110 603 c 1
 108 618 96 617 44 619 c 1
 44 675 l 1
EndSplineSet
Position2: "cpsp-1" dx=0 dy=0 dh=50 dv=100
Substitution2: "salt-1" R.alt
Substitution2: "c2pc-1" r.pcap
Substitution2: "c2sc-1" r.smcp
EndChar
StartChar: S
Encoding: 83 83 2431
Width: 588
Flags: HW
HStem: -12 54<205.695 406.862> 1 21G<78 133.5> 631 56<224.155 416.54>
VStem: 57 53<106.81 188.321> 78 55<7 33.3435> 95 56<450.974 569.682> 468 50<654.973 667.24> 479 56<106.768 242.204>
AnchorPoint: "Bottom" 315 -15 basechar 0
AnchorPoint: "Top" 321 679 basechar 0
LayerCount: 2
Fore
SplineSet
57 187 m 1x70
 110 197 l 1
 124 139 126 116 131 106 c 0
 141 86 242 42 301 42 c 3
 440 42 479 119 479 180 c 3xb1
 479 283 348 307 267 332 c 0
 242 340 95 383 95 508 c 3
 95 596 181 687 316 687 c 3
 379 687 424 668 443 657 c 0
 462 645 452 652 468 681 c 1
 518 665 l 1xa6
 506 632 504 614 508 596 c 0
 517 551 512 532 461 537 c 1
 457 563 460 569 454 580 c 0
 446 595 398 631 315 631 c 3
 233 631 151 584 151 508 c 3
 151 445 204 410 361 364 c 0
 483 328 535 252 535 180 c 3
 535 97 478 -12 300 -12 c 3xa5
 252 -12 190 5 135 34 c 1
 135 24 134 18 133 1 c 1
 78 7 l 1x69
 81 78 77 80 57 187 c 1x70
EndSplineSet
Position2: "cpsp-1" dx=0 dy=0 dh=50 dv=100
Substitution2: "c2pc-1" s.pcap
Substitution2: "c2sc-1" s.smcp
EndChar
StartChar: T
Encoding: 84 84 2439
Width: 724
Flags: HMW
AnchorPoint: "Bottom" 358 -15 basechar 0
AnchorPoint: "Top" 358 679 basechar 0
LayerCount: 2
Fore
SplineSet
110 680 m 0
 245 680 386 678 525 678 c 3
 563 678 600 678 637 678 c 0
 655 678 662 691 670 700 c 1
 713 671 l 1
 696 637 684 613 677 559 c 1
 623 569 l 1
 623 578 628 609 633 622 c 1
 600 622 458 623 381 623 c 1
 381 472 382 302 382 148 c 3
 382 118 382 85 382 65 c 0
 382 44 383 65 482 45 c 1
 472 -11 l 1
 440 -2 398 0 355 0 c 3
 315 0 272 0 245 -15 c 1
 227 38 l 1
 321 74 326 35 326 79 c 0
 326 164 325 392 325 526 c 3
 325 567 325 600 325 623 c 1
 263 623 178 624 103 624 c 3
 77 624 83 623 51 562 c 1
 2 588 l 1
 22 621 47 678 65 707 c 1
 82 695 99 680 110 680 c 0
EndSplineSet
Position2: "cpsp-1" dx=0 dy=0 dh=50 dv=100
Substitution2: "c2pc-1" t.pcap
Substitution2: "c2sc-1" t.smcp
EndChar
StartChar: U
Encoding: 85 85 2447
Width: 816
Flags: HW
HStem: -13 55<290.075 533.885> 628 54<49.7455 108.573 170.548 262.259 576 660.375 715.037 776.204>
VStem: 113 57<147.388 619.077> 661 54<164.764 621.028>
AnchorPoint: "Bottom" 420 -15 basechar 0
AnchorPoint: "Top" 420 679 basechar 0
LayerCount: 2
Fore
SplineSet
50 683 m 1
 78 678 123 676 169 676 c 3
 202 676 237 678 262 682 c 1
 269 628 l 1
 192 614 166 624 167 610 c 0
 168 595 170 401 170 267 c 0
 170 202 175 154 220 110 c 0
 256 74 308 42 420 42 c 3
 480 42 549 57 599 108 c 0
 634 144 657 184 659 262 c 0
 661 352 662 517 661 610 c 0
 661 624 636 618 574 631 c 1
 576 686 l 1
 603 681 651 676 692 676 c 3
 728 676 761 679 776 687 c 1
 781 633 l 1
 717 611 715 634 715 604 c 0
 715 591 720 474 716 262 c 0
 715 183 687 126 647 78 c 0
 595 16 514 -13 419 -13 c 3
 303 -13 225 22 173 78 c 0
 133 121 117 178 113 246 c 0
 111 283 113 595 109 610 c 0
 106 622 95 622 43 627 c 1
 50 683 l 1
EndSplineSet
Position2: "cpsp-1" dx=0 dy=0 dh=50 dv=100
Substitution2: "c2pc-1" u.pcap
Substitution2: "c2sc-1" u.smcp
EndChar
StartChar: V
Encoding: 86 86 54
Width: 827
Flags: HW
HStem: -10 21G<391.5 451> 620 53<112 164> 624 58<619 657.173> 630 55<42.6909 93.8921 158.872 206 723.469 779.964>
AnchorPoint: "Bottom" 421 -15 basechar 0
AnchorPoint: "Top" 422 679 basechar 0
LayerCount: 2
Back
SplineSet
614.427002725 627.755206889 m 1
 622.630206889 683.151122275 l 1
 650.328164582 679.049520193 l 0
 668.181136875 676.405795008 688.042301482 676.23046875 709.366210938 676.23046875 c 0
 723.057317106 676.23046875 737.03299184 677.842673214 747.803873105 680.666485969 c 0
 774.888527136 687.767296907 l 1
 789.090149012 633.597988843 l 1
 762.005494981 626.497177905 l 0
 745.275225577 622.11098638 727.184453218 620.23046875 709.366210938 620.23046875 c 0
 687.92810243 620.23046875 665.359109289 620.213017799 642.124960418 623.653604807 c 0
 614.427002725 627.755206889 l 1
695.395818084 678.151688376 m 1
 744.151688376 650.604181916 l 1
 730.377935146 626.22624677 l 0
 701.106954128 574.420027726 477.672038323 92.950216213 448.727295135 -6.27190206484 c 0
 424.356529459 -89.8144983396 l 1
 395.438733191 -7.73489873669 l 0
 339.331630145 151.518196148 130.321744309 552.326843191 86.0439398349 625.504925617 c 0
 71.548865452 649.460985782 l 1
 119.460985782 678.451134548 l 1
 133.956060165 654.495074383 l 0
 176.067482514 584.897379278 340.557324988 271.320170848 420.853459795 80.7538332608 c 1
 488.718029141 250.960674024 652.801650296 602.764984214 681.622064854 653.77375323 c 0
 695.395818084 678.151688376 l 1
31.0165849398 638.960131958 m 1
 49.1608742132 691.939229409 l 1
 75.6504229389 682.867084772 l 0
 74.7043676273 683.191089938 74.6504229389 682.867084772 75.6504229389 682.867084772 c 1
 90.9637066765 677.622589052 100.020161878 676.552734375 109.428710938 676.552734375 c 0
 131.835170363 676.552734375 152.585363959 677.683960235 176.669788568 682.009293887 c 0
 204.228887142 686.958645944 l 1
 214.127591256 631.840448795 l 1
 186.568492682 626.891096738 l 0
 158.528033801 621.855296947 133.754549226 620.552734375 109.428710938 620.552734375 c 0
 94.3158153409 620.552734375 77.4907264073 623.043660989 57.5061336655 629.887987321 c 1
 56.5061336655 629.887987321 56.5600783539 630.211992486 57.5061336655 629.887987321 c 0
 31.0165849398 638.960131958 l 1
EndSplineSet
Fore
SplineSet
205 681 m 1xc0
 215 625 l 1
 196 624 176 621 164 620 c 0xc0
 156 620 157 613 160 605 c 1
 166 595 348 257 421 81 c 1
 493 264 654 595 658 605 c 1
 662 612 665 615 657 618 c 0
 649 621 627 621 617 624 c 1
 619 682 l 1xa0
 644 673 675 673 707 673 c 3xc0
 735 673 758 678 779 686 c 1
 788 629 l 1
 731 613 731 624 720 603 c 1
 699 567 538 221 473 59 c 0
 463 35 457 14 451 -9 c 1
 395 -10 l 1
 388 18 385 21 371 55 c 0
 326 169 206 400 100 597 c 0
 82 630 94 612 32 630 c 1
 44 685 l 1x90
 72 675 94 673 112 673 c 3
 139 673 165 678 205 681 c 1xc0
EndSplineSet
Position2: "cpsp-1" dx=0 dy=0 dh=50 dv=100
Substitution2: "c2pc-1" v.pcap
Substitution2: "c2sc-1" v.smcp
EndChar
StartChar: W
Encoding: 87 87 2474
Width: 1038
Flags: HW
HStem: -8 20G<338 389 698 742> 631 55<403.236 465.426 796 887.269> 635 55<11.75 48.4346 132.124 243.727 531.904 618.818 986.87 1026.85>
AnchorPoint: "Bottom" 534 -15 basechar 0
AnchorPoint: "Top" 529 679 basechar 0
LayerCount: 2
Fore
SplineSet
1026 690 m 1xa0
 1035 637 l 1
 979 620 983 617 944 528 c 1
 842 270 816 181 763 47 c 0
 752 20 753 19 742 -6 c 1
 701 -9 l 1
 695 13 691 22 676 66 c 0
 641 171 596 279 558 383 c 1
 475 209 404 44 401 36 c 0
 394 15 393 11 385 -8 c 1
 345 -8 l 1
 331 30 329 36 298 110 c 0
 197 347 98 543 94 552 c 0
 86 568 70 605 49 621 c 0
 37 630 21 630 0 638 c 1
 13 692 l 1
 39 681 83 676 128 676 c 3
 172 676 216 685 243 690 c 1
 251 635 l 1xa0
 150 612 131 627 131 613 c 3
 131 606 132 603 138 590 c 1
 143 579 278 306 364 96 c 1
 373 117 525 442 529 456 c 1
 489 562 472 600 468 608 c 1
 453 625 430 626 398 631 c 1
 404 686 l 1xc0
 429 680 471 676 508 676 c 3
 547 676 588 681 618 689 c 1
 627 635 l 1
 613 629 579 624 565 623 c 0
 527 620 530 615 534 603 c 1
 567 518 716 119 723 100 c 1
 779 256 857 458 909 590 c 0
 928 639 908 608 794 627 c 1
 796 684 l 1
 820 679 852 676 889 676 c 3
 932 676 980 681 1026 690 c 1xa0
EndSplineSet
Position2: "cpsp-1" dx=0 dy=0 dh=50 dv=100
Substitution2: "c2pc-1" w.pcap
Substitution2: "c2sc-1" w.smcp
EndChar
StartChar: X
Encoding: 88 88 2479
Width: 690
Flags: HW
HStem: -11 56<13.569 98.84 478.245 520.816 591.944 671.982> -7 60<164.821 211.636> 621 56<12 112.99 175.794 213.12 548.143 633.12>
AnchorPoint: "Bottom" 342 -15 basechar 0
AnchorPoint: "Top" 340 679 basechar 0
LayerCount: 2
Fore
SplineSet
12 677 m 1x60
 58 675 94 673 121 673 c 3
 149 673 172 675 213 682 c 1
 219 627 l 1
 205 624 192 623 175 621 c 0
 174 621 171 616 178 606 c 1
 182 602 335 402 338 400 c 1
 357 428 460 572 490 615 c 0
 491 616 490 619 489 619 c 1
 481 620 460 622 452 624 c 1
 460 680 l 1
 486 675 510 673 535 673 c 3
 566 673 598 676 633 683 c 1
 639 627 l 1
 559 614 563 620 545 595 c 0
 537 584 514 549 373 353 c 1
 399 320 577 87 594 63 c 1
 604 51 600 60 682 45 c 1
 671 -11 l 1xa0
 643 -4 610 0 575 0 c 3
 541 0 505 -5 479 -13 c 1
 471 42 l 1
 485 45 502 48 511 50 c 0
 528 54 526 60 520 68 c 0
 421 198 355 285 339 306 c 1
 278 218 204 117 165 63 c 1
 161 56 169 54 174 53 c 0
 185 51 205 50 216 48 c 1
 211 -7 l 1
 176 -3 147 0 119 0 c 3
 86 0 53 -2 14 -9 c 1
 9 47 l 1
 90 58 89 54 97 64 c 0
 104 73 140 121 304 352 c 1
 129 580 113 599 103 612 c 0
 96 620 89 615 11 621 c 1
 12 677 l 1x60
EndSplineSet
Position2: "cpsp-1" dx=0 dy=0 dh=50 dv=100
Substitution2: "c2pc-1" x.pcap
Substitution2: "c2sc-1" x.smcp
EndChar
StartChar: Y
Encoding: 89 89 2481
Width: 658
Flags: HW
HStem: -15 54<229.056 318.469 375.703 466.05> 628 54<7.5556 82.998 152.747 193.491 473.709 509.343 580.354 646.769>
VStem: 319 55<54.3129 286.214>
AnchorPoint: "Bottom" 351 -15 basechar 0
AnchorPoint: "Top" 344 679 basechar 0
LayerCount: 2
Fore
SplineSet
200 625 m 1
 180 621 168 619 152 618 c 0
 145 617 148 616 155 605 c 1
 237 482 315 366 346 320 c 1
 391 397 510 598 515 608 c 1
 519 613 522 619 510 621 c 0
 496 623 481 624 470 627 c 1
 474 684 l 1
 493 679 529 673 566 673 c 3
 595 673 625 678 646 685 c 1
 656 630 l 1
 587 612 591 624 583 612 c 1
 527 516 442 373 375 259 c 1
 375 218 374 181 374 63 c 0
 374 50 378 60 474 45 c 1
 465 -10 l 1
 424 -4 385 0 347 0 c 3
 309 0 271 -4 231 -15 c 1
 216 39 l 1
 319 64 319 46 319 69 c 1
 319 73 319 254 319 258 c 1
 295 294 186 458 83 611 c 1
 76 622 77 613 2 628 c 1
 8 682 l 1
 33 678 70 673 103 673 c 3
 138 673 171 675 193 681 c 1
 200 625 l 1
EndSplineSet
Position2: "cpsp-1" dx=0 dy=0 dh=50 dv=100
Substitution2: "c2pc-1" y.pcap
Substitution2: "c2sc-1" y.smcp
EndChar
StartChar: Z
Encoding: 90 90 2486
Width: 696
Flags: HW
HStem: -4 46<35.5652 55.497> 1 56<287.565 581.116> 619 59<99.945 558>
AnchorPoint: "Bottom" 337 -17 basechar 0
AnchorPoint: "Top" 349 677 basechar 0
LayerCount: 2
Fore
SplineSet
19 559 m 1xa0
 45 616 45 673 93 706 c 1
 113 688 120 678 142 678 c 0
 190 678 522 674 619 673 c 0
 629 673 629 671 631 671 c 1
 652 634 l 1
 653 634 646 629 646 628 c 0
 581 554 141 60 132 58 c 1
 271 58 399 57 521 57 c 0
 580 57 562 39 611 140 c 1
 663 118 l 1
 633 47 622 12 597 -24 c 1
 574 -10 574 2 510 1 c 0x60
 383 -1 107 6 38 -4 c 1
 22 42 l 1
 63 63 91 95 122 129 c 1
 264 281 414 453 555 611 c 1
 558 615 l 1
 531 615 137 619 123 619 c 1
 100 618 106 630 73 540 c 1
 19 559 l 1xa0
EndSplineSet
Position2: "cpsp-1" dx=0 dy=0 dh=50 dv=100
Substitution2: "c2pc-1" z.pcap
Substitution2: "c2sc-1" z.smcp
EndChar
StartChar: bracketleft
Encoding: 91 91 85
Width: 246
VWidth: 1515
Flags: HW
HStem: -177 56<93 219> 661 56<93 219>
VStem: 37 182<-177 -121 661 717> 37 56<-121 661>
LayerCount: 2
Fore
SplineSet
93 661 m 1xd0
 93 -121 l 1xd0
 219 -121 l 1
 219 -177 l 1
 37 -177 l 1
 37 717 l 5
 219 717 l 1
 219 661 l 1xe0
 93 661 l 1xd0
EndSplineSet
Position2: "cpsp-1" dx=0 dy=0 dh=50 dv=100
Position2: "'case' vertical ajustments for all-caps-1" dx=0 dy=90 dh=0 dv=0
EndChar
StartChar: asciicircum
Encoding: 94 94 872
Width: 463
VWidth: 1159
Flags: W
HStem: 374 322
LayerCount: 2
Back
SplineSet
102.805486729 397.834596075 m 1
 54.6972691025 426.498151276 l 1
 231.453979736 723.162338334 l 1
 409.084289577 426.72589981 l 1
 361.048139781 397.941732066 l 1
 231.590942077 613.984988775 l 1
 102.805486729 397.834596075 l 1
EndSplineSet
Fore
SplineSet
424 401 m 1
 375 374 l 1
 232 614 l 1
 89 374 l 1
 40 401 l 1
 216 696 l 1
 248 696 l 1
 424 401 l 1
EndSplineSet
Validated: 1
EndChar
StartChar: a
Encoding: 97 97 0
Width: 477
Flags: HMW
AnchorPoint: "Top" 233 537 basechar 0
AnchorPoint: "Ogonek" 367 18 basechar 0
AnchorPoint: "Bottom" 216 -15 basechar 0
LayerCount: 2
Fore
SplineSet
331 253 m 1
 330 254 328 254 326 254 c 1
 250.504882812 249.875 144.89453125 209.196289062 117 188 c 0
 97.4765625 173.165039062 99 141.6875 99 112 c 3
 99 67.98828125 106.956054688 46 153 46 c 3
 220.421875 46 269.447265625 73.375 330 119 c 1
 330 146.887695312 330 174.774414062 330 210 c 3
 330 226.987304688 332 243.444335938 331 253 c 1
256 517 m 3
 286.56640625 517 359.346679688 456.774414062 376 428 c 0
 389 404 388 381 388 362 c 1
 388 290.661132812 386 192.744140625 386 127 c 3
 386 84.1904296875 389.288085938 79.8486328125 392 69 c 0
 393 65 398 63 399 63 c 3
 405.428710938 63 433.713867188 79 435 79 c 1
 455 26 l 1
 438.7421875 19.052734375 387.2578125 -7 371 -7 c 3
 356.203125 -7 333 5 332 51 c 1
 270.159179688 9.91796875 217.153320312 -10 152 -10 c 3
 55 -10 43 56 43 112 c 1
 43 140.209960938 44 182.98046875 55 203 c 1
 61 219 72 231 83 236 c 1
 149 272 230.990234375 296.5 332 313 c 1
 332 344 l 1
 332 384.661132812 330.36328125 396.446289062 324 405 c 1
 318.983398438 410.978515625 261.448242188 460 250 460 c 3
 230.801757812 460 119 418.125 119 391 c 3
 119 384.845703125 125 371 125 371 c 1
 67 349 l 1
 67 349.900390625 56 369.700195312 56 385 c 3
 56 409 67.380859375 431.509765625 92 451 c 0
 114.112304688 470 210.853515625 517 256 517 c 3
EndSplineSet
Substitution2: "case-1" A
Substitution2: "pcap-1" a.pcap
Substitution2: "smcp-1" a.smcp
EndChar
StartChar: b
Encoding: 98 98 193
Width: 566
Flags: HMW
AnchorPoint: "Bottom" 261 -15 basechar 0
AnchorPoint: "Top" 163 720 basechar 0
LayerCount: 2
Fore
SplineSet
140 371 m 1
 139 290 135 172 134 131 c 1
 134 128 129 97 130 96 c 1
 164 76 204 44 260 44 c 3
 362 44 470 134 470 268 c 3
 470 353 371 444 314 444 c 3
 251 444 156 382 140 371 c 1
18 676 m 1
 46 678 68 704 100 744 c 1
 144 714 l 1
 134 689 138 657.125 138 641 c 0
 138 595 139 514 139 437 c 1
 175 457 246 500 313 500 c 3
 409 500 526 373 526 269 c 3
 526 116 407 -11 259 -11 c 3
 178 -11 134 32 123 32 c 3
 113 32 110 9 103 -15 c 1
 50 3 l 1
 50 4 60 41 63 48 c 1
 65.3330078125 64 78.005859375 97.0078125 79 149 c 0
 80.6572265625 235.618164062 83 288.377929688 83 375 c 3
 83 484.063476562 81.9755859375 509.603515625 82 581 c 0
 82.0068359375 600.349609375 84.638671875 635.197265625 77 634 c 0
 74.0986328125 633.544921875 41.9541015625 620.762695312 29 620 c 1
 18 676 l 1
EndSplineSet
Substitution2: "case-1" B
Substitution2: "pcap-1" b.pcap
Substitution2: "smcp-1" b.smcp
EndChar
StartChar: c
Encoding: 99 99 207
Width: 468
Flags: HMW
AnchorPoint: "Top" 262 537 basechar 0
AnchorPoint: "Bottom" 253 -15 basechar 0
LayerCount: 2
Fore
SplineSet
401 416 m 1
 378.838867188 436.098632812 323.661132812 460 279 460 c 3
 181.086914062 460 86 366.649414062 86 231 c 3
 86 87.96875 208.990234375 46 259 46 c 3
 309.799804688 46 351.673828125 67.208984375 401 103 c 1
 431 56 l 1
 382.30078125 24 326.349609375 -10 259 -10 c 3
 199.903320312 -10 30 39.720703125 30 230 c 3
 30 389 143.46875 516 279 516 c 3
 344.571289062 516 409.1015625 485 432 464 c 1
 425.541992188 430.80859375 430.27734375 433.361328125 401 416 c 1
EndSplineSet
Substitution2: "case-1" C
Substitution2: "pcap-1" c.pcap
Substitution2: "smcp-1" c.smcp
EndChar
StartChar: d
Encoding: 100 100 3
Width: 525
Flags: HMW
AnchorPoint: "Bottom" 240 -15 basechar 0
AnchorPoint: "Top" 372 732 basechar 0
LayerCount: 2
Back
SplineSet
409 60 m 1
 353.346938776 22.8571428571 300.020408163 -10 229 -10 c 3
 104 -10 20 103 20 230 c 3
 20 320 66.1082822095 418.820094919 131 458 c 0
 184 490 233 500 292 500 c 3
 323.023255814 500 374.279069768 488.857142857 408 478 c 1
 410.5 536.242990654 414.5 591.644859814 418 630 c 1
 419.274014778 648 405.660770089 642 399 642 c 3
 389.481445312 642 362 634 353 632 c 1
 338 686 l 1
 392 698 405 703 445 743 c 1
 493 713 l 1
 488 698 478.682691379 670.039054199 477 655 c 0
 461 512 461 347 461 190 c 3
 461 141.951627603 463.333333334 103.184101562 465 62 c 1
 465.347547744 58.9443359375 467.550679111 55.7242573399 470 57 c 0
 482.783938238 58.0342343507 494.804758956 61.2728160511 510 63 c 1
 517 6 l 1
 496.131578947 -13.6923076923 466.701754386 -27 456 -27 c 3
 441.375 -27 413.116200113 -12.0636380772 411 20 c 0
 410.2 32.1212121212 409.4 49.0909090909 409 60 c 1
290 444 m 3
 249.82278481 444 192.513121132 435.020431431 152 404 c 0
 117.632346743 377.685082721 76 300.898989899 76 231 c 3
 76 129.574561404 139.705882353 46 226 46 c 3
 295.375 46 358 80 406 120 c 1
 406.000325522 201.341688368 406 321.757936508 406 402 c 1
 404.717532467 413.005714286 396.225305481 422.654563422 376 429 c 0
 349.747312323 437.236452341 308.838095238 444 290 444 c 3
EndSplineSet
Fore
SplineSet
409 60 m 1
 353.346938776 22.8571428571 300.020408163 -10 229 -10 c 3
 104 -10 20 103 20 230 c 3
 20 320 66.1082822095 418.820094919 131 458 c 0
 184 490 233 500 292 500 c 3
 323.023255814 500 374.279069768 488.857142857 408 478 c 1
 410.5 536.242990654 414.5 591.644859814 418 630 c 1
 419.274014778 648 419.660714286 648 413 648 c 3
 403.481481481 648 418 646 353 630 c 1
 338 684 l 1
 392 696 405 703 445 743 c 1
 493 713 l 1
 488 698 478.682691379 670.039054199 477 655 c 0
 461 512 461 347 461 190 c 3
 461 141.951627603 463.33359375 88.1843191964 465 47 c 1
 465.34712358 43.9444444444 467.565429968 41.3457093039 470 42 c 0
 472.790697674 42.75 485.804878049 55.2727272726 494 63 c 1
 517 6 l 1
 496.131578947 -13.6923076923 466.701754386 -27 456 -27 c 3
 441.375 -27 413.116200113 -12.0636380772 411 20 c 0
 410.2 32.1212121212 409.4 49.0909090909 409 60 c 1
290 444 m 3
 249.82278481 444 192.513121132 435.020431431 152 404 c 0
 117.632346743 377.685082721 76 300.898989899 76 231 c 3
 76 129.574561404 139.705882353 46 226 46 c 3
 295.375 46 338 82 406 125 c 1
 406 206.341269842 406 321.757936508 406 402 c 1
 404.717532467 413.005714286 396.225305481 422.654563422 376 429 c 0
 349.747312323 437.236452341 308.838095238 444 290 444 c 3
EndSplineSet
Substitution2: "case-1" D
Substitution2: "pcap-1" d.pcap
Substitution2: "smcp-1" d.smcp
EndChar
StartChar: e
Encoding: 101 101 272
Width: 496
Flags: HMW
AnchorPoint: "Bottom" 254 -15 basechar 0
AnchorPoint: "Ogonek" 375 18 basechar 0
AnchorPoint: "Top" 263 537 basechar 0
LayerCount: 2
Fore
SplineSet
267 517 m 3
 340.713867188 517 416.318359375 458.301757812 439 364 c 1
 442 352 445 345 451 344 c 1
 451 286 l 1
 333.918945312 278.221679688 196.10546875 267.333007812 90 258 c 1
 89 250.615234375 89 241.384765625 89 234 c 3
 89 116.627929688 156.875976562 43 245 43 c 3
 324.817382812 43 371.87890625 96.693359375 404 148 c 1
 449 115 l 1
 412.451171875 56 350.4296875 -12 243 -12 c 3
 91.87890625 -12 33 129.328125 33 230 c 3
 33 419 163.5 517 267 517 c 3
269 461 m 3
 209.389648438 461 127.389648438 411.868164062 101 316 c 1
 380 337 l 1
 386 338 l 1
 378.454101562 404.635742188 323.749023438 461 269 461 c 3
EndSplineSet
Substitution2: "case-1" E
Substitution2: "pcap-1" e.pcap
Substitution2: "smcp-1" e.smcp
EndChar
StartChar: f
Encoding: 102 102 336
Width: 362
Flags: HMW
AnchorPoint: "Bottom" 161 -15 basechar 0
AnchorPoint: "Top" 224 735 basechar 0
LayerCount: 2
Fore
SplineSet
314 749 m 3
 351 749 394 733 426 696 c 1
 429.431640625 677.875 409.375 657.887695312 396 650 c 1
 368.170898438 674.62109375 349.443359375 692 317 692 c 3
 292.668945312 692 185.981445312 656.477539062 175 556 c 0
 174.239257812 549.041015625 175 529 175 498 c 1
 232.200195312 498 283.900390625 498 340 498 c 1
 340 442 l 1
 284.26171875 442 231.73828125 442 176 441 c 1
 175.857421875 395.629882812 175 324.4609375 175 304 c 3
 175 229.233398438 175 125 175 82 c 0
 175 55.787109375 176.05078125 56.732421875 209 54 c 0
 235.0234375 51.841796875 264.967773438 50 291 48 c 1
 286 -8 l 1
 243 -3 183 1 134 1 c 1
 103.295898438 1 54.9130859375 -4 27 -7 c 1
 25 47 l 1
 46.1201171875 50 69.53515625 54.6962890625 91 56 c 0
 119 57.7001953125 119 57.1533203125 119 74 c 0
 119 131.541992188 119 210.83203125 119 280 c 3
 119 307.443359375 119 390.6875 119 441 c 1
 89.3896484375 441 57.3115234375 441 24 441 c 1
 24 498 l 1
 56.0947265625 499.301757812 90.7568359375 498.006835938 119 498 c 1
 118.333007812 533.592773438 118 544.779296875 118 558 c 3
 118 606 149.231445312 661.184570312 194 697 c 0
 224 721 277 749 314 749 c 3
EndSplineSet
Substitution2: "salt-1" f.alt
Substitution2: "case-1" F
Substitution2: "pcap-1" f.pcap
Substitution2: "smcp-1" f.smcp
EndChar
StartChar: g
Encoding: 103 103 6
Width: 467
VWidth: 1159
Flags: HMW
AnchorPoint: "Bottom" 222 -162 basechar 0
AnchorPoint: "Top" 231 537 basechar 0
LayerCount: 2
Back
SplineSet
137 120 m 5
 143.538536658 108.666666666 153.700739198 80 209 80 c 7
 245.701171875 80 281.290039062 92 328 92 c 7
 413.647460938 92 456 53.0967741935 456 -2 c 7
 456 -122.382165605 260 -177 176 -177 c 7
 65 -177 15 -111 15 -59 c 7
 15 6.86021505376 65.3924050633 47.1827956989 93 66 c 5
 63.6382978724 87.7674418605 52.8723404255 113.720930233 47 138 c 5
 74 156 105 168 135 180 c 5
 69 202.01986755 30 253.986754967 30 313 c 7
 30 435 147 514 223 514 c 7
 262 514 300 504 335 486 c 5
 361.950195312 488 384.087890625 487 412 487 c 7
 440.983398438 487 446.466796875 486 459 486 c 5
 458.454427083 480.761904762 455 431 455 431 c 5
 433.041666667 431 413.905842356 427.515692941 393 431 c 4
 387 432 383 431 378 431 c 5
 397.2 407.311688312 410 366.168831169 410 335 c 7
 410 251.406091371 306.24413016 183.079352811 232 156 c 4
 188.293815148 138.797851813 146.666666666 120.09090909 137 120 c 5
224 458 m 7
 171.217026953 458 86 396.285714286 86 314 c 7
 86 251 138.103092784 235.124087592 219 212 c 5
 271 231 354 291.952407917 354 334 c 7
 354 375.03916084 323.916666666 458 224 458 c 7
71 -58 m 7
 71 -86.25 102.993243552 -121 177 -121 c 7
 272.171875 -121 400 -84.1957178656 400 -29 c 7
 400 12.955078125 366.5 30 329 30 c 7
 284.253939353 30 258.559057204 18 209 18 c 7
 196.338694852 18 177.044347426 25.5998046875 168 26 c 5
 94.515625 -7.04343580164 71 -29.1739130435 71 -58 c 7
EndSplineSet
Fore
SplineSet
124 114 m 1
 130.538461538 102.666666665 143.615384615 80 209 80 c 3
 245.700934579 80 281.289719626 92 328 92 c 3
 413.647058824 92 456 34.0806451612 456 -22 c 3
 456 -128.624203822 260 -177 176 -177 c 3
 65 -177 15 -111 15 -59 c 3
 15 6.86021505376 65.3924050633 47.1827956989 93 66 c 1
 63.6382978724 87.7674418605 52.8723404255 113.720930233 47 138 c 1
 74 156 105 168 135 180 c 1
 69 202.01986755 30 253.986754967 30 313 c 3
 30 435 147 514 223 514 c 3
 262 514 300 504 335 486 c 1
 361.950195312 488 384.087890625 487 412 487 c 3
 440.983398438 487 446.466796875 486 459 486 c 1
 458.454427083 480.761904762 455 431 455 431 c 1
 433.041666667 431 413.905842356 427.515692941 393 431 c 0
 387 432 383 431 378 431 c 1
 397.2 407.311688312 410 366.168831169 410 335 c 3
 410 251.406091371 306.24413016 183.079352811 232 156 c 0
 187.644947708 139.822207798 135.999999999 119.727272727 124 114 c 1
224 458 m 3
 171.217026953 458 86 396.285714286 86 314 c 3
 86 251 138.103092784 235.124087592 219 212 c 5
 276 231 354 284.952407917 354 334 c 7
 354 375.03916084 323.916666666 458 224 458 c 3
71 -58 m 3
 71 -86.25 102.993243552 -121 177 -121 c 3
 272.171875 -121 400 -68.2308319664 400 -25 c 3
 400 18.3777777778 370.5 36 329 36 c 3
 284.254237288 36 270.559322034 24 209 24 c 3
 186.455882353 24 152.102941176 32 136 34 c 1
 86.7575757576 4.19607843135 71 -32 71 -58 c 3
EndSplineSet
Validated: 33
Substitution2: "case-1" G
Substitution2: "pcap-1" g.pcap
Substitution2: "smcp-1" g.smcp
EndChar
StartChar: h
Encoding: 104 104 400
Width: 559
Flags: HMW
AnchorPoint: "Top" 160 720 basechar 0
AnchorPoint: "Bottom" 280 -15 basechar 0
LayerCount: 2
Fore
SplineSet
136 373 m 1
 136 330.014648438 136 261.421875 136 191 c 1
 136 143.380859375 136 87.0478515625 136 68 c 1
 137 55.75 136.331054688 55.0439453125 154 53 c 0
 167.8515625 51.3974609375 178.84375 49.6669921875 199 48 c 1
 189 -8 l 1
 161.791015625 -4 143.651367188 0 111 0 c 1
 86.5341796875 0 51.4658203125 -5 27 -8 c 1
 22 47 l 1
 35.5712890625 48.25 46.3134765625 50.3486328125 60 52 c 0
 80.7138671875 54.5 80.7138671875 54.875 80 79 c 1
 80 128.209960938 80 214.48828125 80 276 c 3
 80 506.625 80 603.724609375 80 628 c 1
 79.4287109375 636.831054688 78 645 76 645 c 3
 70.7900390625 645 57.6083984375 635.293945312 29 630 c 1
 10 683 l 1
 42.142578125 692 68 699 100 747 c 1
 144 712 l 1
 136 700 136 699.87890625 136 653 c 0
 136 605.098632812 136 520.435546875 136 438 c 1
 207.3828125 482.571289062 296.9140625 516 332 516 c 3
 426 516 478.313476562 450.088867188 483 371 c 0
 484.200195312 344 486 248 486 184 c 3
 486 137.099609375 486 92.349609375 487 72 c 1
 487.768554688 55 486.7890625 55.09375 497 54 c 0
 505.088867188 53.1337890625 525.237304688 50.2001953125 534 47 c 1
 527 -8 l 1
 502.879882812 -2.6669921875 486.799804688 0 460 0 c 1
 432.990234375 0 408.169921875 -4.5 387 -9 c 1
 378 45 l 1
 393.599609375 47.599609375 405.36328125 50.435546875 420 53 c 0
 431.416992188 55 431 54.9150390625 431 73 c 0
 431 115.140625 430 179.33203125 430 210 c 3
 430 251.872070312 427.848632812 339.893554688 427 358 c 0
 424 422 396.478515625 460 330 460 c 3
 314 460 202.807617188 419.845703125 136 373 c 1
EndSplineSet
Substitution2: "case-1" H
Substitution2: "pcap-1" h.pcap
Substitution2: "smcp-1" h.smcp
EndChar
StartChar: k
Encoding: 107 107 466
Width: 515
Flags: HMW
AnchorPoint: "Top" 127 720 basechar 0
AnchorPoint: "Bottom" 254 -15 basechar 0
LayerCount: 2
Fore
SplineSet
130 281 m 1
 187.985351562 321.391601562 267.298828125 399.796875 315 439 c 1
 318 441 317 444 315 445 c 1
 308.181640625 447 297.955078125 448 290 449 c 1
 294 503 l 1
 317.586914062 501 338.130859375 498 364 498 c 1
 393.49609375 498 426.50390625 501 456 505 c 1
 461 448 l 1
 393.5 438.857421875 406 445 334 382 c 1
 234 298 l 1
 306.374023438 211.133789062 370.138671875 137.606445312 434 61 c 1
 443 52 453 57 485 48 c 1
 482 -10 l 1
 457.043945312 -5 450.141601562 0 422 0 c 1
 397.102539062 0 375.5703125 -3.2666015625 350 -7 c 1
 345 49 l 1
 354.729492188 49.599609375 363.810546875 51.400390625 369 52 c 1
 314.87109375 116.762695312 270.111328125 170.034179688 191 263 c 1
 186.864257812 258.403320312 136.203125 221.596679688 130 217 c 1
 130 160.125 129.62109375 97.7333984375 130 86 c 0
 131 55 131.064453125 56.490234375 148 54 c 0
 161.088867188 52.0751953125 178.360351562 50.3330078125 194 46 c 1
 187 -9 l 1
 154.525390625 -2.154296875 145.811523438 0 107 0 c 1
 82.6943359375 0 58.388671875 -4.2001953125 32 -9 c 1
 25 48 l 1
 35 49.71484375 46.111328125 52.142578125 55 53 c 1
 74 55.4853515625 74 55 74 79 c 1
 74 129.717773438 74 216.841796875 74 280 c 3
 74 452.041992188 74 565.2578125 74 617 c 0
 74 639.559570312 74.0625 645 67 645 c 3
 60.9169921875 645 50 638 23 634 c 1
 14 688 l 1
 49.7177734375 695.633789062 68.3310546875 710.478515625 96 745 c 1
 134 708 l 1
 132.599609375 693.508789062 130 665.524414062 130 651 c 0
 130 590.631835938 130 398.815429688 130 281 c 1
EndSplineSet
Substitution2: "case-1" K
Substitution2: "pcap-1" k.pcap
Substitution2: "smcp-1" k.smcp
EndChar
StartChar: l
Encoding: 108 108 476
Width: 290
Flags: HMW
AnchorPoint: "Top" 148 720 basechar 0
AnchorPoint: "Bottom" 138 -15 basechar 0
LayerCount: 2
Fore
SplineSet
165 303 m 3
 165 227.284179688 165 103.3828125 165 67 c 3
 165 55.0302734375 167.293945312 54.7001953125 192 53 c 1
 207.599609375 50.7138671875 221.400390625 48.7138671875 237 47 c 1
 232 -9 l 1
 196.685546875 -4.8466796875 167.256835938 0 129 0 c 1
 100.146484375 0 65.3740234375 -4.80078125 38 -8 c 1
 36 48 l 1
 46.9677734375 48.666015625 59.580078125 50.333984375 70 52 c 1
 108.639648438 54.619140625 109 53.6240234375 109 69 c 3
 109 123.262695312 109 217.71875 109 276 c 3
 109 509.638671875 109 570.697265625 109 608 c 3
 109 625.8828125 108.571289062 642 103 642 c 3
 92.490234375 642 66.708984375 630.5703125 53 626 c 1
 34 679 l 1
 77.29296875 689.817382812 100.463867188 704.633789062 134 744 c 1
 175 709 l 1
 171.5 694 165 664.9765625 165 650 c 3
 165 581.9609375 165 418.947265625 165 303 c 3
EndSplineSet
Substitution2: "case-1" L
Substitution2: "pcap-1" l.pcap
Substitution2: "smcp-1" l.smcp
EndChar
StartChar: m
Encoding: 109 109 505
Width: 829
Flags: HMW
AnchorPoint: "Top" 421 537 basechar 0
AnchorPoint: "Bottom" 424 -15 basechar 0
LayerCount: 2
Fore
SplineSet
765 190 m 3
 765 137.328125 766 88.787109375 766 64 c 1
 766 55 767 54 771 54 c 1
 781.047851562 53.7265625 801.012695312 48.9892578125 810 47 c 1
 799 -8 l 1
 776.5 -2.857421875 763.5 0 738 0 c 3
 713.724609375 0 695.672851562 -3.5 677 -7 c 1
 668 48 l 1
 680 49.5 693.25 52.25 704 54 c 1
 706 54.5625 709 55 709 72 c 1
 709 94.9873046875 709 151.8515625 709 170 c 3
 709 217.71875 708 303.385742188 708 319 c 3
 708 418.004882812 692.0078125 444 631 444 c 3
 585.098632812 444 551.1328125 425.158203125 456 334 c 1
 456 330 456 328 456 327 c 1
 456 307.258789062 456 252.344726562 456 224 c 3
 456 159.30859375 456 92.3837890625 457 70 c 1
 458 55 458 55 469 54 c 1
 479.461914062 52.7998046875 499.5 50.2001953125 511 48 c 1
 504 -7 l 1
 469 -2.5 459.833007812 0 419 0 c 3
 392.077148438 0 369.192382812 -3 349 -6 c 1
 341 49 l 1
 352.8515625 50.111328125 367.110351562 52.333984375 381 54 c 1
 402 57 401 55.89453125 401 72 c 1
 401 98.7548828125 400 165.037109375 400 186 c 3
 400 235 402 306 396 358 c 0
 389.885742188 410.987304688 375.662109375 456 338 456 c 3
 282 456 224 397 137 322 c 1
 137 241.522460938 137 113.853515625 137 78 c 1
 137 55.919921875 138 56 156 54 c 1
 160.799804688 53.2724609375 174.327148438 50.3642578125 180 50 c 1
 171 -5 l 1
 147.991210938 -1.6923828125 139.624023438 0 114 0 c 3
 84.544921875 0 53.455078125 -4.2001953125 24 -7 c 1
 20 48 l 1
 29.755859375 49.3330078125 34.9560546875 50.8837890625 45 52 c 0
 81 56 81 54 81 71 c 1
 81 104.541015625 81 189.513671875 81 232 c 3
 81 252.96484375 81 373.73046875 81 392 c 0
 81 422 79.7822265625 423 77 423 c 3
 68.3681640625 423 57.8955078125 416.333007812 23 415 c 1
 18 470 l 1
 61 475 65.8125 474 103 520 c 1
 137 494 l 1
 137 461.634765625 137 434.98046875 137 395 c 1
 214 461 264.694335938 512 338 512 c 3
 392.049804688 512 431 480 447 402 c 1
 495.158203125 446.8671875 550.806640625 500 630 500 c 3
 749 500 761 404 763 350 c 1
 765 309.024414062 765 232.926757812 765 190 c 3
EndSplineSet
Substitution2: "case-1" M
Substitution2: "pcap-1" m.pcap
Substitution2: "smcp-1" m.smcp
EndChar
StartChar: n
Encoding: 110 110 13
Width: 533
VWidth: 1159
Flags: HMW
AnchorPoint: "Top" 286 537 basechar 0
AnchorPoint: "Bottom" 277 -15 basechar 0
LayerCount: 2
Back
SplineSet
129 25 m 1
 73 25 l 1
 73 506 l 1
 129 506 l 1
 129 25 l 1
474.384453078 14.8985483441 m 1
 418.407337407 16.4993359842 l 1
 419.207731227 44.4878938201 l 0
 420.110455821 76.0548036298 420 142.632368024 420 190 c 0
 420 240.525480411 418 328.210017505 418 380 c 0
 418 440.02251965 401.114719004 463 321 463 c 0
 298.83644416 463 266.162683701 447.294607588 230.339127895 422.261516769 c 1
 208.262779471 406.205546904 123.147455853 346.125130176 123.147455853 346.125130176 c 1
 124.147455853 346.125130176 123.96441549 346.701825028 123.147455853 346.125130176 c 0
 100.272586029 329.977674323 l 1
 67.9776743228 375.727413971 l 1
 90.8525441469 391.874869824 l 0
 91.6695037835 392.451564676 91.8525441469 391.874869824 90.8525441469 391.874869824 c 1
 90.9114907762 391.916480469 175.693456992 451.76262419 197.828840855 467.861530106 c 1
 236.196732946 494.672574003 276.943567409 519 321 519 c 0
 423.294426313 519 474 467.976925508 474 380 c 0
 474 329.324902363 476 241.64946926 476 190 c 0
 476 142.535744648 476.140121933 76.2916251495 475.184846898 42.8871061799 c 1
 475.184846898 43.8871061799 475.156261405 41.8875148287 475.184846898 42.8871061799 c 0
 474.384453078 14.8985483441 l 1
529.274419259 46.5756068166 m 1
 517.443293449 -8.16034537257 l 1
 490.075317354 -2.24478246739 l 0
 491.052745072 -2.45605257114 491.075042809 -2.22135140204 490.075317354 -2.24478246739 c 1
 476.680474002 0.650500624715 467.270261435 2 448 2 c 0
 431.437248281 2 414.583407917 0.281424027771 400.098230283 -1.88527843707 c 1
 400.098230283 -0.885278437066 401.087227392 -1.73734359439 400.098230283 -1.88527843707 c 0
 372.40631122 -6.02745403209 l 1
 364.12196003 49.356384092 l 1
 391.813879092 53.4985596871 l 0
 392.802876202 53.6464945297 391.813879092 54.4985596871 391.813879092 53.4985596871 c 1
 408.24639629 55.9565464936 427.651049037 58 448 58 c 0
 470.176744107 58 485.993959083 55.930638546 501.906443164 52.4911697218 c 1
 500.906443164 52.4911697218 502.883870882 52.2798996181 501.906443164 52.4911697218 c 0
 529.274419259 46.5756068166 l 1
15.9376007731 428.128598785 m 1
 4.12942755497 482.869507119 l 1
 31.4998817221 488.773593728 l 0
 50.2136967756 492.810354835 59.7106643143 494.306500198 79.2402808977 514.987087859 c 0
 98.4646734439 535.344463211 l 1
 139.179424148 496.895678119 l 1
 119.955031602 476.538302766 l 0
 119.268446154 475.811253647 119.955031602 477.538302766 119.955031602 476.538302766 c 1
 92.0248863336 446.96210422 64.7190814237 438.651262564 43.3080549401 434.032685394 c 0
 15.9376007731 428.128598785 l 1
192.611825974 49.0232044302 m 1
 184.79273568 -6.4282322237 l 1
 157.067017353 -2.51868707695 l 0
 158.057221579 -2.65831368934 157.067017353 -1.51868707695 157.067017353 -2.51868707695 c 1
 139.35840357 -0.0216327443546 125.50461833 2 99 2 c 0
 78.8978537061 2 57.4355161261 -0.0840503210254 37.927907988 -2.13516946831 c 1
 37.927907988 -1.13516946831 38.9224257122 -2.03060132588 37.927907988 -2.13516946831 c 0
 10.0814117127 -5.06307745636 l 1
 4.2255957366 50.6299150944 l 1
 32.072092012 53.5578230824 l 0
 51.8699339352 55.6394587374 75.1733373893 58 99 58 c 0
 128.480152059 58 147.255817184 55.4187597031 164.886107647 52.932749577 c 0
 192.611825974 49.0232044302 l 1
EndSplineSet
Fore
SplineSet
73 421 m 3
 73 434.09765625 69.3076171875 436 67 436 c 3
 52.818359375 436 36.455078125 429 19 427 c 1
 9 482 l 1
 46.1875 492.22265625 56.8125 485.06640625 94 528 c 1
 136 498 l 1
 130 487.563476562 130 432.400390625 129 416 c 1
 185.754882812 458.041015625 256.961914062 517 321 517 c 3
 424 517 474 467 474 378 c 3
 474 327.333007812 476 239.640625 476 188 c 3
 476 149.794921875 476 94.6845703125 476 70 c 0
 476 53.6015625 478.666992188 53.4287109375 484 53 c 1
 489.125 52 517.953125 48 525 47 c 1
 523 -10 l 1
 487.151367188 -3.845703125 472.444335938 0 432 0 c 3
 408.827148438 0 387.103515625 -4.5 369 -9 c 1
 367 48 l 1
 380.39453125 50 406.069335938 52 415 54 c 1
 419 54.4169921875 420 55.9658203125 420 83 c 3
 420 118.430664062 420 191.655273438 420 220 c 3
 420 262.729492188 418 357.1171875 418 373 c 3
 418 430.03515625 405.053710938 460 321 460 c 3
 274.956054688 460 175 387.900390625 129 357 c 1
 129 258.362304688 129 103.098632812 129 62 c 1
 130 55 142 54 149 53 c 1
 158.696289062 51.75 178.090820312 49.25 189 48 c 1
 187 -8 l 1
 154.599609375 -4.36328125 142.663085938 0 106 0 c 3
 73 0 40 -4.2001953125 7 -7 c 1
 7 49 l 1
 24.0908203125 50.6669921875 38.181640625 52.677734375 54 54 c 0
 73.0556640625 55.5927734375 74 56 73 69 c 1
 73 98.09375 73 166.671875 73 202 c 3
 73 235.751953125 73 396.2265625 73 421 c 3
EndSplineSet
Validated: 1
Substitution2: "case-1" N
Substitution2: "pcap-1" n.pcap
Substitution2: "smcp-1" n.smcp
EndChar
StartChar: o
Encoding: 111 111 545
Width: 570
Flags: HW
HStem: -11 56<197.407 372.078> 461 56<208.623 373.762>
VStem: 30 56<152.781 332.952> 484 56<165.478 347.309>
AnchorPoint: "Bottom" 288 -15 basechar 0
AnchorPoint: "Ogonek" 423 18 basechar 0
AnchorPoint: "Top" 285 537 basechar 0
AnchorPoint: "Middle" 284.697 252.853 basechar 0
AnchorPoint: "Horn" 446.5 453.8 basechar 0
LayerCount: 2
Fore
SplineSet
285 517 m 3
 446.282226562 517 540 379 540 254 c 3
 540 128.573242188 441.922851562 -11 285 -11 c 3
 148.782226562 -11 30 97.99609375 30 238 c 3
 30 419 181.474609375 517 285 517 c 3
285 461 m 0
 211.357421875 461 86 385.203125 86 238 c 0
 86 131.055664062 177.905273438 45 285 45 c 0
 404.790039062 45 484 153.666015625 484 254 c 0
 484 355.056640625 408.700195312 461 285 461 c 0
EndSplineSet
Substitution2: "case-1" O
Substitution2: "pcap-1" o.pcap
Substitution2: "smcp-1" o.smcp
EndChar
StartChar: p
Encoding: 112 112 15
Width: 526
VWidth: 1159
Flags: HMW
AnchorPoint: "Top" 269 537 basechar 0
AnchorPoint: "Bottom" 141 -154 basechar 0
LayerCount: 2
Back
SplineSet
68 476 m 1
 124 476 l 1
 124 -128 l 1
 68 -128 l 1
 68 476 l 1
31.2444415141 401.702411338 m 1
 15.0271439514 455.302777566 l 1
 36.0880255146 461.674946401 52.6713458008 471.852611963 73.6870328164 498.668887524 c 1
 117.764139059 464.126034351 l 1
 91.448578938 430.54705541 63.0788239117 411.334204708 31.2444415141 401.702411338 c 1
113.383878479 387.418613979 m 1
 90.6161215207 438.581386021 l 1
 149.712620081 464.879701429 l 1
 193.944852027 483.395519453 242.129595638 509 290 509 c 0
 412.296915738 509 507 380.36885824 507 291 c 0
 507 127.93183881 377.07068569 9 251 9 c 0
 224.384748012 9 184.453833476 13.8143408509 161.812126699 23.0768572595 c 1
 91.0236677605 53.2411155023 l 1
 112.97633224 104.758884498 l 1
 183.391312661 74.753772288 l 1
 191.422683749 71.4682113887 232.259116447 65 251 65 c 0
 343.197859492 65 451 157.471055739 451 291 c 0
 451 350.723192176 373.731655354 453 290 453 c 0
 262.96801025 453 219.392766532 433.389845157 171.902223226 413.459647285 c 1
 113.383878479 387.418613979 l 1
167.115429236 -108.249065164 m 1
 164.552539514 -164.190387961 l 1
 142.248079095 -163.16853382 126.25852059 -162 97 -162 c 0
 82.1309498045 -162 61.1432092087 -166.139322294 40.9991576627 -170.001155943 c 1
 30.4553590363 -115.002716779 l 1
 49.953091002 -111.264789619 73.3848850396 -106 97 -106 c 0
 127.824765533 -106 145.766843366 -107.271003357 167.115429236 -108.249065164 c 1
EndSplineSet
Fore
SplineSet
68 80 m 3
 68 206.243333333 68 372.133333333 68 393 c 1
 68 406.333333333 68.6396078054 413 64 413 c 3
 56.3170731706 413 34 399.181818182 1 394 c 1
 -9 451 l 1
 35.6440677966 458 52.3389830508 468 85 514 c 1
 109.731707317 505.285714286 120.195121951 496.571428571 124 453 c 1
 174.985714286 475.909090909 234.271428571 509 290 509 c 3
 412 509 507 374 507 285 c 3
 507 122 377 3 251 3 c 3
 210.8984375 3 178 8.677734375 124 33 c 1
 124 -10.546875 124 -74.4845360825 124 -89 c 1
 124.733333333 -106.5 124.6 -106 135 -107 c 1
 162.661016949 -107.8 182.322033898 -109.4 193 -110 c 1
 191 -165 l 1
 155.823529412 -164 139 -162 100 -162 c 3
 76.7741935484 -162 44.5161290323 -170.307692308 20 -174 c 1
 11 -119 l 1
 23.9807692308 -116.380952381 38.5961538462 -113.666666667 52 -111 c 1
 68 -108 68 -109 68 -95 c 1
 68 -65.1219512195 68 -11.7682926829 68 80 c 3
290 453 m 3
 258.168607553 453 173.12244898 414.940591398 124 392 c 1
 124 231.214007782 124 177.657226562 124 95 c 1
 162.702148438 75.2001953125 202.396484375 59 254 59 c 3
 344.022460938 59 450 152.938476562 450 284 c 3
 450 353.736328125 366.968687253 453 290 453 c 3
EndSplineSet
Validated: 1
Substitution2: "case-1" P
Substitution2: "pcap-1" p.pcap
Substitution2: "smcp-1" p.smcp
EndChar
StartChar: q
Encoding: 113 113 654
Width: 563
Flags: HMW
AnchorPoint: "Top" 298 537 basechar 0
AnchorPoint: "Bottom" 429 -154 basechar 0
LayerCount: 2
Fore
SplineSet
429 104 m 1
 429 205.305664062 424 295.885742188 429 396 c 1
 430 394.555664062 428 404.666992188 426 409 c 1
 401 428 353.849609375 458 309 458 c 3
 178.984375 458 84 338 84 237 c 3
 84 163.938476562 164.837890625 56 242 56 c 3
 325.005859375 56 400.732421875 97.6650390625 429 104 c 1
429 45 m 1
 377.33984375 27.5810546875 314.33984375 0 240 0 c 3
 122 0 28 139 28 237 c 3
 28 364 141 514 309 514 c 3
 371.556640625 514 416.122070312 481 436 481 c 1
 444.5 481 446.799804688 503.114257812 454 524 c 1
 505 501 l 1
 500.125 482.95703125 496.5 472.80859375 492 448 c 1
 488.545898438 431 483 398.0078125 483 321 c 3
 483 296.979492188 485 164 485 119 c 1
 485 -17.71875 485 -68.03125 485 -91 c 3
 485 -108.041992188 486 -108 497 -109 c 1
 519.188476562 -109.5 532.924804688 -110 553 -111 c 1
 550 -167 l 1
 515 -165 488 -164 436 -164 c 1
 411.275390625 -164 381.60546875 -171 359 -175 c 1
 354 -119 l 1
 369.888671875 -117.5 383.333007812 -114.5 398 -113 c 1
 429 -110 428 -107 428 -104 c 1
 429 -91.8857421875 429 -11.9345703125 429 45 c 1
EndSplineSet
Substitution2: "case-1" Q
Substitution2: "pcap-1" q.pcap
Substitution2: "smcp-1" q.smcp
EndChar
StartChar: r
Encoding: 114 114 672
Width: 421
Flags: HMW
AnchorPoint: "Top" 204 537 basechar 0
AnchorPoint: "Bottom" 187 -15 basechar 0
LayerCount: 2
Fore
SplineSet
152 220 m 3
 152 185.985351562 152 100.514648438 152 84 c 1
 152 54.8330078125 153.19140625 56.4306640625 178 56 c 0
 203.333984375 55.560546875 229.768554688 54.5 254 54 c 1
 252 -3 l 1
 221.88671875 -2 172.415039062 0 138 0 c 3
 107.690429688 0 71.3193359375 -4.7998046875 40 -8 c 1
 35 48 l 1
 52.6083984375 50 75 53 89 54 c 1
 96.615234375 54.240234375 96.384765625 54.2001953125 96 85 c 1
 96 112.36328125 96 227.681640625 96 257 c 3
 96 283.11328125 96 369 96 401 c 1
 96 415.76953125 94.92578125 417 94 417 c 3
 90 417 73 403 36 402 c 1
 31 457 l 1
 64 458 80 473 114 524 c 1
 130.12109375 515 152 510 152 481 c 3
 152 467.5 152 412 152 388 c 1
 234 461 300.298828125 517 353 517 c 3
 382 517 421 482.046875 421 439 c 3
 421 436.413085938 417.8125 421.857421875 370 423 c 1
 366.200195312 438.567382812 358.919921875 459 351 459 c 3
 336.857421875 459 280 435.416015625 152 315 c 1
 152 286.422851562 152 233.90234375 152 220 c 3
EndSplineSet
Substitution2: "case-1" R
Substitution2: "pcap-1" r.pcap
Substitution2: "smcp-1" r.smcp
EndChar
StartChar: s
Encoding: 115 115 18
Width: 396
Flags: HMW
AnchorPoint: "Top" 210 537 basechar 0
AnchorPoint: "Bottom" 205 -15 basechar 0
LayerCount: 2
Back
SplineSet
32.4547529499 114.638967522 m 1
 87.0732144386 127.001154408 l 1
 89.4240596008 116.614679334 92 101.806660454 92 87 c 0
 92 78.7705145215 91.390280341 69.3336197522 90.6977517188 62.8619353343 c 1
 120.733209956 54.8735758898 152.265339114 49 189 49 c 0
 262.290632982 49 321 92.0820806758 321 135 c 0
 321 183.883611955 314.564862771 198.144816486 207.485315261 232.326039968 c 0
 206.866531504 232.523564018 l 1
 206.257572799 232.749569294 l 0
 145.773015285 255.197444721 50 272.398839973 50 372 c 0
 50 443.206279083 120.793526919 514 210 514 c 0
 250.480780276 514 289.027638448 507.73068454 322.599466935 502.352742582 c 0
 342.376891618 499.184555241 l 1
 345.766659609 479.443901475 l 0
 348.253481724 464.961643547 351.800898371 447.912151691 354.699047893 431.108482656 c 1
 299.513812245 421.590617006 l 1
 297.873155436 431.103257335 296.430653589 438.485639199 294.209485623 450.142987834 c 1
 268.357993052 454.114597908 237.710157633 458 210 458 c 0
 148.894598632 458 106 406.761686279 106 372 c 0
 106 321.205927976 146.608442705 314.48032829 225.125884551 285.479043201 c 1
 334.223870784 250.495212977 377 214.000556145 377 135 c 0
 377 42.3643224247 274.266884883 -7 189 -7 c 0
 134.760627373 -7 89.844428753 4.25486431535 50.9587858315 15.9734243935 c 0
 26.239996459 23.422667779 l 1
 31.6625590729 48.6636184298 l 0
 34.4930908878 61.8391811559 36 73.2513336354 36 87 c 0
 36 94.6308633814 34.0336743227 107.662996605 32.4547529499 114.638967522 c 1
EndSplineSet
Fore
SplineSet
82 156 m 1
 105 79.7064220183 67.9838720166 48 192 48 c 3
 276.324324324 48 322 104.515671201 322 136 c 3
 322 192.195652174 295.605174917 202.176610726 214 230 c 0
 148.678261317 252.271530761 50 274.581395349 50 372 c 3
 50 443 121 514 210 514 c 3
 259 514 304 505 344 499 c 1
 341.9 490.074380165 353.8 443.958677686 358 409 c 1
 313 390 l 1
 293.79661017 429.594936709 310.004999875 458 210 458 c 3
 139.428571429 458 106 400.027027026 106 371 c 3
 106 330.603960396 125.19227382 320.518007677 230 285 c 0
 339.985611511 247.727272727 377 211.363636363 377 135 c 3
 377 42.5570469799 274 -7 189 -7 c 3
 123 -7 73 9 25 24 c 1
 31 43 36 64 36 87 c 1
 36 104.666666667 29.6470588235 129.246376812 24 140 c 1
 82 156 l 1
EndSplineSet
Substitution2: "case-1" S
Substitution2: "pcap-1" s.pcap
Substitution2: "smcp-1" s.smcp
EndChar
StartChar: t
Encoding: 116 116 19
Width: 336
VWidth: 1159
Flags: HMW
AnchorPoint: "Top" 160 599 basechar 0
AnchorPoint: "Bottom" 174 -15 basechar 0
LayerCount: 2
Back
SplineSet
279.086006902 87.4270723769 m 1
 312.68121404 42.6234781306 l 1
 280.194880383 18.2641577081 237.779265137 -8 182 -8 c 0
 152.010509417 -8 74 10.5934966778 74 133 c 0
 74 238.872060684 79.0529167128 339.706982336 81.8622466083 439.462226107 c 1
 68.4382870144 438.965701991 l 1
 58.8953318413 438.463208727 47.7712403937 438.183807997 39.0427914734 438.078220358 c 1
 38.3654116516 494.074123392 l 1
 46.7964217594 494.176112927 56.4883940289 494.414049559 65.9308536106 494.911251134 c 1
 139.290895296 497.624685243 l 1
 138.608841506 467.902556059 l 0
 136.056604199 356.68269618 130 247.427559229 130 133 c 0
 130 43.0687399355 170.862670593 48 182 48 c 0
 219.366683007 48 249.420466217 65.1828752107 279.086006902 87.4270723769 c 1
86.374625134 569.56151527 m 1
 142.342171741 567.655281605 l 1
 141.559696531 544.681593453 140.772550878 520.798304073 140.073607337 497.400178411 c 1
 160.59578179 497.990342953 l 1
 205.215420379 499.603039932 250.945906752 501.319945382 291.827338791 503.921032691 c 1
 295.383157287 448.034038186 l 1
 253.306880406 445.356928693 207.574999006 443.65175733 162.41203071 442.019422672 c 1
 82.4634899736 439.720309871 l 1
 83.2551337588 469.308454592 l 0
 84.1673440261 503.402841369 85.2662251305 537.018585203 86.374625134 569.56151527 c 1
EndSplineSet
Fore
SplineSet
10 498 m 1
 93 499 84 483.892857143 87 602 c 1
 143 590 l 1
 142.142857143 558.651685393 140.857421875 533.393554688 140 501 c 1
 202.833007812 503.25 264.583007812 505.5 322 510 c 1
 321 453 l 1
 261.129882812 449 201.258789062 447 138 445 c 1
 139 427.352539062 130 222.655634673 130 140 c 3
 130 69.5555555561 152.733333334 49 185 49 c 3
 231.162226562 49 275.126308595 84.4651162792 307 110 c 1
 307 110 330 56.8849487305 330 56 c 1
 295.915039062 29.25390625 248.375976562 -8 182 -8 c 3
 153.841666667 -8 73 7.63829787234 73 139 c 3
 73 243.211594706 79 346.841796875 82 444 c 1
 58.6669921875 443 37.7890625 442 12 442 c 1
 10 498 l 1
EndSplineSet
Validated: 33
Substitution2: "case-1" T
Substitution2: "pcap-1" t.pcap
Substitution2: "smcp-1" t.smcp
EndChar
StartChar: u
Encoding: 117 117 790
Width: 563
Flags: HMW
AnchorPoint: "Bottom" 288 -15 basechar 0
AnchorPoint: "Ogonek" 439 18 basechar 0
AnchorPoint: "Top" 289 537 basechar 0
LayerCount: 2
Fore
SplineSet
371 464 m 1
 404.471679688 469.043945312 440.67578125 494.434570312 468 514 c 1
 501 471 l 1
 476.4140625 429.190429688 470 176.709960938 470 128 c 3
 470 107.604492188 470 87.2099609375 472 69 c 1
 475.333007812 58 479 56 486 56 c 3
 493.674804688 56 509.791015625 68.36328125 519 73 c 1
 541 22 l 1
 525.515625 13.564453125 489.004882812 -8.822265625 468 -17 c 0
 465.682617188 -17.8671875 455.625 -22 450 -22 c 3
 427.712890625 -22 418.875976562 33.314453125 415 66 c 1
 360.811523438 35.37890625 287.0234375 -8 219 -8 c 3
 175.338867188 -8 130.779296875 14 107 53 c 1
 90 84 83 115.990234375 83 168 c 3
 83 230.915039062 82 268 86 390 c 1
 86 396 85 399 81 399 c 3
 75.1865234375 399 49.6044921875 382.823242188 31 374 c 1
 15 432 l 1
 43.8984375 439.831054688 70.1015625 463.026367188 106 499 c 1
 149 471 l 1
 138.239257812 390.2734375 138 261.99609375 138 168 c 3
 138 91.6845703125 162.74609375 49 220 49 c 3
 275.236328125 49 364.15234375 101.0234375 414 130 c 1
 419 341 428 395.232421875 428 405 c 3
 428 421.833007812 421.608398438 418.36328125 386 410 c 1
 371 464 l 1
EndSplineSet
Substitution2: "case-1" U
Substitution2: "pcap-1" u.pcap
Substitution2: "smcp-1" u.smcp
EndChar
StartChar: v
Encoding: 118 118 2224
Width: 535
Flags: HMW
AnchorPoint: "Top" 274 537 basechar 0
AnchorPoint: "Bottom" 249 -15 basechar 0
LayerCount: 2
Fore
SplineSet
535 461 m 1
 505.245117188 450.186523438 483.40234375 449.178710938 478 430 c 0
 465.88671875 387 411.223632812 259.686523438 371 187 c 0
 336.249023438 124.203125 294 50 265 -13 c 1
 211 -13 l 1
 175.7890625 135 116.336914062 302.599609375 63 421 c 0
 57.7607421875 432.631835938 53.154296875 438.599609375 47 443 c 1
 30.5576171875 448 17.5771484375 448.833007812 2 453 c 1
 8 508 l 1
 28.2529296875 501.555664062 58.6318359375 498 82 498 c 3
 113.649414062 498 142.982421875 500.057617188 170 510 c 1
 179 455 l 1
 164.674804688 450.713867188 152.953125 447.62890625 123 443 c 1
 120.77734375 442 118 441.471679688 118 439 c 3
 118 436 117.681640625 433.637695312 120 429 c 0
 158 353 216 186 246 72 c 1
 291 161 369 291 417 425 c 0
 419.559570312 432.14453125 420 436.482421875 420 440 c 3
 420 444.764648438 413.655273438 443.090820312 361 453 c 1
 371 509 l 1
 396 503 429 498 447 498 c 3
 473.212890625 498 501.8828125 507 524 514 c 1
 535 461 l 1
EndSplineSet
Substitution2: "case-1" V
Substitution2: "pcap-1" v.pcap
Substitution2: "smcp-1" v.smcp
EndChar
StartChar: w
Encoding: 119 119 2227
Width: 783
Flags: HMW
AnchorPoint: "Top" 404 537 basechar 0
AnchorPoint: "Bottom" 379 -15 basechar 0
LayerCount: 2
Fore
SplineSet
778 460 m 1
 714 439 722.571289062 447.083007812 717 417 c 0
 702 336 632.3828125 212.787109375 627 204 c 0
 581.669921875 130.004882812 554 72.3076171875 536 -10 c 1
 482 -10 l 1
 462.666992188 106.252929688 432.600585938 210.665039062 404 314 c 1
 389.333007812 287.565429688 353.01953125 209.671875 329 165 c 0
 300.469726562 111.938476562 270 54.4970703125 252 -12 c 1
 207 -12 l 1
 191.198242188 124.181640625 116.045898438 332 69 424 c 0
 61.5458984375 439.240234375 64.310546875 435.993164062 49 441.4921875 c 0
 34.2587890625 447.4921875 19.5166015625 449.4921875 4 454.4921875 c 1
 12 507.4921875 l 1
 37.0107421875 503.4921875 73.13671875 498.4921875 100 498.4921875 c 1
 128.911132812 498.4921875 148.42578125 502.4921875 173 508.4921875 c 1
 181 456 l 1
 165.286132812 450.221679688 142.780273438 443 131 443 c 0
 129 443 128 443 127 442 c 1
 127 440 126.606445312 437.918945312 127 437 c 0
 165 353 215.666992188 217 241 116 c 1
 279 189 337 310 382 391 c 1
 378.666992188 405.083007812 375.333984375 418.213867188 372 429 c 1
 371.09375 434.142578125 367.533203125 438.653320312 361 440 c 0
 348.244140625 443.25390625 335.799804688 446.328125 319 449.4921875 c 1
 327 503.4921875 l 1
 345.759765625 500.159179688 371.666015625 498.4921875 394 498.4921875 c 1
 417.43359375 498.4921875 441.518554688 504.206054688 463 508.4921875 c 1
 473 453.4921875 l 1
 461.434570312 449.62890625 445.739257812 447.192382812 435 444.4921875 c 1
 432 443.2421875 428 442.825195312 428 439.4921875 c 3
 428 433.4921875 430.1015625 428.654296875 432 421.4921875 c 0
 448.315429688 359.942382812 479.944335938 253.431640625 515 112 c 1
 554.200195312 205.295898438 628 295 659 414 c 0
 663.388671875 430.848632812 666 443 650 444 c 1
 643.455078125 445.737304688 646.625 444.352539062 596 452 c 1
 606 507 l 1
 630.444335938 502.5 664.666992188 498 683 498 c 1
 709.866210938 498 739.333007812 505.3125 761 511 c 1
 778 460 l 1
EndSplineSet
Substitution2: "case-1" W
Substitution2: "pcap-1" w.pcap
Substitution2: "smcp-1" w.smcp
EndChar
StartChar: x
Encoding: 120 120 2236
Width: 555
Flags: HW
HStem: -6 56<38.375 87.6889 356.364 382.796 446.044 520.268> 445 57<49 127.126 374.875 400> 447 59<182.31 213.037 462.311 520.362>
AnchorPoint: "Top" 300 537 basechar 0
AnchorPoint: "Bottom" 273 -15 basechar 0
LayerCount: 2
Fore
SplineSet
32 50 m 1xc0
 74 57 73.546875 57 85 69 c 1
 98 82 246 257 246 257 c 1
 246 257 146.115234375 397.692382812 140 405 c 1
 112 447 118.099609375 439.469726562 49 445 c 1
 49 502 l 1xc0
 71.962890625 500 104.555664062 498 129 498 c 3
 154.591796875 498 191.94140625 500.400390625 212 506 c 1
 220 452 l 1
 212.647460938 449.5 206 448 195 447 c 0xa0
 189.63671875 446.512695312 182 445 182 441 c 1
 188.55859375 436.19921875 277.752929688 305.80078125 283 301 c 1
 382 418 l 1
 386 422.166992188 396 433.72265625 400 443 c 1
 393.400390625 443 380.93359375 444 367 446 c 1
 376 502 l 1
 398.857421875 497.5 413.142578125 498 436 498 c 3
 463.692382812 498 497.845703125 499 520 505 c 1
 523 448 l 1
 476 443 477 443 455 417 c 0
 410.71875 364.66796875 363.014648438 306.728515625 316 255 c 1
 354.359375 199.409179688 398.989257812 136.09765625 440 78 c 0
 464 44 452.546875 60 523 50 c 1
 520 -8 l 1
 500.232421875 -4 467.092773438 0 445 0 c 0
 418.357421875 0 384.44921875 -3 357 -7 c 1
 350 49 l 1
 359.672851562 50.875 375.603515625 52.75 383 54 c 1
 382.142578125 60 380 66 380 68 c 1
 372.713867188 77.412109375 282.857421875 205.647460938 278 208 c 1
 273.573242188 203.260742188 171.748046875 83.478515625 164 74 c 1
 159.142578125 70.6669921875 147 57.3330078125 147 54 c 1
 152.1015625 53.125 177.612304688 48.75 197 47 c 1
 189 -5 l 1
 163.03515625 -3 138.860351562 0 112 0 c 0
 88.404296875 0 60.3837890625 -4 39 -6 c 1
 32 50 l 1xc0
EndSplineSet
Substitution2: "case-1" X
Substitution2: "pcap-1" x.pcap
Substitution2: "smcp-1" x.smcp
EndChar
StartChar: y
Encoding: 121 121 2242
Width: 521
Flags: HMW
AnchorPoint: "Top" 261 537 basechar 0
AnchorPoint: "Bottom" 332 -15 basechar 0
LayerCount: 2
Fore
SplineSet
177 -175 m 1
 153.036132812 -174 160.297851562 -173 116 -173 c 1
 95.759765625 -173 92.126953125 -175 75 -176 c 1
 76 -156.423828125 79 -142.440429688 72 -121 c 1
 159 -111 113 -130 183 23 c 1
 150.750976562 153.282226562 95 354 67 432 c 0
 65.80859375 435.3203125 62.806640625 443.630859375 59 444 c 0
 43.5458984375 445.5 32.63671875 446.75 19 449 c 1
 27 506 l 1
 47.611328125 502 76.8115234375 498 100 498 c 1
 124.854492188 498 142.874023438 500.333007812 164 505 c 1
 175 451 l 1
 160.43359375 447.8671875 146.143554688 444.4453125 129 444 c 1
 127.666992188 444 125 444 125 441 c 3
 125 438.599609375 125.270507812 433.987304688 127 429 c 0
 151.219726562 359.180664062 197.4765625 192.438476562 220 102 c 1
 271 194 339 330 386 411 c 0
 393.458984375 423.854492188 401 439.086914062 401 445 c 1
 397.618164062 445.700195312 385.217773438 447.099609375 370 452 c 1
 381 507 l 1
 394.291015625 503.25 419.607421875 498 431 498 c 1
 457.161132812 498 481.202148438 504 501 510 c 1
 513 456 l 1
 467.361328125 442.25 468.400390625 450.193359375 451 416 c 0
 401.130859375 318 319.322265625 176.922851562 254 43 c 0
 230.575195312 -5.025390625 183 -110 177 -175 c 1
EndSplineSet
Substitution2: "case-1" Y
Substitution2: "pcap-1" y.pcap
Substitution2: "smcp-1" y.smcp
EndChar
StartChar: z
Encoding: 122 122 2256
Width: 550
Flags: HMW
AnchorPoint: "Bottom" 277 -15 basechar 0
AnchorPoint: "Top" 284 537 basechar 0
LayerCount: 2
Fore
SplineSet
420 0 m 1
 420 -1 205 -1 205 0 c 1
 128 1 59 -5 43 -16 c 1
 30 40 l 1
 136 94 278 312 406 443 c 1
 366.56640625 443 335.43359375 443 296 443 c 3
 229.8359375 443 184.028320312 440.415039062 116 450 c 0
 104.471679688 451.624023438 105 450 75 368 c 1
 22 386 l 1
 22 386 74 530 76 526 c 1
 114 508 101 499 269 499 c 3
 390 499 453 496 487 507 c 1
 512 466 l 1
 445 424 251 162 144 55 c 1
 154.810546875 55 333.189453125 56 344 56 c 3
 422.006835938 56 423.32421875 56.4443359375 435 61 c 1
 442.845703125 60.63671875 443.994140625 68.0595703125 452 103 c 0
 456.166015625 121.182617188 465.412109375 152.576171875 471 178 c 1
 524 159 l 1
 479 -22 l 1
 460 -10 452 0 420 0 c 1
EndSplineSet
Substitution2: "case-1" Z
Substitution2: "pcap-1" z.pcap
Substitution2: "smcp-1" z.smcp
EndChar
StartChar: braceleft
Encoding: 123 123 199
Width: 266
Flags: HW
HStem: -175.7 54.4189<163.321 248.64> 655.881 54.4189<163.321 248.64>
VStem: 77.791 55.918<-90.8533 121.013 413.586 625.453> 100.291 55.418<10.744 198.34 336.259 523.855>
LayerCount: 2
Fore
SplineSet
248.639648438 710.299804688 m 1xe0
 248.639648438 710.299804688 248.639648438 678.6640625 248.639648438 655.880859375 c 1
 164.32421875 651.220703125 133.708984375 633.7109375 133.708984375 541 c 3xe0
 133.708984375 490.768554688 155.708984375 474.466796875 155.708984375 400 c 3
 155.708984375 348.587890625 125.365234375 290.6953125 91.3486328125 267.299804688 c 1
 125.365234375 243.904296875 155.708984375 186.01171875 155.708984375 134.599609375 c 3xd0
 155.708984375 60.1318359375 133.708984375 43.830078125 133.708984375 -6.400390625 c 3
 133.708984375 -99.111328125 164.32421875 -116.62109375 248.639648438 -121.28125 c 1
 248.639648438 -175.700195312 l 1
 161.652297918 -178.738724827 77.791015625 -141.066685173 77.791015625 -5.7001953125 c 3xe0
 77.791015625 54.2272067041 100.291015625 86.5951077933 100.291015625 133.599609375 c 3
 100.291015625 173.661758319 72.173828125 229.6484375 11.5 248.16015625 c 1
 11.5 286.439453125 l 1
 72.173828125 304.950195312 100.291015625 360.938069872 100.291015625 401 c 3xd0
 100.291015625 448.003934096 77.791015625 480.371888713 77.791015625 540.299804688 c 3
 77.791015625 675.666331003 161.652297918 713.338331003 248.639648438 710.299804688 c 1xe0
EndSplineSet
Position2: "cpsp-1" dx=0 dy=0 dh=50 dv=100
Position2: "'case' vertical ajustments for all-caps-1" dx=0 dy=90 dh=0 dv=0
EndChar
StartChar: asciitilde
Encoding: 126 126 339
Width: 533
VWidth: 0
Flags: HW
HStem: 193.834 93.2461<249.174 315.835> 263.292 92.498<115.244 189.066>
LayerCount: 2
Back
SplineSet
47.1519247904 230.363241358 m 1
 27.4283578156 250.237367899 l 1
 47.3024843571 269.960934874 l 1
 46.5926941235 269.256521768 47.3024843571 270.960934874 47.3024843571 269.960934874 c 1
 69.3745793925 291.865819288 95.2939965342 314.703421097 118.755627629 331.414679911 c 0
 136.304471848 343.914376818 152.545308203 356.379882812 174.982421875 356.379882812 c 0
 215.611298934 356.379882812 255.350614377 320.400270929 292.370912177 293.71996216 c 0
 323.168475372 271.524341267 353.419288207 252.932113512 364.845693482 250.390216853 c 0
 369.380999183 252.825387438 376.455982099 257.836396147 385.027326437 265.011350348 c 0
 403.405462483 280.395434711 426.622328884 303.782780262 445.154109664 324.214373384 c 2
 463.96537403 344.954101756 l 1
 484.705102402 326.14283739 l 1
 505.444830774 307.331573023 l 1
 486.633566408 286.591844651 l 2
 466.781333454 264.704431289 442.658297629 240.22305778 420.972671701 222.070319225 c 0
 405.498747808 209.117310824 391.13542893 194.088867188 367.060546875 194.088867188 c 0
 329.142724316 194.088867188 293.623274903 223.789584486 259.629084435 248.288995672 c 0
 223.63532732 274.229482664 187.48656796 298.128862465 175.872936027 300.27116332 c 0
 173.22320663 299.373286318 162.635555695 293.916100851 151.244370245 285.802383288 c 0
 131.548772275 271.773595867 106.965713962 250.27562724 86.7496183068 230.212681791 c 2
 66.8754917653 210.489114816 l 1
 47.1519247904 230.363241358 l 1
EndSplineSet
Fore
SplineSet
28.2340700037 246.486557305 m 1x40
 75.6788687059 303.391297318 139.306863405 356 175 356 c 3x40
 233.747384638 356 330.814251973 252 366 252 c 3
 372.998170206 252 429.353777925 300.905356989 462 347 c 1
 504.33203125 310.140625 l 1
 463.138146986 257.591087751 402 194 367 194 c 3x80
 306.67539267 194 208.375271912 299 175 299 c 3
 162.949244044 299 94.9417939594 244.212279827 70 210 c 1
 28.2340700037 246.486557305 l 1x40
EndSplineSet
Position2: "cpsp-1" dx=0 dy=0 dh=50 dv=100
Position2: "'case' vertical ajustments for all-caps-1" dx=0 dy=90 dh=0 dv=0
EndChar
StartChar: cent
Encoding: 162 162 1204
Width: 473
VWidth: 1159
UnlinkRmOvrlpSave: 1
Flags: HW
HStem: -9 63<150.253 274.436> 370 51<159.213 276.324>
VStem: 25 62<120.66 283.256>
LayerCount: 2
Back
SplineSet
405.375328537 79.7933452483 m 1
 420.899344597 56.4908791689 l 1
 397.596878517 40.9668631093 l 2
 362.649945232 17.6853463933 313.827095279 -10.7998046875 238.799804688 -10.7998046875 c 0
 155.509615393 -10.7998046875 21 63.7482134678 21 242 c 0
 21 308.988316579 42.78556094 363.073277654 88.9818657202 423.641784763 c 0
 139.996063601 490.527086989 208.844268786 514.200195312 288 514.200195312 c 0
 340.09257917 514.200195312 372.009824454 496.986019366 411.610623232 482.230944643 c 2
 437.848524476 472.454823822 l 1
 428.072403656 446.216922578 l 1
 418.296282836 419.979021334 l 1
 392.058381592 429.755142154 l 2
 346.813114141 446.613319834 326.961686666 458.200195312 288 458.200195312 c 0
 219.692769715 458.200195312 172.536567071 440.850501223 133.508716915 389.680637511 c 0
 91.6289355226 334.771573917 77 296.137025306 77 242 c 0
 77 96.8577926477 183.645462469 45.2001953125 238.799804688 45.2001953125 c 0
 299.240601701 45.2001953125 334.022504961 65.9028678205 366.548846398 87.5717952681 c 2
 389.851312477 103.095811328 l 1
 405.375328537 79.7933452483 l 1
EndSplineSet
Fore
SplineSet
21 242 m 3
 21 319.202206929 44.2270386838 363.632979436 88.7998046875 423.400390625 c 0
 138.66991561 490.270986569 202.71998196 514.200195312 288 514.200195312 c 3
 353.638979933 514.200195312 384.555555556 487.904424253 446 471 c 1
 432.642857143 451.066666667 425.357142857 438.933333333 412 419 c 1
 390.392857143 429.949730484 340.223152817 457 290 457 c 3
 200.519711591 457 175.472823032 434.780845692 140 397 c 0
 95.1239701132 349.204132192 76 291.44906245 76 242 c 3
 76 104.358800874 173.681888069 45 239 45 c 3
 308.140185092 45 356.437022901 80.6285714283 388 103 c 1
 400 85.3750000002 408 73.6250000001 420 56 c 1
 383.532750661 32.2527131337 331.409546019 -10.7998046875 238.799804688 -10.7998046875 c 3
 155.493442647 -10.7998046875 21 63.7193224155 21 242 c 3
EndSplineSet
Refer: 1968 58113 N 0.0181668 0.693762 -0.968418 0.0253589 229.417 -98.881 2
Position2: "'lnum-2' vertical adjustment" dx=0 dy=125 dh=0 dv=0
EndChar
StartChar: copyright
Encoding: 169 169 875
Width: 770
VWidth: 1159
Flags: W
HStem: 0 40.7334<274.879 492.407> 157.127 45.76<338.543 468.783> 484.487 52.8<324.463 446.783> 640.886 40.733<277.384 494.912>
VStem: 37.4082 41.5371<228.497 441.891> 205.663 62.48<275.047 418.487> 690.846 41.545<239.728 448.282>
LayerCount: 2
Fore
SplineSet
384.892578125 625.885742188 m 3
 233.822340728 625.885742188 93.9453125 502.786931416 93.9453125 334.92578125 c 3
 93.9453125 167.406137948 228.228731702 55.7333984375 384.892578125 55.7333984375 c 3
 535.966093808 55.7333984375 675.845703125 178.832940728 675.845703125 346.693359375 c 3
 675.845703125 503.04196684 541.559718584 625.885742188 384.892578125 625.885742188 c 3
384.896 681.619 m 3
 572.009 681.619 732.391 534.6 732.391 347.494 c 3
 732.391 147.017 565.326 0 384.896 0 c 3
 197.787 0 37.4082 133.65 37.4082 334.125 c 3
 37.4082 534.598 204.47 681.619 384.896 681.619 c 3
EndSplineSet
Refer: 2 99 N 0.88 0 0 0.88 165.743 120.327 2
Validated: 1
EndChar
StartChar: degree
Encoding: 176 176 257
Width: 307
Flags: HW
HStem: 450.961 55.8428<90.2477 204.12> 689.86 55.8428<89.5641 206.291>
VStem: 0.241211 55.8145<540.811 656.519> 238.947 55.8154<540.294 657.187>
LayerCount: 2
Fore
SplineSet
147.408203125 506.803710938 m 0
 196.007104382 506.803710938 238.947265625 546.894530198 238.947265625 599.026367188 c 0
 238.947265625 650.385940987 198.505475151 689.860351562 147.310546875 689.860351562 c 0
 96.7642727234 689.860351562 56.0556640625 649.336684626 56.0556640625 598.756835938 c 0
 56.0556640625 548.009940155 97.951998303 506.803710938 147.408203125 506.803710938 c 0
147.376953125 450.9609375 m 0
 67.7209799365 450.9609375 0.2412109375 517.25500347 0.2412109375 598.8984375 c 0
 0.2412109375 680.403073513 65.820211378 745.703125 147.247070312 745.703125 c 0
 229.660015085 745.703125 294.762695312 682.06127958 294.762695312 599.2578125 c 0
 294.762695312 515.4282111 225.625352612 450.9609375 147.376953125 450.9609375 c 0
EndSplineSet
EndChar
StartChar: paragraph
Encoding: 182 182 76
Width: 558
UnlinkRmOvrlpSave: 1
Flags: HW
HStem: -10 21G<333.024 441.987> 661 20G<325.916 384.386>
VStem: 21.2998 214.012<266.469 441.657> 317.916 56.7842<57 490.2> 325.916 58.7842<235.8 673>
LayerCount: 2
Back
SplineSet
356.191421696 648.862110211 m 1
 384.18796124 648.421913048 l 1
 375.234498702 78.9816955927 l 1
 347.237959157 79.4218927553 l 1
 319.241419613 79.862089918 l 1
 328.194882152 649.302307373 l 1
 356.191421696 648.862110211 l 1
415.834180304 23.5243014154 m 1
 409.804961905 -3.81886090168 l 1
 223.788077551 37.1982097891 183.494036152 71.8828791093 128.679703725 131.021879486 c 0
 69.4676760782 198.656729133 26.0942417899 278.11358039 25.7001953125 343 c 0
 25.5875772811 361.544464315 21.8073042513 367.6128296 21.3186429152 381.137373319 c 2
 21.2416246665 383.268985941 l 1
 21.4883883031 385.387667581 l 2
 22.1319976309 390.913616561 22.4756951139 393.216299483 24.7001953125 399 c 0
 54.7279949324 477.072279012 105.781855974 586.752920657 206.700195312 657 c 0
 285.088797554 711.564615286 424.467159098 731.761309315 484.484251336 738.250363284 c 1
 487.494072889 710.412601624 l 1
 490.503894443 682.574839965 l 1
 433.870602237 676.451642791 298.922419928 652.962889638 238.693007713 611.038494861 c 0
 153.98790654 552.077100907 106.750296301 455.857360294 77.7793743699 381.001584359 c 0
 78.9621886323 374.57233755 81.5946172536 360.555252391 81.6991627097 343.340074179 c 0
 81.9474309116 302.458514143 116.002870805 230.788340363 170.284118859 168.514385858 c 0
 219.87067708 115.033252619 238.573403539 91.2832502599 421.863398703 50.8674637324 c 1
 415.834180304 23.5243014154 l 1
EndSplineSet
Fore
SplineSet
270.916015625 673 m 1xe8
 329.700195312 681 l 1xe8
 319.700195312 45 l 1
 262.916015625 57 l 1xf0
 270.916015625 673 l 1xe8
514.700195312 741 m 1
 516.700195312 683.868164062 l 1
 318 661 258 631 209.700195312 588.82421875 c 0
 184.697076561 566.991292636 157 545.861328125 157 295 c 7
 157 190.091796875 189.381533113 150.724735826 197.700195312 139.131835938 c 0
 229.306758384 95.0848831063 354.16748047 62.4675010293 448.047851562 47.1318359375 c 1
 438.700195312 -10 l 1
 227.348059741 33.9285855587 184.923604713 67.0216375774 128.700195312 131 c 0
 70.7001953125 197 26.091903553 278.498610671 25.7001953125 343 c 0
 25.6014772944 359.255591946 21.2998046875 370.966885604 21.2998046875 382.532226562 c 1
 21.2998046875 385.723904542 22.4685985991 393.197848545 24.7001953125 399 c 0
 54.7001953125 477 105.842800187 586.795342609 206.700195312 657 c 0
 308.700195312 728 514.700195312 741 514.700195312 741 c 1
EndSplineSet
Position2: "cpsp-1" dx=0 dy=0 dh=50 dv=100
EndChar
StartChar: AE
Encoding: 198 198 319
Width: 1046
VWidth: 1159
Flags: W
HStem: -9 35<449 500.854> -5 39<22.5469 80.8864> 3.06988 37.3024<636.857 887.73> 247 42<296.875 529.631> 334 36<608 868.393> 661 31<394.871 460.439>
VStem: 525 93<373.564 639.016> 529.631 78.3691<90.5 243.369 285.991 334 370 605.156> 892 36<248.75 306.348 394.846 442.094> 933 30<539 620.59> 993 28<152.034 171.75>
AnchorPoint: "Top" 580.585 699 basechar 0
AnchorPoint: "Bottom" 569.957 -15 basechar 0
LayerCount: 2
Fore
SplineSet
378.250976562 684.215820312 m 1x1ce0
 465.18359375 681.030273438 582.100585938 679.139648438 711.677734375 679.139648438 c 0
 814.5625 679.139648438 908.676757812 681.123046875 932.581054688 687.215820312 c 1
 954.665039062 670.905273438 961.684570312 660.729492188 961.684570312 647.3359375 c 0
 961.684570312 629.392578125 943.731445312 604.849609375 941.490234375 543.140625 c 1
 882.244140625 538.313476562 l 1
 875.6796875 566.799804688 889.951171875 599.846679688 873.74609375 601.708007812 c 0
 825.612304688 607.90234375 755.857421875 612.05078125 694.970703125 612.05078125 c 0
 672.819335938 612.05078125 651.842773438 611.501953125 633.506835938 610.302734375 c 0
 625.34765625 609.741210938 619.896484375 606.453125 619.78515625 595.010742188 c 0
 619.278320312 522.559570312 618.102539062 441.46875 617.102539062 374.279296875 c 1
 662.213867188 376.380859375 819.733398438 374.240234375 825.029296875 374.649414062 c 0
 833.559570312 375.49609375 833.287109375 400.689453125 844.129882812 432.393554688 c 1
 910.087890625 418.997070312 l 1
 901.954101562 386.731445312 898.262695312 357.520507812 898.262695312 327.434570312 c 0
 898.262695312 306.954101562 900.830078125 285.9140625 905.700195312 262.169921875 c 1
 842.89453125 243.1171875 l 1
 825.56640625 286.19140625 834.264648438 306.1484375 826.526367188 306.28125 c 0
 792.984375 305.731445312 671.364257812 304.29296875 615.275390625 305.376953125 c 1
 615.188476562 215.100585938 614.744140625 150.397460938 616.145507812 90.3759765625 c 0
 616.584960938 75.5400390625 623.065429688 72.8720703125 629.076171875 72.7763671875 c 0
 668.23046875 72.3486328125 704.966796875 72.001953125 739.833984375 72.001953125 c 0
 777.384765625 72.001953125 812.767578125 72.5 846.76953125 73.97265625 c 0
 884.474609375 75.498046875 894.541015625 92.654296875 930.034179688 155.546875 c 1
 990.022460938 141.235351562 l 1
 975.419921875 80.6796875 965.881835938 58.7255859375 953.806640625 1.9365234375 c 1
 862.471679688 -0.6875 766.720703125 3.3037109375 675.853515625 3.3037109375 c 0
 596.0859375 3.3037109375 534.16796875 0.09765625 473.078125 -13.8818359375 c 1
 435.852539062 53.1064453125 l 1
 474.172851562 60.73046875 506.080078125 69.0830078125 506.092773438 77.1767578125 c 0
 506.249023438 97.5634765625 506.37109375 137.842773438 506.452148438 189.197265625 c 1
 418.833984375 189.956054688 361.44140625 190.465820312 249.6484375 191.515625 c 1
 194.458007812 98.171875 l 2
 180.53515625 76.142578125 217.478515625 71.9794921875 249.80859375 66.365234375 c 1
 245.06640625 -5.9677734375 l 1
 215.038085938 0.8916015625 164.807617188 3.4072265625 129.09375 3.4072265625 c 0
 100.141601562 3.4072265625 71.599609375 1.6005859375 47.0693359375 -1.1396484375 c 1
 45.2412109375 15.41015625 42.1552734375 39.904296875 38.4140625 63.451171875 c 1
 86.6826171875 73.794921875 92.349609375 79.51953125 106.465820312 99.3974609375 c 2
 417.518554688 609.966796875 l 1
 404.638671875 610.375 390.358398438 610.83984375 374.680664062 611.421875 c 1
 378.250976562 684.215820312 l 1x1ce0
494.9375 606.375976562 m 1
 285.040039062 251.374023438 l 1
 352.397460938 250.533203125 452.731445312 254.856445312 506.52734375 255.260742188 c 1
 506.596679688 344.650390625 506.291015625 599.043945312 506.216796875 602.430664062 c 0
 506.177734375 604.212890625 502.415039062 605.4453125 494.9375 606.375976562 c 1
EndSplineSet
Validated: 33
Position2: "cpsp-1" dx=0 dy=0 dh=50 dv=100
Substitution2: "c2pc-1" ae.pcap
Substitution2: "c2sc-1" ae.smcp
EndChar
StartChar: germandbls
Encoding: 223 223 386
Width: 601
Flags: HW
HStem: -9 40<37 88.8477 173.148 208.525 365.019 460.981> 356 30<40 95.2842> 705 51<244.321 344.378>
VStem: 100 65<36.3341 356 396.595 588.58> 276 67<305.481 354.885> 301 22<88.2815 107.227> 396.559 58.286<487.211 649.856> 477 62<53.3627 166.162>
LayerCount: 2
Fore
SplineSet
298 749 m 3
 405.82001954 749 476 667.537974416 476 592 c 3
 476 504.773455875 362 420.089552239 362 377 c 3
 362 355.793103448 384.312575634 330.004917447 468 299 c 0
 567.456289188 262.152958056 599 207.246124805 599 151 c 3
 599 48.6338028169 506.409574468 -7 430 -7 c 3
 374 -7 332 6 291 19 c 1
 287 40 280.594368732 60.9408266935 277 87 c 0
 273 116 271 144 265 159 c 1
 321 175 l 1
 345 82 306.39782103 49 430 49 c 3
 480.924949413 49 543 89.4004398518 543 150 c 3
 543 191.854166667 525.279394425 215.666195296 444 248 c 0
 390.776978417 269.172682176 307 300 307 377 c 3
 307 457.024092889 420 523.991526032 420 591 c 3
 420 648 362.838170951 693 299 693 c 3
 253.822572008 693 184.661848961 655.206163203 157 563 c 0
 145 523 148 499.010256141 148 304 c 3
 148 225.618623454 148 112 148 70 c 0
 148 56.3326079759 147.968706064 56.5572738085 159 56 c 0
 183.75765162 54.7493043982 211.25 51.3333333333 236 49 c 1
 231 -7 l 1
 199.032894737 -2.55555555556 154.427631579 1 118 1 c 3
 87 1 39 -4 11 -7 c 1
 9 49 l 1
 26.3684210526 50.6666666667 46.2555770999 52.7325412214 64 54 c 0
 92 56 92 56 92 74 c 0
 92 131.319227378 92 211.333333333 92 280 c 3
 92 307.534318003 92 390.063694268 92 440 c 1
 66.1298701299 439 38.1038961039 438 9 437 c 1
 9 493 l 1
 37.0405405406 493.5 67.3243243243 495 92 496 c 1
 92 497.779661017 92 498.338983051 92 499 c 3
 92 579.172661871 126 653 176 698 c 0
 204.636695267 723.77302574 244.383333333 749 298 749 c 3
EndSplineSet
Substitution2: "pcap-1" uni1E9E.pcap
Substitution2: "case-1" uni1E9E
Substitution2: "smcp-1" uni1E9E.smcp
MultipleSubs2: "case-2" S S
EndChar
StartChar: ae
Encoding: 230 230 322
Width: 672
VWidth: 1159
Flags: HW
HStem: -9 43<55.5195 159.444> -8 50<352.222 471.185> 370 52<125.933 201.869 343.725 424.068>
VStem: 20.5195 62<43.6209 136.135> 33.5195 77<309.417 362.65> 232.563 66.1328<101.524 187.689>
AnchorPoint: "Top" 283.52 465 basechar 0
AnchorPoint: "Bottom" 280.52 -15 basechar 0
LayerCount: 2
Back
SplineSet
480 517 m 3
 553.713867188 517 613.318359375 458.301757812 636 364 c 1
 639 352 642 345 648 344 c 1
 648 286 l 1
 530.918945312 278.221679688 452.10546875 267.333007812 346 258 c 1
 345 250.615234375 345 241.384765625 345 234 c 3
 345 116.627929688 369.875976562 43 458 43 c 3
 537.817382812 43 568.87890625 96.693359375 601 148 c 1
 646 115 l 1
 609.451171875 56 563.4296875 -12 456 -12 c 3
 304.87890625 -12 289 129.328125 289 230 c 3
 289 419 376.5 517 480 517 c 3
482 461 m 3
 422.389648438 461 383.389648438 411.868164062 357 316 c 1
 577 337 l 1
 583 338 l 1
 575.454101562 404.635742188 536.749023438 461 482 461 c 3
318 253 m 1
 317 254 315 254 313 254 c 1
 237.504504505 249.875 131.894944575 209.195819919 104 188 c 0
 84.4760890278 173.164863835 86 141.6875 86 112 c 3
 86 67.9886378307 93.9565422671 46 140 46 c 3
 207.421748073 46 256.447253263 73.375 317 119 c 1
 317 146.887412109 317 174.773935546 317 210 c 3
 317 226.987304688 319 243.444335938 318 253 c 1
243 517 m 3
 273.56640625 517 346.346679688 456.774414062 363 428 c 0
 376 404 375 381 375 362 c 1
 375 290.661470853 373 192.744215745 373 127 c 3
 373 84.1903939597 376.287925822 79.8482967109 379 69 c 0
 380 65 385 63 386 63 c 3
 392.428571429 63 420.714285714 79 422 79 c 1
 442 26 l 1
 425.741806402 19.052734375 374.258193598 -7 358 -7 c 3
 343.203396686 -7 320 5 319 51 c 1
 257.159324149 9.91836734694 204.153476331 -10 139 -10 c 3
 42 -10 30 56 30 112 c 1
 30 140.21 31 182.98 42 203 c 1
 48 219 59 231 70 236 c 1
 136 272 217.990566038 296.5 319 313 c 1
 319 344 l 1
 319 384.660714286 317.36328125 396.446289062 311 405 c 1
 305.983398438 410.978515625 248.448242188 460 237 460 c 3
 217.801757812 460 106 418.125 106 391 c 3
 106 384.845703125 112 371 112 371 c 1
 54 349 l 1
 54 349.900390625 43 369.700195312 43 385 c 3
 43 409 54.380859375 431.509765625 79 451 c 0
 101.112304688 470 197.853515625 517 243 517 c 3
EndSplineSet
Fore
SplineSet
483 461 m 3x24
 416.966675921 461 369.536132812 391.029842403 358 300 c 1
 578 337 l 2
 580.941493066 337.494705652 582.115069453 340.002207642 582 343 c 0
 579.87890625 398.258789062 535 461 483 461 c 3x24
356 243 m 1
 356 103.353370949 397.6640625 43 470 43 c 3
 545.239257812 43 574 99 600 149 c 1
 646 115 l 1
 612.822180294 56 566.521484375 -12 469 -12 c 3
 408.049334491 -12 368.202039931 10.734375 339 60 c 1
 282.995392628 26.8385611007 203.281592926 -10 139 -10 c 3
 42 -10 30 56 30 112 c 3
 30 140.209960938 33.9794487573 181.611863353 42 203 c 0
 48 219 58.7897167417 231.491169856 70 236 c 0
 146 265.513513514 212 278.378378378 298 292 c 1
 298.500976562 300.609718117 298 336.527818834 298 347 c 0
 298 380 297.827267531 413.215915586 290 423 c 0
 286 428 246 460 237 460 c 3
 218 460 106 418 106 390 c 3
 106 382 112 370 112 370 c 1
 54 349 l 1
 54 350 43 372 43 389 c 3
 43 413 57.2324424908 433.698719832 82 453 c 0
 106 471.703125 199 516 238 516 c 3
 272.456521556 516 343.516722338 464.495071992 348 437 c 1
 387.890003284 490.048631013 427.637444922 517 483 517 c 3
 548.571056277 517 612.903113969 458.387544124 636 366 c 0
 639 354 642 347 648 346 c 1
 648 291 l 1
 553.934570312 278.159722222 441.247070312 258.407986111 356 243 c 1
299 233 m 1
 257.936523438 231.111102764 127 203 104 186 c 0
 82.9819290624 170.46490409 86 137.333333333 86 113 c 3
 86 64.2852579786 95.8374448892 46 140 46 c 3
 177.834352779 46 286.83674448 88.9910037879 313 114 c 1
 302.863769531 148.00483602 298.379638672 195.758103391 299 233 c 1
EndSplineSet
Substitution2: "pcap-1" ae.pcap
Substitution2: "case-1" AE
Substitution2: "smcp-1" ae.smcp
EndChar
StartChar: Aogonek
Encoding: 260 260 2298
Width: 733
Flags: HW
HStem: -346.802 72.7783<509.644 579.002> 245 42<247 437.657> 692 20G<358 405.73>
VStem: 360 43<632.023 712> 417.273 71.958<-253.556 -112.611>
LayerCount: 2
Fore
SplineSet
237 247 m 1
 284 245 467 245 511 245 c 1
 480 326 414 470 383 585 c 1
 353 505 272 325 237 247 c 1
491.487304688 9 m 0
 535.173326399 57.7313787501 585.189165271 46.4388854757 585.189165271 66.0686766678 c 0
 585.189165271 67.7881466677 584.805400236 69.7448793397 584 72 c 0
 568.631229879 115.032556338 553 146 537 189 c 1
 458 190 315 191 211 192 c 1
 193 150 179.24962195 117.349168289 160 75 c 0
 150 53 187 57 209 51 c 1
 205 -6 l 1
 187.11173412 -0.335876733047 164.097945789 1.55292835824 140.081225406 1.55292835824 c 0
 108.291011837 1.55292835824 74.7435586007 -1.7564515981 49 -4 c 1
 47 13 45 23 41 47 c 1
 90 57 98.1649461626 73.9257680538 108 96 c 0
 198 298 274.73186597 460.102851522 332 609 c 0
 347 648 347 654 355 689 c 1
 409 689 l 1
 415 657 419.141305481 650.045648643 432 610 c 0
 502 392 558.437286039 286.406784902 645 70 c 0
 653 50 663 56 697 52 c 1
 698 35 699 16 700 -3 c 1
 669.665487666 -0.0734807150741 642.849640975 2.44832490051 619.568977011 2.44832490051 c 0
 580.426745674 2.44832490051 551.277892011 -4.68040305707 532.200918609 -28.9999993383 c 0
 514.133247468 -52.0329227817 511.349609375 -82.4820997701 511.349609375 -95.658203125 c 3
 511.349609375 -111.352539062 527.241210938 -120.658203125 547.349609375 -120.658203125 c 3
 573.734375 -120.658203125 596.208007812 -111.801757812 617.322265625 -92.2578125 c 1
 617.322265625 -92.2578125 638.275390625 -119.422851562 643.349609375 -140.658203125 c 1
 620.318359375 -165.663085938 581.515625 -176.658203125 546.12109375 -176.658203125 c 3
 497.740234375 -176.658203125 454.911132812 -146.66796875 454.911132812 -96.4931640625 c 3
 454.911132812 -64.7984818711 463.767578125 -21.9208984375 491.487304688 9 c 0
EndSplineSet
Position2: "cpsp-1" dx=0 dy=0 dh=50 dv=100
Substitution2: "c2pc-1" aogonek.pcap
Substitution2: "c2sc-1" aogonek.smcp
EndChar
StartChar: Eogonek
Encoding: 280 280 258
Width: 683
UnlinkRmOvrlpSave: 1
Flags: HW
HStem: -177 56<431.465 543.35> -13.8818 54.8818<95.7927 142.195> 3.30371 52.6963<201.375 425.964> 311.377 54.623<199.275 481.764> 622.787 56.3525<85.251 143.309 198.958 530.448> 667.216 20G<557.629 580.623>
VStem: 143.562 55.4385<56.4691 311.377 366 623.239> 372.562 58.4385<-118.062 -52.9775> 492.895 49.8057<261.433 311.936 368.159 419.556> 524.244 54.2461<547.313 625.4> 568 54<73.6051 127.944>
AnchorPoint: "Bottom" 340 -15 basechar 0
AnchorPoint: "Top" 330 699 basechar 0
LayerCount: 2
Back
SplineSet
48 688 m 1
 247 678 548 685 574 691 c 1
 606 663 579 670 568 537 c 1
 538 534 l 1
 527 570 546 617 510 628 c 0
 447 646 328 651 247 641 c 0
 229 639 216 625 215 607 c 0
 211 525.313559322 206 444.635593221 205 369 c 1
 269 371 429 371 443 372 c 0
 480 377 485 403 501 447 c 1
 535 440 l 1
 518 376 522 313 533 249 c 1
 497 240 l 1
 477 311 484 324 443 328 c 0
 399 333 298 332 205 333 c 1
 204 235.613545816 208 147.262948207 220 81 c 0
 224 64 233 50 250 49 c 0
 343 40 414 32 490 58 c 0
 550.414440108 78.6680979317 560.916666667 101 601 177 c 1
 629 170 l 1
 601.909278218 96.0751847998 563.005363884 18.4683882549 538.489257812 -19.9775390625 c 0
 508.313510966 -67.2988618945 467.640625 -148.391015834 467.640625 -206.689453125 c 0
 467.640625 -242.779181534 495.826784961 -274.168945312 526.834960938 -274.168945312 c 0
 547.809960937 -274.168945312 572.993960937 -265.436945313 598.834960938 -246.168945312 c 1
 598.834960938 -246.168945312 609.943822568 -256.497164572 612.633789062 -264.569335938 c 1
 585.578932221 -312.305955472 533.145209671 -347.888671875 491.565429688 -347.888671875 c 0
 442.385016588 -347.888671875 395.765625 -303.499671875 395.765625 -247.513671875 c 0
 395.765625 -172.157942368 443.587456716 -80.3722695124 506.53125 0.1865234375 c 1
 339.095538761 1.71494210433 168.066908792 9.38041107576 58 -9 c 1
 48 26 l 1
 101 36 124 49 124 77 c 1
 128 154.430970149 128 531.529850746 122 616 c 0
 121 643 116 643 43 657 c 1
 48 688 l 1
EndSplineSet
Fore
SplineSet
85.2509765625 684.215820312 m 1xd3a0
 149.500976562 681.030273438 252.91015625 679.139648438 348.677734375 679.139648438 c 0xdba0
 451.5625 679.139648438 545.676757812 681.123046875 569.581054688 687.215820312 c 1
 591.665039062 670.905273438 598.684570312 660.729492188 598.684570312 647.3359375 c 0
 598.684570312 629.392578125 580.731445312 604.849609375 578.490234375 543.140625 c 1
 524.244140625 547.313476562 l 1x9740
 517.6796875 575.799804688 544.249454602 628.417451504 528 627 c 0
 486.835684929 623.409207464 395.783870978 622.787134111 318.000002512 622.787134111 c 0
 275.521506872 622.787134111 237.00005944 623.115158618 212.721679688 623.291992188 c 0
 204.54296875 623.3515625 199.080047613 619.442644395 199 608 c 0
 198.493164063 535.548828125 200 433.189453125 199 366 c 1
 244.111328125 368.1015625 468.743190164 367.124736956 474.029296875 367.649414062 c 0
 482.559570312 368.49609375 483.287109375 397.689453125 494.129882812 429.393554688 c 1
 547.087890625 418.997070312 l 1
 538.954101562 386.731445312 535.262695312 357.520507812 535.262695312 327.434570312 c 0
 535.262695312 306.954101562 537.830078125 285.9140625 542.700195312 262.169921875 c 1
 492.89453125 248.1171875 l 1
 475.56640625 291.19140625 484.264748574 312.408093938 476.526367188 312.28125 c 0
 442.984375 311.731445312 255.364257812 311.29296875 199.275390625 311.376953125 c 1
 199.188476562 221.100585938 197.291743513 133.611129784 199.069335938 73.599609375 c 0
 199.508789062 58.763671875 206.004969341 55.555266231 212 56 c 0
 260.154296875 59.572265625 341.966796875 58.001953125 376.833984375 58.001953125 c 0
 412.94204016 58.001953125 494.307900349 57.7085362529 527 57 c 0
 548.943694196 56.5244140625 552.771428571 96 568 141 c 1
 622 126 l 1
 605 38 581 11 549.630859375 0.54296875 c 0
 443.542188116 -33.6405705147 431 -79.8154717663 431 -98 c 0
 431 -112.439188802 449.981583761 -121 474 -121 c 0
 494.092658674 -121 518.21737778 -112.454966883 542.97265625 -93.599609375 c 1
 542.97265625 -93.599609375 563.92554694 -120.203078613 569 -141 c 1
 545.968797867 -166.004842105 507.165920351 -177 471.771484375 -177 c 0
 419.146786438 -177 372.561523438 -148.506528262 372.561523438 -100.834960938 c 0
 372.561523438 -67.7546141887 388.488613778 -31.2149767541 425.964089813 0.114130003806 c 1
 387.886629996 1.45827568296 349.893760458 3.3037109375 312.853515625 3.3037109375 c 0xbba0
 233.0859375 3.3037109375 158.16796875 0.09765625 97.078125 -13.8818359375 c 1
 87 41 l 1
 125.3203125 48.6240234375 143.080078125 51.0830078125 143.092773438 59.1767578125 c 0
 143.387695312 97.6572265625 143.561523438 225.0078125 143.561523438 345.940429688 c 0
 143.561523438 482.026411314 143.380474775 607.653380628 143.216796875 619.430664062 c 0
 143.131835938 625.543945312 142.502929688 626.177734375 81.6806640625 628.421875 c 1
 85.2509765625 684.215820312 l 1xd3a0
EndSplineSet
Position2: "cpsp-1" dx=0 dy=0 dh=50 dv=100
Substitution2: "c2pc-1" eogonek.pcap
Substitution2: "c2sc-1" eogonek.smcp
EndChar
StartChar: eogonek
Encoding: 281 281 315
Width: 506
UnlinkRmOvrlpSave: 1
Flags: HW
HStem: -326 60.1279<291.116 366.674>
VStem: 204.562 69.21<-249.43 -117.14>
AnchorPoint: "Top" 209 465 basechar 0
LayerCount: 2
Fore
SplineSet
377.630859375 33.54296875 m 1
 317 -7 279 -65.279296875 279 -95 c 3
 279 -111.322265625 289.594726562 -121 303 -121 c 3
 319.888671875 -121 340.165039062 -112.766601562 360.97265625 -94.599609375 c 1
 360.97265625 -94.599609375 381.92578125 -120.641601562 387 -141 c 1
 366.57421875 -166.004882812 332.161132812 -177 300.771484375 -177 c 3
 258.225585938 -177 220.561523438 -148.506835938 220.561523438 -100.834960938 c 3
 220.561523438 -35.166015625 276 26.689453125 353 84 c 1
 377.630859375 33.54296875 l 1
EndSplineSet
Refer: 272 101 N 1 0 0 1 0 0 3
Substitution2: "smcp-1" eogonek.smcp
Substitution2: "case-1" Eogonek
Substitution2: "pcap-1" eogonek.pcap
EndChar
StartChar: Iogonek
Encoding: 302 302 2365
Width: 453
UnlinkRmOvrlpSave: 1
Flags: HW
HStem: -177.1 78.1279<214.688 316.275> -13 55<69.2364 196.041> 4.44336 50.457<278.326 296.784> 634 55<74.6538 205.152 262.766 389.218>
VStem: 141.79 98.4385<-124.77 -33.6343> 201 57<56.248 620.751>
LayerCount: 2
Fore
SplineSet
278 6 m 1xb8
 228.56640625 -29.2099609375 212 -72.1220703125 212 -101 c 3
 212 -111.555664062 226.567382812 -121 245 -121 c 3
 271.7421875 -121 294.646484375 -112.173828125 316.201171875 -92.69921875 c 1
 316.201171875 -92.69921875 337.154296875 -119.864257812 342.228515625 -141.099609375 c 1
 319.197265625 -166.104492188 280.39453125 -177.099609375 245 -177.099609375 c 3
 197.149414062 -177.099609375 154.790039062 -148.606445312 154.790039062 -100.934570312 c 3
 154.790039062 -46.7919921875 189.092773438 16.5830078125 248.369140625 51.45703125 c 1
 278 6 l 1xb8
EndSplineSet
Refer: 2357 73 N 1 0 0 1 0 0 3
Position2: "cpsp-1" dx=0 dy=0 dh=50 dv=100
Substitution2: "c2pc-1" iogonek.pcap
Substitution2: "c2sc-1" iogonek.smcp
EndChar
StartChar: iogonek
Encoding: 303 303 447
Width: 331
UnlinkRmOvrlpSave: 1
Flags: HW
HStem: -177.1 75.1279<155.727 242.339> 624.175 109.65<153.502 250.498>
VStem: 96.79 79.4385<-124.77 -30.3803> 146.1 111.8<631.462 726.568>
LayerCount: 2
Fore
SplineSet
222.630859375 5.54296875 m 1
 181.056640625 -26.1689453125 155 -71.7529296875 155 -95 c 3
 155 -111.322265625 165.594726562 -121 179 -121 c 3
 195.888671875 -121 216.165039062 -112.766601562 236.97265625 -94.599609375 c 1
 236.97265625 -94.599609375 257.92578125 -120.641601562 263 -141 c 1
 242.57421875 -166.004882812 208.161132812 -177 176.771484375 -177 c 3
 134.225585938 -177 96.5615234375 -148.506835938 96.5615234375 -100.834960938 c 3
 96.5615234375 -51.923828125 128.318359375 -5.5048828125 174.797851562 38 c 1
 222.630859375 5.54296875 l 1
EndSplineSet
Refer: 414 105 N 1 0 0 1 0 0 3
Substitution2: "smcp-1" iogonek.smcp
Substitution2: "case-1" Iogonek
Substitution2: "pcap-1" iogonek.pcap
EndChar
StartChar: dotlessi
Encoding: 305 305 270
Width: 331
Flags: HMW
AnchorPoint: "Bottom" 167 -15 basechar 0
AnchorPoint: "Ogonek" 221 18 basechar 0
AnchorPoint: "Top" 165 537 basechar 0
LayerCount: 2
Fore
SplineSet
195 212 m 3
 195 168.306569343 195.375 106.5625 196 65 c 1
 196 57 196.822265625 54.0615234375 214 52 c 0
 231.353515625 49.9169921875 248.666992188 45.875 266 45 c 1
 261 -11 l 1
 226.522460938 -5.9228515625 187.840820312 0 150 0 c 1
 116.883789062 0 97.2216796875 -6 61 -10 c 1
 56 45 l 1
 75.205078125 47.125 103.51171875 51.724609375 121 54 c 0
 141.254882812 56.6357421875 140 57.322265625 140 80 c 0
 140 107.748046875 140 177.050420168 140 208 c 3
 140 231.493804316 140 324.491422963 140 404 c 0
 140 413.055385138 139.625 421 137 421 c 1
 129.96875 421 111.65625 411 92 406 c 1
 75 460 l 1
 113.059701492 472.090909091 130.820895523 478.136363637 160 517 c 1
 204 498 l 1
 194 483 195 441.396078054 195 421 c 0
 195 376.666826071 195 231.000382571 195 212 c 3
EndSplineSet
Substitution2: "case-1" I
Substitution2: "pcap-1" i.pcap
Substitution2: "smcp-1" i.smcp
EndChar
StartChar: OE
Encoding: 338 338 2417
Width: 1071
Flags: HW
HStem: -7 49<336.528 518.419> 3.06988 37.3024<639.125 901.73> 334 36<614 882.393> 650 44<298.396 500.529>
VStem: 37 93<266.365 448.041> 531 93<373.564 620.777> 534.995 79.0053<90.5 334 370 605.156> 906 36<248.75 306.348 394.846 442.094> 947 30<539 620.59> 1007 28<152.034 171.75>
AnchorPoint: "Bottom" 585.957 -15 basechar 0
AnchorPoint: "Top" 585.585 699 basechar 0
LayerCount: 2
Fore
SplineSet
405 634 m 0
 245 634 102 502 102 332 c 0
 102 140 263 41 414 41 c 0
 454.916754563 41 530.626360653 42.3829755046 531.010007818 64.6553388171 c 1
 531.114380925 110.289674476 532 232.130123074 532 346 c 0
 532 462.36701224 531.26788054 570.680710417 531.05650271 607.045178882 c 1
 530.865392635 627.504774933 448.922529357 634 405 634 c 0
414 -15 m 3
 242 -15 46 101 46 332 c 0
 46 534 215 690 405 690 c 3
 468.671509312 690 485.59594449 679 737 679 c 3
 840 679 934 681 958 687 c 1
 980 671 987 660 987 647 c 0
 987 629 968 605 966 543 c 1
 912 547 l 1
 905 575 931.955466161 628.556630845 916 627 c 0
 849.604658393 620.522405697 693.443753625 623 601 623 c 0
 593 623 587.152763044 618.998939197 587 608 c 0
 586 536 588 433 587 366 c 1
 632 368 856.932167443 367.436907494 862 368 c 0
 871 369 871 397 882 429 c 1
 935 419 l 1
 927 387 923 357 923 327 c 0
 923 307 926 286 931 262 c 1
 881 248 l 1
 864 291 872.996542036 312.235192413 865 312 c 0
 831 311 643 311 587 311 c 1
 587 221 587 132.008332755 587 72 c 0
 587 57 594.020725451 53.5017271209 600 54 c 0
 648 58 730 56 765 56 c 0
 803 56 886.985297297 55 921 55 c 0
 940 55 943 96 956 141 c 1
 1010 126 l 1
 995 65 991 57 979 0 c 1
 888 -3 792 1 701 1 c 3
 505.435517287 1 504.951104246 -14.9999994289 414 -15 c 3
EndSplineSet
Position2: "cpsp-1" dx=0 dy=0 dh=50 dv=100
Substitution2: "c2pc-1" oe.pcap
Substitution2: "c2sc-1" oe.smcp
EndChar
StartChar: oe
Encoding: 339 339 871
Width: 809
VWidth: 1159
UnlinkRmOvrlpSave: 1
Flags: W
HStem: -14 39<190.397 302.402> 371 45<159.168 278.592>
VStem: 32 76<120.631 292.302> 359 78<100.689 280.313>
AnchorPoint: "Top" 395 465 basechar 0
AnchorPoint: "Bottom" 393 -15 basechar 0
LayerCount: 2
Fore
SplineSet
245 520 m 3
 387.307846967 520 470 379 470 254 c 3
 470 128.573242188 383.461339614 -11 245 -11 c 3
 124.807846967 -11 20 97.99609375 20 238 c 3
 20 419 153.654067096 520 245 520 c 3
228 443 m 3
 162.461871603 443 120 387.729492188 120 269 c 3
 120 166.9453125 193.35097202 63 262 63 c 3
 331.026877332 63 366 126.66015625 366 239 c 3
 366 360.379882812 285.265764509 443 228 443 c 3
EndSplineSet
Refer: 4 101 N 1 0 0 1 345 0 2
Substitution2: "smcp-1" oe.smcp
Substitution2: "case-1" OE
Substitution2: "pcap-1" oe.pcap
EndChar
StartChar: uogonek
Encoding: 371 371 2207
Width: 563
UnlinkRmOvrlpSave: 1
Flags: HW
HStem: -324.658 60.1279<324.017 401.674> -18.7812 20G<330.052 389.615> -11 55<182 283> 338 31<302 361>
VStem: 80 76<71 327> 239.562 69.21<-251.259 -142.76> 369 65<36 52 75 331>
LayerCount: 2
Fore
SplineSet
481.630859375 -10.45703125 m 1
 421 -37.1220703125 383 -75.453125 383 -95 c 3
 383 -111.322265625 393.594726562 -121 407 -121 c 3
 423.888671875 -121 444.165039062 -112.766601562 464.97265625 -94.599609375 c 1
 464.97265625 -94.599609375 485.92578125 -120.641601562 491 -141 c 1
 470.57421875 -166.004882812 436.161132812 -177 404.771484375 -177 c 3
 362.225585938 -177 324.561523438 -148.506835938 324.561523438 -100.834960938 c 3
 324.561523438 -47.798828125 380 -3.6669921875 457 40 c 1
 481.630859375 -10.45703125 l 1
EndSplineSet
Refer: 790 117 N 1 0 0 1 0 0 3
Substitution2: "smcp-1" uogonek.smcp
Substitution2: "case-1" Uogonek
Substitution2: "pcap-1" uogonek.pcap
EndChar
StartChar: longs
Encoding: 383 383 500
Width: 341
Flags: HW
HStem: -6 36<22.6102 85.981 203.78 273.178> 1 32<180.229 270.628> 356 25<34.6102 55.9284> 701 55<262.069 365.727>
VStem: 101.61 72<42.1466 356 403 602.768>
AnchorPoint: "Top" 196.611 735 basechar 0
AnchorPoint: "Bottom" 133.611 -15 basechar 0
LayerCount: 2
Fore
SplineSet
302.611328125 749 m 3
 339.611328125 749 382.611328125 733 414.611328125 696 c 1
 418.04296875 677.875 397.986328125 657.887695312 384.611328125 650 c 1
 356.782226562 674.62109375 338.0546875 692 305.611328125 692 c 3
 281.280273438 692 174.592773438 656.477539062 163.611328125 556 c 0
 156.975585938 495.299804688 163.611328125 358.142578125 163.611328125 304 c 3
 163.611328125 229.233398438 163.611328125 125 163.611328125 82 c 0
 163.611328125 55.787109375 164.662109375 56.732421875 197.611328125 54 c 0
 223.634765625 51.841796875 253.579101562 50 279.611328125 48 c 1
 274.611328125 -8 l 1
 231.611328125 -3 171.611328125 1 122.611328125 1 c 1
 91.9072265625 1 43.5244140625 -4 15.611328125 -7 c 1
 13.611328125 47 l 1
 34.7314453125 50 58.146484375 54.6962890625 79.611328125 56 c 0
 107.611328125 57.7001953125 107.611328125 57.1533203125 107.611328125 74 c 0
 107.611328125 131.541992188 107.611328125 210.83203125 107.611328125 280 c 3
 107.611328125 307.443359375 107.611328125 390.6875 107.611328125 441 c 1
 85.79296875 441 62.15625 441 37.611328125 441 c 5
 37.611328125 498 l 5
 61.259765625 499.301757812 86.7998046875 498.006835938 107.611328125 498 c 1
 106.944335938 533.592773438 106.611328125 544.779296875 106.611328125 558 c 3
 106.611328125 606 137.842773438 661.184570312 182.611328125 697 c 0
 212.611328125 721 265.611328125 749 302.611328125 749 c 3
EndSplineSet
Substitution2: "case-1" S
Substitution2: "pcap-1" s.pcap
Substitution2: "smcp-1" s.smcp
EndChar
StartChar: uni0181
Encoding: 385 385 1988
Width: 723
VWidth: 1159
Flags: W
HStem: -4 38<156 230.426 332.57 522.69> 349 30<322 461.635> 349 20<475 540> 487 21G<51.5 84.5> 653 41<334.972 467.268> 653 33<129.543 241.563>
VStem: 7 89<522.409 604.952> 240 80<45.6349 349> 527 90<447.929 586.24> 598 90<100.26 258.491>
LayerCount: 2
Fore
SplineSet
421 381 m 0xdb80
 490 391 527 440 527 499 c 3
 527 537 508 653 403 653 c 3
 389 653 364 651 355 649 c 0
 333 644 331 624 330 614 c 0
 320 501 322 379 322 379 c 1
 404 379 411 380 421 381 c 0xdb80
397 349 m 0
 320 349 l 9
 321 251 321 155 323 96 c 0
 324 59 329 47 355 41 c 0
 365 39 410 34 436 34 c 3
 528 34 598 83 598 178 c 3xb340
 598 262 540 349 397 349 c 0
196 653 m 3xb740
 155 653 96 634 96 592 c 3
 96 571 111 554 135 537 c 1
 123 506 98 487 71 487 c 3
 32 487 7 515 7 544 c 3
 7 621 108 686 189 686 c 3xb740
 200 686 209 684 263 684 c 3
 316 684 371 694 421 694 c 3
 576 694 617 578 617 518 c 3x9b80
 617 447 567 402 475 369 c 1
 598 363 688 278 688 181 c 3
 688 70 586 -4 427 -4 c 3
 374 -4 324 2 267 2 c 3
 208 2 163 -2 156 -2 c 1
 153 34 l 1
 200 36 235 36 237 73 c 0
 237 78 240 176 240 292 c 3
 240 461 233 605 232 614 c 0
 231 624 220 653 196 653 c 3xb740
EndSplineSet
Validated: 33
EndChar
StartChar: Ohorn
Encoding: 416 416 2406
Width: 835
UnlinkRmOvrlpSave: 1
Flags: HW
HStem: -15 56<295.518 524.569> 594.133 32.8672<628.548 720.679> 634 56<301.288 517.476>
VStem: 48.168 56<221.25 442.054> 714.168 56<223.429 440.074> 754.168 88.6436<675.042 757.455>
AnchorPoint: "Top" 420.168 699 basechar 0
AnchorPoint: "Bottom" 416.168 -15 basechar 0
AnchorPoint: "Middle" 417.865 364.853 basechar 0
LayerCount: 2
Fore
SplineSet
789.16796875 686 m 3xf4
 789.16796875 693.4453125 787.66796875 705.071289062 782.16796875 709 c 1
 786.16796875 724 801.315429688 733 812.16796875 733 c 3
 832.985351562 733 845 715.403320312 845 686.196289062 c 3
 845 608.349609375 752.110351562 553.314453125 677.950195312 553.314453125 c 3
 655.390625 553.314453125 638.252929688 555.923828125 624.4375 560.771484375 c 1
 615.306640625 570.870117188 588.934570312 620.385742188 584.705078125 639.822265625 c 1
 613.076171875 623.899414062 650.90234375 608.948242188 679.33203125 608.948242188 c 3
 731.177734375 608.948242188 789.16796875 655 789.16796875 686 c 3xf4
EndSplineSet
Refer: 2400 79 N 1 0 0 1 0.167969 0 2
Position2: "cpsp-1" dx=0 dy=0 dh=50 dv=100
Substitution2: "c2pc-1" ohorn.pcap
Substitution2: "c2sc-1" ohorn.smcp
EndChar
StartChar: ohorn
Encoding: 417 417 571
Width: 594
UnlinkRmOvrlpSave: 1
Flags: HW
HStem: 330 18<-74.0107 -36.9541>
VStem: 23.3711 62.7432<400.38 466.056>
AnchorPoint: "Bottom" 278.489 -15 basechar 0
AnchorPoint: "Top" 275.489 537 basechar 0
LayerCount: 2
Fore
SplineSet
379.369140625 496.864257812 m 1
 403.252929688 483.794921875 435.096679688 471.524414062 459.029296875 471.524414062 c 3
 502.510742188 471.524414062 560.489257812 510.119140625 560.489257812 539 c 3xf4
 560.489257812 545.474609375 559.456054688 555.6015625 551.489257812 559 c 1
 560.395507812 576.215820312 573.189453125 586 585.489257812 586 c 3
 604.834960938 586 616 569.803710938 616 539.022460938 c 3
 616 468.252929688 531.5546875 418.220703125 464.13671875 418.220703125 c 3
 443.627929688 418.220703125 428.048828125 420.592773438 415.489257812 425 c 1
 407.188476562 434.180664062 383.213867188 479.194335938 379.369140625 496.864257812 c 1
EndSplineSet
Refer: 545 111 N 1 0 0 1 0.489258 0 2
Substitution2: "smcp-1" ohorn.smcp
Substitution2: "case-1" Ohorn
Substitution2: "pcap-1" ohorn.pcap
EndChar
StartChar: Uhorn
Encoding: 431 431 2453
Width: 824
UnlinkRmOvrlpSave: 1
Flags: HW
HStem: -10 54<307.477 561.43> 650 40<24.125 104.17 214.225 299.778>
VStem: 109 87<142.768 548.313> 114 90<339.122 637.531> 674 55<149.172 589.445> 675 61<264.986 633.624> 835.914 95.1875<693.753 774.81>
AnchorPoint: "Top" 431 679 basechar 0
AnchorPoint: "Bottom" 428 -15 basechar 0
LayerCount: 2
Fore
SplineSet
796.526367188 613.262695312 m 1
 751.526367188 613.262695312 723 618.063250129 723 604 c 0
 723 591 726.683806925 474.020747052 724 262 c 0
 723 183 695.151697687 125.873178011 655 78 c 0
 603 16 522 -13 427 -13 c 3
 311 -13 233.0498902 22.0463680346 181 78 c 0
 141 121 124.676662092 177.981751303 121 246 c 0
 119 283 120.765165413 594.939338347 117 610 c 0
 114 622 103 622 51 627 c 1
 58 683 l 1
 86 678 131 676 177 676 c 3
 210 676 245 678 270 682 c 1
 277 628 l 1
 200 614 174.066361196 624.004582057 175 610 c 0
 176 595 178 401 178 267 c 0
 178 202 183.4971911 154.5028089 228 110 c 0
 264 74 316 42 428 42 c 3
 488 42 557.213765166 56.7913013141 607 108 c 0
 642 144 665.266524925 183.993621644 667 262 c 0
 669 352 669 516.994623811 669 610 c 0
 669 624 644 618 582 631 c 1
 584 686 l 1
 633.810344828 677.5 722.362068966 669 798 669 c 3
 837.429458292 669 889.280273438 676.54689669 889.280273438 712.12109375 c 0
 889.280273438 717.736678232 889.400960208 724.135754972 881 730 c 1
 891.544712031 745.227738377 903.248155054 753 914 753 c 0
 934.100605219 753 945.194335938 732.782860293 945.194335938 712.498046875 c 3
 945.194335938 640.170251713 864.580078125 614.293868888 796.526367188 613.262695312 c 1
EndSplineSet
Position2: "cpsp-1" dx=0 dy=0 dh=50 dv=100
Substitution2: "c2pc-1" uhorn.pcap
Substitution2: "c2sc-1" uhorn.smcp
EndChar
StartChar: uhorn
Encoding: 432 432 810
Width: 539
UnlinkRmOvrlpSave: 1
Flags: HW
HStem: -11 55<175.733 263.795> 338 31<292 351.243> 402 20G<128 167>
VStem: 70 76<75.1633 330.249> 359 64<36.0058 52 76.9705 331.63> 493.501 86.0273<404.739 481.559>
AnchorPoint: "Top" 278 537 basechar 0
AnchorPoint: "Ogonek" 428 18 basechar 0
AnchorPoint: "Bottom" 277 -15 basechar 0
LayerCount: 2
Fore
SplineSet
418 471 m 1
 436.151176082 474.872718085 458.351754636 478.212909995 478.540039062 483.524414062 c 1
 539 494 580 523.970613634 580 543 c 3xf4
 580 549.150501355 579.304003634 557.971833122 572 562 c 1
 580.382148728 574.752367958 592.424053583 582 604 582 c 3
 623.979753391 582 635.510742188 570.583831904 635.510742188 543.022460938 c 3
 635.510742188 473.880913922 555 437 472 425 c 1
 456.401545719 425 444.552484191 425 435 429 c 1
 431.093221943 434.365309671 419.809527672 460.67312189 418 471 c 1
360 464 m 1
 400.904661367 468.690665925 445.148478763 477.698590463 478.540039062 483.524414062 c 1
 484 442 l 1
 464.17281106 403.724984786 459 172.591951137 459 128 c 3
 459 107.604903991 459 87.2098765435 461 69 c 1
 464.333333333 58 468 56 475 56 c 3
 482.674418604 56 498.790697674 68.3636363635 508 73 c 1
 530 22 l 1
 514.515151515 13.5641848524 478.110768181 -9.09994765366 457 -17 c 0
 454.683015256 -17.8670599102 444.625 -22 439 -22 c 3
 416.713072708 -22 407.875725339 33.3142857142 404 66 c 1
 349.811764706 35.3793103448 276.023529411 -8 208 -8 c 3
 164.338983051 -8 119.779661017 14 96 53 c 1
 79 84 72 115.990385504 72 168 c 3
 72 230.915490103 71 268 75 390 c 1
 75 396 74 399 70 399 c 3
 64.1860465117 399 38.6046511627 382.82352941 20 374 c 1
 4 432 l 1
 32.8986486487 439.831168831 59.1013513516 463.025974026 95 499 c 1
 138 471 l 1
 127.239130435 390.273722628 127 261.996350365 127 168 c 3
 127 91.6850204463 151.746031746 49 209 49 c 3
 264.236111111 49 353.152777777 101.023440317 403 130 c 1
 408 341 417 395.231980539 417 405 c 3
 417 421.833316535 410.608695652 418.363636364 375 410 c 1
 360 464 l 1
EndSplineSet
Substitution2: "smcp-1" uhorn.smcp
Substitution2: "case-1" Uhorn
Substitution2: "pcap-1" uhorn.pcap
EndChar
StartChar: uni01EA
Encoding: 490 490 922
Width: 818
UnlinkRmOvrlpSave: 1
Flags: HW
HStem: -346.889 73.7197<408.804 475.852> -15 56<295.35 524.401> 634 56<301.12 517.308>
VStem: 48 56<221.25 442.054> 317.766 71.875<-253.641 -127.154> 714 56<223.429 440.074>
AnchorPoint: "Middle" 417.697 364.853 basechar 0
AnchorPoint: "Top" 420 699 basechar 0
LayerCount: 2
Fore
SplineSet
525.98046875 2.884765625 m 1
 428.106445312 -29.78125 413.349609375 -73.0419921875 413.349609375 -95.658203125 c 3
 413.349609375 -111.352539062 429.241210938 -120.658203125 449.349609375 -120.658203125 c 3
 475.734375 -120.658203125 498.208007812 -111.801757812 519.322265625 -92.2578125 c 1
 519.322265625 -92.2578125 540.275390625 -119.422851562 545.349609375 -140.658203125 c 1
 522.318359375 -165.663085938 483.515625 -176.658203125 448.12109375 -176.658203125 c 3
 399.740234375 -176.658203125 356.911132812 -146.66796875 356.911132812 -96.4931640625 c 3
 356.911132812 -44.3251953125 397.028320312 18.7392578125 500.349609375 52.341796875 c 1
 525.98046875 2.884765625 l 1
EndSplineSet
Refer: 2400 79 N 1 0 0 1 0 0 3
Position2: "cpsp-1" dx=0 dy=0 dh=50 dv=100
EndChar
StartChar: uni01EB
Encoding: 491 491 923
Width: 570
UnlinkRmOvrlpSave: 1
Flags: HW
HStem: -326 60.1279<282.366 360.024> -11 56<197.407 372.078> 461 56<208.623 373.762>
VStem: 30 56<152.781 332.952> 197.912 69.209<-252.6 -139.048> 484 56<165.478 347.309>
AnchorPoint: "Top" 251 465 basechar 0
LayerCount: 2
Fore
SplineSet
388.630859375 12.54296875 m 1
 328 -14.1220703125 289 -75.453125 289 -95 c 3
 289 -111.322265625 299.594726562 -121 313 -121 c 3
 329.888671875 -121 350.165039062 -112.766601562 370.97265625 -94.599609375 c 1
 370.97265625 -94.599609375 391.92578125 -120.641601562 397 -141 c 1
 376.57421875 -166.004882812 342.161132812 -177 310.771484375 -177 c 3
 268.225585938 -177 230.561523438 -148.506835938 230.561523438 -100.834960938 c 3
 230.561523438 -47.798828125 287 17.3330078125 364 61 c 1
 388.630859375 12.54296875 l 1
EndSplineSet
Refer: 545 111 N 1 0 0 1 0 0 3
Substitution2: "case-1" uni01EA
EndChar
StartChar: uni0237
Encoding: 567 567 52
Width: 242
Flags: HMW
AnchorPoint: "Top" 134 537 basechar 0
LayerCount: 2
Back
SplineSet
54.161210353 390.840437009 m 1
 34.7671948214 443.37492246 l 1
 61.0344375467 453.071930225 l 0
 79.230912858 459.789474364 94.1300230215 471.147301578 113.819991563 497.390196241 c 0
 163.333647493 563.382259873 l 1
 164.27444196 475.341003065 l 1
 163.856058102 459.433432695 163.529639661 446.853289245 163.326225481 431.881313905 c 1
 162.669123662 388.430848543 162 278.046487545 162 257 c 0
 162 77 l 0
 162 11.1886391722 147.993027968 -28.7000809445 122.944842931 -58.3274835297 c 0
 97.7099600077 -88.1757154265 63.4816211501 -109.411111997 40.8635791015 -128.113761651 c 1
 33.5913386895 -134.173900783 23.8524641284 -146.739956584 19.9788411318 -156.94039411 c 0
 10.0384470222 -183.116500866 l 1
 -42.3137664915 -163.235712647 l 1
 -32.3733723818 -137.05960589 l 0
 -32.0183583065 -136.124744935 -33.3733723818 -137.05960589 -32.3733723818 -137.05960589 c 1
 -24.1007132491 -115.27515688 -9.72165758049 -97.3723378835 5.09540527352 -85.0249102236 c 1
 31.9378020185 -62.8291807644 62.8236981769 -42.7020196772 80.1801570687 -22.1725164703 c 0
 95.2634526699 -4.33174795021 106 18.1023199374 106 77 c 0
 106 257 l 0
 106 276.209282147 106.503773251 361.818726991 107.086963988 413.661857802 c 1
 98.7667891793 408.492017169 89.6780552252 403.952095668 80.4284530783 400.537444775 c 0
 54.161210353 390.840437009 l 1
EndSplineSet
Fore
SplineSet
-36 -175 m 1
 -31 -121.715447154 -12.3447333145 -92.7793884811 34 -62 c 0
 59.9411764706 -44.7714285714 85.0696859121 -24.8257852198 97 5 c 0
 105 25 106 57.8372093023 106 147 c 3
 106 274.245278149 107 354.958554333 107 387 c 0
 107 406.652002021 103.0625 408 100 408 c 3
 94.7586206897 408 72.4827586207 396.333333333 62 394 c 1
 42 447 l 1
 76.7368421053 456.276923077 95.0526315789 468.646153846 126 514 c 1
 171 498 l 1
 164.647460938 481 163 447.09890484 163 428 c 0
 163 388 162 275.027756377 162 257 c 3
 162 183.757155227 162 92 162 57 c 3
 162 4 143.904313364 -31.024225997 123 -57 c 0
 98.857142857 -87 63.3732071672 -110.188994027 42 -128 c 0
 30 -138 17 -156 18 -175 c 1
 -36 -175 l 1
EndSplineSet
EndChar
StartChar: uni025B
Encoding: 603 603 1064
Width: 444
Flags: HW
HStem: -15 51<144.569 275.805> 189 29<188.267 275.734> 367 50<126.125 237.259>
VStem: 28 81<68.003 143.972> 47 66<264.248 348.557>
AnchorPoint: "Bottom" 243 -15 basechar 0
AnchorPoint: "Top" 252 537 basechar 0
LayerCount: 2
Back
SplineSet
381.670869539 62.0652103288 m 1
 396.443578337 38.279351615 l 1
 356.759133738 13.6324910184 304.520030738 -12 250 -12 c 0
 121.325443419 -12 34.7197265625 55.0300647114 34.7197265625 141.639648438 c 0
 34.7197265625 176.042883773 70.3586256044 226.969182729 127.994319558 248.002681372 c 1
 78.3436947145 274.672790967 58.2802734375 318.63540466 58.2802734375 350.16015625 c 0
 58.2802734375 444.512505051 158.543454553 515.080078125 269.080078125 515.080078125 c 0
 318.989263051 515.080078125 369.750290591 495.751141211 405.236252722 472.777948247 c 1
 390.0197604 449.273515443 l 1
 374.803268078 425.76908264 l 1
 347.618784774 443.367996212 304.320694184 459.080078125 269.080078125 459.080078125 c 0
 176.763259219 459.080078125 114.280273438 400.235655204 114.280273438 350.16015625 c 0
 114.280273438 341.14266347 122.473250248 314.536028851 154.380470214 297.396887984 c 0
 169.649686524 289.194943422 178.791982163 284.921692968 196.646793007 281.504243624 c 0
 214.137187932 278.156544274 241.083903198 276.165533018 285.753912782 275.926503706 c 0
 298.121264802 276.136688465 304.062875703 276.120535801 315.304329849 275.998346082 c 1
 315.239307499 220.001022663 l 1
 305.448123774 219.917337332 295.191080499 219.892716477 286.108216621 219.924025937 c 0
 251.743588439 219.286451978 226.996014255 216.697622883 206.185434874 212.626190181 c 0
 185.117148672 208.504339086 167.516295962 202.813255075 146.726794905 195.226360354 c 0
 113.386929506 183.059351239 92.9945073661 150.527995401 90.7229407017 140.939302569 c 0
 91.3248038154 98.9763710776 136.678781045 44 250 44 c 0
 286.581672438 44 331.061192502 63.5937647183 366.89816074 85.8510690426 c 1
 381.670869539 62.0652103288 l 1
EndSplineSet
Fore
SplineSet
392 415 m 1xe8
 353.691056911 441 315.276422764 459 268 459 c 3
 186.076923078 459 115 417.8 115 356 c 3xe8
 115 338.293191787 134 273 309 283 c 1
 309 263.689655172 307.5 244.379310345 306 227 c 1
 105 229.278481013 92 144.789556962 92 137 c 3
 92 87.3999999996 160.260869565 44 249 44 c 3
 302.884210526 44 356.863157895 78.5000000001 390 99 c 1
 420.400390625 54.080078125 l 1
 382.533637153 27.7789884868 316.823682598 -12 250 -12 c 3
 121.391005479 -12 34.7197265625 54.9321240718 34.7197265625 141.639648438 c 3xf0
 34.7197265625 176.751261753 70 233.683720033 128 255 c 1
 78.2001953125 281.441452206 58.2802734375 325.911167279 58.2802734375 357.16015625 c 3
 58.2802734375 447.400111607 158.720180377 515.080078125 269.080078125 515.080078125 c 3
 325.974975586 515.080078125 384.055183411 490.279932776 420.799804688 461.759765625 c 1
 415.991746215 430.93267554 418.436562176 431.431820732 392 415 c 1xe8
EndSplineSet
Substitution2: "case-1" uni0190
EndChar
StartChar: uni025E
Encoding: 606 606 1066
Width: 457
Flags: HW
HStem: -10 39<199.926 333.754> 189.653 28.7432<251 300.62> 375 45<168.903 316.235>
VStem: 32 76<131.211 292.037> 359 70<63.6298 153.501 255.841 335.883>
LayerCount: 2
Fore
SplineSet
256 -10 m 3
 131 -10 32 72 32 195 c 3
 32 352 167 420 257 420 c 3
 359.752604167 420 429 372.079101563 429 310 c 3
 429 280.885091146 399 225.505617978 348 216 c 1
 405.857142857 194.517420015 429 158.387872024 429 133 c 3
 429 51.2858557735 346.571037046 -10 256 -10 c 3
265 29 m 3
 330.076812744 29 359 57.8 359 101 c 3
 359 135.928803609 341.820019523 172.214212975 251 189.653320312 c 1
 251 218.396484375 l 1
 350.197856212 227.688833356 356 253.920806974 356 293 c 3
 356 336.732666016 303.826544944 375 236 375 c 3
 156 375 108 305 108 228 c 3
 108 125 178 29 265 29 c 3
EndSplineSet
EndChar
StartChar: uni0264
Encoding: 612 612 2000
Width: 430
Flags: HW
HStem: -9 50<183.739 295.919> 366 55<59.6055 118.799 310.075 380.688>
VStem: 82 54<91.09 176.189> 311 57<64.2573 153.791>
LayerCount: 2
Fore
SplineSet
136 157 m 3
 136 99.3131264741 181.992647456 41 250 41 c 3
 290.737970524 41 311 72.0191731771 311 100 c 3
 311 162.693332891 132.039967257 366 76 366 c 3
 57.5263671875 366 49.89453125 344.5 39 323 c 5
 12 340 l 1
 33.77734375 378.368164062 71.568359375 421 110 421 c 3
 168.353231691 421 368 209.759676558 368 135 c 3
 368 64.0301067073 300.237633168 -9 227 -9 c 3
 145.717103085 -9 82 25.2858664773 82 111 c 3
 82 193.690948487 279.862068966 421 370 421 c 3
 391.375 421 413.1953125 401 427 378 c 1
 426 351 425 353 370 321 c 1
 356.516601562 341 338.064453125 361 326 361 c 3
 277.927422833 361 136 204.708235981 136 157 c 3
EndSplineSet
EndChar
StartChar: uni0269
Encoding: 617 617 1977
Width: 241
VWidth: 1159
Flags: W
HStem: -22 58<108.792 187.913> 335 29<22 43.5363> 396 20G<121.395 168>
VStem: 81 68.8311<59.3695 307.05>
LayerCount: 2
Fore
SplineSet
174 36 m 3
 189.416992188 36 208.200195312 45.9169921875 231 53 c 1
 237 22 l 1
 204.38671875 11.806640625 156.021484375 -22 126 -22 c 3
 91.5830078125 -22 72.7353515625 6.77734375 72.7353515625 58.0830078125 c 3
 72.7353515625 84.619140625 81 169.909179688 81 199 c 3
 81 219 82.7509765625 288.497070312 76 308 c 0
 67 334 62 336 44 336 c 3
 34 336 31 335 22 335 c 1
 20 364 l 1
 57.8955078125 371 95.7900390625 375 147 416 c 1
 168 401 l 1
 150.568359375 338.24609375 149.831054688 247.377929688 149.831054688 170 c 3
 149.831054688 114.548828125 156.263671875 36 174 36 c 3
EndSplineSet
Validated: 33
EndChar
StartChar: uni0292
Encoding: 658 658 1076
Width: 424
Flags: HW
HStem: -353 55<152.064 266.477> 68.4932 58.1328<129.339 252.123> 362 33<65.7275 306> 392 20G<34.8713 51.5576>
VStem: 6 26<308.846 327.358> 361 57<-198.185 -37.3186>
AnchorPoint: "Top" 210.5 465 basechar 0
LayerCount: 2
Fore
SplineSet
418 -113 m 3xec
 418 -180.474609375 375.249023438 -253.1640625 315 -301 c 0
 276 -329 239 -353 180 -353 c 3
 133.64453125 -353 61.21484375 -335 25 -299 c 1
 26 -272 25 -272 74 -235 c 1
 130.333007812 -262 175.111328125 -298 230 -298 c 3
 323.27734375 -298 361 -186.76953125 361 -117 c 3
 361 -4.322265625 256.768554688 68.4931640625 165.169921875 68.4931640625 c 3
 134.966796875 68.4931640625 104.28515625 62.6162109375 76 50 c 1
 69 80 l 1
 152.599609375 164.823242188 235.38671875 262 306 360 c 1
 275.876953125 361 247.123046875 362 217 362 c 3xec
 177.34765625 362 141.844726562 361.19921875 103 357 c 0
 66 353 42 334 32 303 c 1
 6 311 l 1
 42 412 l 1xdc
 61.115234375 400 86.3115234375 395 201 395 c 3
 296.874023438 395 375.03125 394 399 401 c 1
 409 381 l 1
 337.888671875 298.025390625 255.780273438 214.317382812 192 124 c 1
 201.612304688 125.752929688 211.33984375 126.625976562 221.081054688 126.625976562 c 3
 318.807617188 126.625976562 418 44.87109375 418 -113 c 3xec
EndSplineSet
EndChar
StartChar: uni0295
Encoding: 661 661 1982
Width: 262
VWidth: 1159
Flags: W
HStem: -5 33<17.2188 83.1896 185.339 249.303> 710 60<72.0077 192.847>
VStem: -62 62<475.677 629.097> 102 69<41.88 327.815>
LayerCount: 2
Fore
SplineSet
40 357.729492188 m 0
 8.26086403183 380.681571882 -62 429.361052298 -62 531 c 3
 -62 661 44.2360515021 770 161 770 c 3
 209 770 258 750 289 727 c 1
 288 700 287 702 232 670 c 1
 194 690 142 710 108 710 c 3
 38 710 0 654 0 568 c 3
 0 508.016590879 23.0558848429 458.600492805 60.4697265625 427 c 0
 87.1138564576 404.495825172 171 376.026365467 171 287 c 3
 171 217.732421875 171 131.343794517 171 76 c 4
 173.888671875 48.078125 186.000044097 39.0001690342 209 33 c 4
 221.280299831 30.177734375 238.513513514 29 251 28 c 1
 249 -5 l 1
 219 -1 173 4 143 4 c 3
 101 4 57 -1 18 -7 c 1
 13 27 l 1
 25.5416666667 28 41.6667425799 28.9996610538 56 33 c 4
 66.8466796875 35.7119140625 85.8535897389 39.0200156679 88 54 c 4
 99.5139973958 84.6626125819 102 189.333621895 102 257 c 3
 102 329.530975427 68.1201568463 337.394468525 40 357.729492188 c 0
EndSplineSet
Validated: 1
EndChar
StartChar: gravecomb
Encoding: 768 768 392
Width: 0
Flags: HW
HStem: 574 189.38
VStem: -331.611 215.611
AnchorPoint: "TopMark" -185 768 basemark 0
AnchorPoint: "TopMark" -180 537 mark 0
AnchorPoint: "Top" -174 537 mark 0
LayerCount: 2
Fore
SplineSet
-116 613.625 m 1
 -148.611328125 574 l 1
 -205.611328125 626 -276.611328125 684 -331.611328125 718 c 1
 -320.611328125 736 -300.400390625 763.379882812 -300.400390625 763.379882812 c 1
 -238.754858444 725.712153957 -157.2631078 657.84751608 -116 613.625 c 1
EndSplineSet
EndChar
StartChar: acutecomb
Encoding: 769 769 15
Width: 0
Flags: HW
HStem: 574 189.38
VStem: -232.611 215.611
AnchorPoint: "Top" -174 537 mark 0
AnchorPoint: "TopMark" -180 537 mark 0
AnchorPoint: "TopMark" -185 768 basemark 0
LayerCount: 2
Fore
SplineSet
-232.611328125 613.625 m 1
 -191.348220325 657.84751608 -109.856469681 725.712153957 -48.2109375 763.379882812 c 1
 -48.2109375 763.379882812 -28 736 -17 718 c 1
 -72 684 -143 626 -200 574 c 1
 -232.611328125 613.625 l 1
EndSplineSet
EndChar
StartChar: uni0302
Encoding: 770 770 93
Width: 0
VWidth: 1159
Flags: W
HStem: 564 155.801
VStem: -330.7 312.5
AnchorPoint: "TopMark" -179 768 basemark 0
AnchorPoint: "TopMark" -180 537 mark 0
AnchorPoint: "Top" -174 537 mark 0
LayerCount: 2
Back
SplineSet
-22.5791628735 603.600893891 m 1
 -58.2251843525 560.411066932 l 1
 -174.945141103 656.743985547 l 1
 -290.577789498 560.457968623 l 1
 -326.411745236 603.491997207 l 1
 -175.103687022 729.484530078 l 1
 -44.1740763529 621.423904631 l 1
 -45.1740763529 621.423904631 -43.4028294429 620.787368533 -44.1740763529 621.423904631 c 0
 -22.5791628735 603.600893891 l 1
EndSplineSet
Fore
SplineSet
-18.2001953125 600.200195312 m 1
 -61 564 l 1
 -174.950195312 656.981445312 l 1
 -287.900390625 564 l 1
 -330.700195312 600.200195312 l 1
 -186.900390625 719.80078125 l 1
 -163 719.80078125 l 1
 -18.2001953125 600.200195312 l 1
EndSplineSet
Validated: 1
EndChar
StartChar: tildecomb
Encoding: 771 771 100
Width: 0
Flags: HW
HStem: 581 63.4082<-156.037 -91.1244> 631.746 63.2539<-248.32 -180.195>
VStem: -317.416 294.106
AnchorPoint: "TopMark" -185 768 basemark 0
AnchorPoint: "TopMark" -180 537 mark 0
AnchorPoint: "Top" -174 537 mark 0
LayerCount: 2
Back
SplineSet
-269.14872957 577.353928952 m 1
 -318.004469486 604.723924883 l 1
 -304.31947152 629.151794841 l 0
 -298.385661367 639.743710393 -271.548553415 694.630859375 -226.430664062 694.630859375 c 0
 -173.021281198 694.630859375 -128.590580903 657.375 -113.5390625 657.375 c 0
 -110.032686722 657.375 -96.3274349072 671.790715679 -83.9420909372 698.09692918 c 0
 -72.0150836325 723.429645117 l 1
 -21.3496517581 699.575630507 l 1
 -33.2766590628 674.24291457 l 0
 -33.7026236094 673.338174715 -34.2766590628 674.24291457 -33.2766590628 674.24291457 c 1
 -41.7412247585 656.264352738 -62.0519257391 601.375 -113.5390625 601.375 c 0
 -162.337379279 601.375 -202.750085465 637.539623004 -225.130797442 638.603494435 c 1
 -231.34162977 635.406835465 -249.949135656 611.625412554 -255.463731605 601.781798909 c 1
 -254.463731605 601.781798909 -255.952481532 600.909374982 -255.463731605 601.781798909 c 0
 -269.14872957 577.353928952 l 1
EndSplineSet
Fore
SplineSet
-317.416015625 601.708984375 m 1x60
 -292 663 -260.014702703 695 -226 695 c 3x60
 -179.638146278 695 -137.276795394 644.408203125 -115.815429688 644.408203125 c 3
 -100.215271394 644.408203125 -85.7889345927 671.332776598 -74.59375 704.178710938 c 1
 -23.3095703125 680.893554688 l 1
 -42 625 -65.9891317187 581 -114 581 c 3xa0
 -160.23493223 581 -193.910272762 631.74609375 -224.263671875 631.74609375 c 3
 -236.089762674 631.74609375 -255.489903949 603.399593162 -267 578 c 1
 -317.416015625 601.708984375 l 1x60
EndSplineSet
EndChar
StartChar: uni0306
Encoding: 774 774 105
Width: 0
VWidth: 1159
Flags: W
HStem: 576 55.7188<-241.124 -108.637>
VStem: -327.152 48.0801<668.953 688.834> -69.876 48.0811<669.969 688.834>
AnchorPoint: "Top" -174 537 mark 0
AnchorPoint: "TopMark" -180 537 mark 0
AnchorPoint: "TopMark" -179 768 basemark 0
LayerCount: 2
Back
SplineSet
-69.1360306926 710.75141418 m 1
 -19.0765308869 685.650687513 l 1
 -31.6268942203 660.62093761 l 0
 -60.0128278418 604.009602908 -117.565141541 576 -175 576 c 0
 -233.128798976 576 -290.234318973 604.901165325 -317.630951778 660.715399889 c 0
 -329.968682567 685.85064206 l 1
 -279.698198225 710.526103637 l 1
 -267.360467436 685.390861466 l 0
 -250.711039318 651.471543972 -215.323927496 632 -175 632 c 0
 -134.932250759 632 -99.2032114911 650.787093174 -81.686394026 685.721664277 c 0
 -69.1360306926 710.75141418 l 1
EndSplineSet
Fore
SplineSet
-327.15234375 685.375 m 1
 -279.072265625 709.135742188 l 1
 -264.143274579 657.579105459 -219.575301308 631.71875 -174.861328125 631.71875 c 3
 -130.240051195 631.71875 -85.4747733721 657.47047703 -69.8759765625 709.135742188 c 1
 -21.794921875 685.375 l 1
 -43.9987530778 612.458 -109.600301999 576 -175 576 c 3
 -240.467693038 576 -305.733900966 612.458 -327.15234375 685.375 c 1
EndSplineSet
Validated: 1
EndChar
StartChar: hookabovecomb
Encoding: 777 777 748
Width: 0
VWidth: 1159
Flags: W
HStem: 632 25<-238.461 -208.052>
VStem: -249 40<476.234 536.043> -195 48.5<551.957 627.828>
AnchorPoint: "Top" -221.5 444 mark 0
AnchorPoint: "TopMark" -219.5 639 basemark 0
AnchorPoint: "TopMark" -221.5 445 mark 0
LayerCount: 2
Fore
SplineSet
-295.5 596 m 1
 -289.5 633 -252.272 657 -216 657 c 3
 -173.488 657 -146.5 621.619 -146.5 595 c 3
 -146.5 532.726 -209 543.372 -209 515 c 3
 -209 499.445 -204.471 487.206 -198 480 c 9
 -221 463 l 1
 -231.267 473.411 -249 495.923 -249 516 c 3
 -249 554.67 -195 548.635 -195 571 c 3
 -195 597.453 -205.445 632 -229 632 c 3
 -239.848 632 -242.056 609.034 -241.5 587.6 c 1
 -252.77 587.6 -282.822 587.6 -295.5 596 c 1
EndSplineSet
Validated: 33
EndChar
StartChar: uni0314
Encoding: 788 788 694
Width: 0
Flags: HW
HStem: 569 149
VStem: -194 102<623.839 703.8>
AnchorPoint: "Top" -174 537 mark 0
AnchorPoint: "TopMark" -180 537 mark 0
AnchorPoint: "TopMark" -179 768 basemark 0
LayerCount: 2
Fore
SplineSet
-142 569 m 1
 -211.884765625 591.731445312 -252 639.5703125 -252 662 c 3
 -252 671.341796875 -248.90625 677.587890625 -244 686 c 0
 -239.19140625 694.244140625 -235.352539062 698.462890625 -229 705 c 0
 -219.989257812 714.271484375 -210.427734375 718 -200 718 c 3
 -193.568359375 718 -187.953125 715.739257812 -184 714 c 0
 -174.608398438 709.868164062 -163.663085938 703.208984375 -157 695 c 0
 -153.12890625 690.23046875 -150 685.306640625 -150 677 c 3
 -150 674.600585938 -151.232421875 672.151367188 -152 671 c 0
 -154.321289062 667.518554688 -156.948242188 664.994140625 -158 660 c 0
 -162 641 -138.865234375 624.435546875 -116 612 c 1
 -142 569 l 1
EndSplineSet
EndChar
StartChar: uni0315
Encoding: 789 789 1104
Width: 0
Flags: HW
HStem: 442.494 214.751
VStem: -118 141.25
AnchorPoint: "TopRight" -110.5 531 mark 0
LayerCount: 2
Fore
SplineSet
-59.75 657.245 m 1
 -4.75 646.245117188 l 1
 -21 527 -31.7895568695 494.935444867 -77 442.494140625 c 1
 -118 464.494140625 l 1
 -79.029296875 521.860351562 -68.2984 587.855 -59.75 657.245 c 1
EndSplineSet
EndChar
StartChar: uni031B
Encoding: 795 795 1106
Width: 0
Flags: HW
HStem: 330 18<-84.5 -47.4434>
VStem: 12.8818 62.7432<400.38 466.056>
AnchorPoint: "Horn" -113.5 453.8 mark 0
LayerCount: 2
Fore
SplineSet
0 539 m 3xf4
 0 545.474211953 -1.03299591216 555.601929602 -9 559 c 1
 -0.0939669764051 576.215696743 12.7005569324 586 25 586 c 3
 44.3456917342 586 55.5107421875 569.803979499 55.5107421875 539.022460938 c 3
 55.5107421875 468.252707867 -28.9346209115 418.220703125 -96.3525390625 418.220703125 c 3
 -116.861328125 418.220703125 -132.440429688 420.592605924 -145 425 c 1
 -153.30078125 434.180333272 -177.275390625 479.194414219 -181.120117188 496.864257812 c 1
 -157.236328125 483.794921875 -125.392578125 471.524414062 -101.459960938 471.524414062 c 3
 -57.9785815787 471.524414062 0 510.119099492 0 539 c 3xf4
EndSplineSet
EndChar
StartChar: uni0327
Encoding: 807 807 1110
Width: 0
UnlinkRmOvrlpSave: 1
Flags: HW
HStem: -172 50.1914<-278.966 -191.85>
VStem: -191.825 58.4277<-118.562 -80.38>
AnchorPoint: "Bottom" -193 -15 mark 0
LayerCount: 2
Fore
SplineSet
-283 -172 m 1
 -278.965820312 -121.80859375 l 1
 -226.182834262 -132 -191.825195312 -113.382709688 -191.825195312 -103.997070312 c 3
 -191.825195312 -88.7799627084 -207.935023361 -83.6874043599 -221.4609375 -76.1259765625 c 1
 -252.948242188 -59.4599609375 l 1
 -250.535248801 -57.698392598 -248.042839695 -55.0454953268 -245.346679688 -52.0732421875 c 0
 -229.045341594 -34.1026086957 -221.092316902 -26.9686956522 -201 -2 c 1
 -141 6 l 1
 -141 6 -168.227697495 -41.3103361562 -171.897460938 -49.92578125 c 1
 -155.871814164 -58.0166015625 -133.397460938 -71.4623449312 -133.397460938 -103.42578125 c 3
 -133.397460938 -156.707176565 -216.974575919 -185.889577706 -283 -172 c 1
EndSplineSet
EndChar
StartChar: uni0328
Encoding: 808 808 254
Width: 0
VWidth: 1159
Flags: W
HStem: -177 56<-194.647 -110.549>
VStem: -253.438 58.4385<-120.335 -43.6891>
AnchorPoint: "Ogonek" -104.35 21.6582 mark 0
LayerCount: 2
Back
SplineSet
-112.880201603 -94.4359271641 m 1
 -80.5997608637 -140.195878493 l 1
 -103.479736528 -156.336098863 l 0
 -124.164891859 -170.928027208 -149.112748182 -177 -173.228515625 -177 c 0
 -215.430809967 -177 -253.438476562 -147.925318793 -253.438476562 -100.834960938 c 0
 -253.438476562 -50.1183642943 -222.419227534 7.97900054589 -146.393490463 45.1246827003 c 0
 -121.235796987 57.4165686007 l 1
 -96.6520251862 7.1011816496 l 1
 -121.809718662 -5.19070425086 l 0
 -122.708207714 -5.62970017588 -121.809718662 -4.19070425086 -121.809718662 -5.19070425086 c 1
 -182.322024173 -34.7566243397 -197.438476562 -73.6150736148 -197.438476562 -100.834960938 c 0
 -197.438476562 -113.952125719 -191.637751925 -121 -173.228515625 -121 c 0
 -158.568459103 -121 -144.696335437 -116.879981254 -135.760177268 -110.576147534 c 0
 -112.880201603 -94.4359271641 l 1
EndSplineSet
Fore
SplineSet
-95.369140625 5.54296875 m 1
 -181.947059418 -23.1396568679 -195 -76.4464037655 -195 -95 c 3
 -195 -111.322561255 -184.405627668 -121 -171 -121 c 3
 -154.111788674 -121 -133.834563989 -112.76682496 -113.02734375 -94.599609375 c 1
 -113.02734375 -94.599609375 -92.0744530605 -120.641828613 -87 -141 c 1
 -107.42555479 -166.004842105 -141.838448051 -177 -173.228515625 -177 c 3
 -215.774898327 -177 -253.438476562 -148.506528262 -253.438476562 -100.834960938 c 3
 -253.438476562 -45.113824837 -216.398388483 20.1093277259 -121 56 c 1
 -95.369140625 5.54296875 l 1
EndSplineSet
Validated: 1
EndChar
StartChar: uni032B
Encoding: 811 811 1114
Width: 0
Flags: HW
HStem: -191.727 58.7197<-299.158 -221.723 -168.478 -90.3257>
VStem: -341 29.2578<-113.904 -85.4508> -210.079 30.3369<-115.385 -85.5898> -78.0791 29.2578<-113.904 -85.4508>
CounterMasks: 1 70
AnchorPoint: "Bottom" -193 -15 mark 0
LayerCount: 2
Fore
SplineSet
-366.522460938 -71.3505859375 m 1
 -309.950195312 -67.58984375 l 1
 -300.884765625 -101.166015625 -281.823242188 -120.006835938 -266.673828125 -120.006835938 c 0
 -251.555664062 -120.006835938 -232.349609375 -102.234375 -222.87109375 -70.58984375 c 1
 -166.950195312 -70.58984375 l 1
 -157.884765625 -102.16796875 -138.825195312 -120.006835938 -123.673828125 -120.006835938 c 0
 -108.555664062 -120.006835938 -89.3505859375 -101.236328125 -79.87109375 -67.58984375 c 1
 -23.298828125 -71.3505859375 l 1
 -37.859375 -141.600585938 -80.8798828125 -176.7265625 -123.767578125 -176.7265625 c 0
 -149.65625 -176.7265625 -175.49609375 -163.779296875 -195.149414062 -137.884765625 c 1
 -214.98046875 -163.779296875 -240.897460938 -176.7265625 -266.767578125 -176.7265625 c 0
 -309.689453125 -176.7265625 -352.478515625 -141.600585938 -366.522460938 -71.3505859375 c 1
EndSplineSet
EndChar
StartChar: uni0357
Encoding: 855 855 2023
Width: 0
Flags: HW
HStem: 425 32<-225 -185.058> 545 32<-225 -184.551>
VStem: -174 32<468.768 533.857>
AnchorPoint: "Top" -157 537 mark 0
AnchorPoint: "TopMark" -163 537 mark 0
AnchorPoint: "TopMark" -168 752 basemark 0
LayerCount: 2
Fore
SplineSet
-176 618 m 1
 -151.466666667 618 -128 638.266666667 -128 666 c 3
 -128 691.674418605 -150.4 712 -176 712 c 1
 -182 712 l 1
 -182 768 l 1
 -176 768 l 1
 -119.272727273 768 -72 723.12 -72 666 c 3
 -72 605.220779221 -121.974025974 562 -176 562 c 1
 -182 562 l 1
 -182 618 l 1
 -176 618 l 1
EndSplineSet
EndChar
StartChar: uni037A
Encoding: 890 890 961
Width: 133
Flags: HW
HStem: -295 44.4951<46.4591 116.823>
VStem: 5.52832 65.9873<-249.952 -89.5438> 19.5322 71.1582<-220.355 -87.5068>
AnchorPoint: "Bottom" 78 -15 mark 0
LayerCount: 2
Back
SplineSet
138.549246629 -129.839150154 m 1
 149.697401162 -155.52413897 l 1
 124.012412346 -166.672293504 l 1
 124.929733375 -166.274145128 123.012412346 -166.672293504 124.012412346 -166.672293504 c 1
 113.910656875 -171.056797303 101.643161358 -174 88 -174 c 0
 74.5987961948 -174 60.6308727146 -169.863431714 50.265011593 -160.126611115 c 0
 36.803126238 -147.481645002 33.517578125 -130.658459739 33.517578125 -116.98828125 c 0
 33.517578125 -97.1754641076 35.7549809367 -75.114148887 38.2184671097 -55.5090932031 c 2
 41.7093739066 -27.7275603128 l 1
 69.4909067969 -31.2184671097 l 1
 97.2724396872 -34.7093739066 l 1
 93.7815328903 -62.4909067969 l 1
 93.6568576476 -63.4831044001 93.7815328903 -63.4909067969 93.7815328903 -62.4909067969 c 1
 91.4683198126 -80.9000505926 89.517578125 -101.446025776 89.517578125 -116.98828125 c 0
 89.517578125 -117.360052901 89.5192899041 -117.505891553 89.5357668963 -117.981292384 c 1
 94.9534499705 -117.726588816 97.7790656363 -117.011123469 101.716103279 -115.302315871 c 1
 101.716103279 -116.302315871 102.633424308 -114.904167495 101.716103279 -115.302315871 c 1
 127.401092095 -104.154161338 l 1
 138.549246629 -129.839150154 l 1
EndSplineSet
Fore
SplineSet
89 -115 m 3xc0
 89 -117.676940178 89.8000853727 -118 91 -118 c 3
 96.6278671021 -118 120.938154124 -107.244350658 128.528320312 -103.662109375 c 1
 146.528320312 -156.662109375 l 1
 133.225647249 -162.957752886 111.342109501 -174 91 -174 c 3
 57 -174 33 -154.013155617 33 -116 c 3xc0
 33 -89.2541788866 37.3044765331 -60.763333909 41 -34 c 1
 46.2811511544 -33.6303251976 86.5330834333 -26.2397391721 98 -31 c 1xa0
 94 -52.2830043117 89 -94.0282415957 89 -115 c 3xc0
EndSplineSet
EndChar
StartChar: Gamma
Encoding: 915 915 978
Width: 630
Flags: HW
HStem: -13.8818 66.9883<95.8006 142.338> 505.313 181.902<505.648 568.49> 612.051 67.0885<85.251 143.283 257.752 489.343>
VStem: 143.562 109.714<78.815 608.235> 509.244 59.2461<510.141 596.29>
AnchorPoint: "Top" 321 699 basechar 0
AnchorPoint: "Bottom" 183 -15 basechar 0
LayerCount: 2
Back
SplineSet
299 -8 m 1xec
 256 0 216 0 177 0 c 3
 150 0 125 1 99 -7 c 1
 83 47 l 1
 144 64 142 44 143 84 c 1
 143 108 144 155 144 217 c 3
 144 365 145 555 145 616 c 0
 145 622 144 622 77 624 c 1
 82 681 l 1
 135 678 221 676 306 676 c 3xec
 419.235294118 676 529.382352941 678 551 689 c 1
 578 680 586 654 586 641 c 3
 586 621 579 593 577 550 c 1
 521 545 l 1xda
 523 588 529 627 526 627 c 0
 464.831448422 621.449747468 367.449466629 619.671572875 274.36043456 619.671572875 c 0
 250.721608769 619.671572875 227.367532368 619.792893219 205 620 c 0
 202 620 200 609 200 602 c 0
 200 487 200 307 200 307 c 3
 200 203 200 145 200 78 c 0
 200 62.3109569786 200 59.4286814352 214 58.075395592 c 0
 227.662617752 56.7547222215 254.658601494 56.8902330844 308 48 c 1
 299 -8 l 1xec
EndSplineSet
Fore
SplineSet
299 -8 m 1xec
 256 0 216 0 177 0 c 3
 150 0 125 1 99 -7 c 1
 83 47 l 1
 144 64 142 44 143 84 c 1
 143 108 144 155 144 217 c 3
 144 365 145 555 145 616 c 0
 145 622 144 622 77 624 c 1
 82 681 l 1
 135 678 221 676 306 676 c 3xec
 419.235294118 676 529.382352941 678 551 689 c 1
 578 680 586 654 586 641 c 3
 586 621 579 593 577 550 c 1
 521 545 l 1xda
 523 588 529 627 526 627 c 0
 464.831448422 621.449747468 367.449466629 619.671572875 274.36043456 619.671572875 c 0
 250.721608769 619.671572875 227.367532368 619.792893219 205 620 c 0
 202 620 200 609 200 602 c 0
 200 487 200 307 200 307 c 3
 200 203 200 145 200 78 c 0
 200 44.3464816167 225.250199821 61.1249666965 308 48 c 1
 299 -8 l 1xec
EndSplineSet
Position2: "cpsp-1" dx=0 dy=0 dh=50 dv=100
Substitution2: "c2pc-1" gamma.pcap
Substitution2: "c2sc-1" gamma.smcp
EndChar
StartChar: Delta
Encoding: 916 916 2323
AltUni2: 002206.ffffffff.0
Width: 785
Flags: HW
HStem: 2.27051 64.0293<181.894 579.606> 669 20G<372 444.036>
VStem: 374 67<609.555 689>
AnchorPoint: "Bottom" 390 -15 basechar 0
AnchorPoint: "Top" 410 699 basechar 0
LayerCount: 2
Fore
SplineSet
601.5 58.2998046875 m 1
 636.982517149 58.5992838542 652.329583815 58.2998046875 650.5 66.2998046875 c 1
 573.582307421 226.284086134 461.522745748 438.631686237 408 592 c 1
 366 477 239 231 148.5 77.2998046875 c 1
 147.488143395 70.4816228693 155.302677571 57.2307794744 187.5 57.2998046875 c 1
 601.5 58.2998046875 l 1
45 -5 m 1
 44.2 62.659754136 77.2742660687 62.9104555521 99 102 c 0
 204.897137697 292.533074004 297.862237404 458.282856615 358 617 c 0
 372.474967446 655.202709653 370 656 374 689 c 1
 441 689 l 1
 447.071428571 662 443.642017067 658.837541281 458 619 c 0
 534.618913526 406.413793103 610.36239413 288.66789096 709 71 c 0
 724.176757812 37.5087890625 743.5 66.681640625 748 -4 c 1
 712.643535605 0.250784817377 554.316211887 2.2705078125 390.493164062 2.2705078125 c 0
 234.678847334 2.2705078125 73.0239913497 -0.250951634898 45 -5 c 1
EndSplineSet
Position2: "cpsp-1" dx=0 dy=0 dh=50 dv=100
Substitution2: "c2pc-1" delta.pcap
Substitution2: "c2sc-1" delta.smcp
EndChar
StartChar: Theta
Encoding: 920 920 2444
Width: 818
Flags: HW
HStem: -16 72<348.672 528.99> 302.5 84<313.488 505.665> 616 73<286.654 477.048>
VStem: 48 119<261.919 449.449> 230.5 71<247.5 290.382 398.511 441.5> 517.5 69<246.5 290.874 397.242 437.5> 655 115<214.618 413.376>
AnchorPoint: "Top" 426 699 basechar 0
AnchorPoint: "Bottom" 422 -15 basechar 0
LayerCount: 2
Fore
SplineSet
581.5 437.5 m 1
 579.443359375 386.9296875 579.918945312 300.4296875 586.5 246.5 c 1
 530.5 244.5 l 1
 527.73046875 310.038085938 525.87109375 315.362304688 518.5 315.5 c 0
 510.494140625 315.649414062 449.09765625 316.5 405.5 316.5 c 3
 364.444335938 316.5 307.249023438 315.563476562 299.5 315.5 c 0
 287.256835938 315.400390625 290.338867188 281.985351562 286.5 246.5 c 1
 230.5 247.5 l 1
 236.977539062 313.790039062 237.790039062 375.000976562 230.5 441.5 c 1
 285.5 443.5 l 1
 290.944335938 411.403320312 289.788085938 372.5 298.5 372.5 c 0
 307.611328125 372.5 372.090820312 372.5 405.5 371.5 c 0
 466.095703125 371.5 511.258789062 372.252929688 516.5 372.5 c 0
 520.29296875 372.678710938 524.681640625 374.469726562 525.5 438.5 c 1
 581.5 437.5 l 1
EndSplineSet
Refer: 2412 927 N 1 0 0 1 0 0 2
Position2: "cpsp-1" dx=0 dy=0 dh=50 dv=100
Substitution2: "c2pc-1" theta.pcap
Substitution2: "c2sc-1" theta.smcp
EndChar
StartChar: Lambda
Encoding: 923 923 986
Width: 733
VWidth: 1159
Flags: W
HStem: -10 37<460 513.054> -5 39<17 66.9704 632.488 690.419>
VStem: 350 43<632.023 712>
AnchorPoint: "Bottom" 368 -15 basechar 0
AnchorPoint: "Top" 382 679 basechar 0
LayerCount: 2
Fore
SplineSet
362 503 m 1
 311.06754555 368.43341547 238.042850925 224.898557127 182 96 c 0
 172 73 193 70 227 64 c 1
 222 -8 l 1
 192 -1 156 1 120 1 c 3
 94 1 68 0 46 -3 c 1
 45 14 44 37 43 61 c 1
 82 71 86.7672077901 76.1124447675 97 97 c 0
 194 295 269.643877136 453.137093764 326 599 c 0
 343 643 341 650 349 689 c 1
 415 689 l 1
 421 653 423 645 438 600 c 0
 509 387 561.675212583 292.146370115 651 80 c 0
 659 61 667 63 693 59 c 1
 694 42 696 17 697 -2 c 1
 665 -1 635 1 607 1 c 3
 574 1 543 -1 510 -10 c 1
 510 -10 493 53 493 54 c 1
 509.615384615 60 539.255826133 59.5434209534 529 83 c 4
 470.151095654 217.596078244 418.249691755 356.142613468 362 503 c 1
EndSplineSet
Position2: "cpsp-1" dx=0 dy=0 dh=50 dv=100
Substitution2: "c2pc-1" lambda.pcap
Substitution2: "c2sc-1" lambda.smcp
EndChar
StartChar: Xi
Encoding: 926 926 2480
Width: 644
Flags: HW
HStem: -12 21G<38.1167 44.7158 593.339 600.642> 0.76101 74.3239<87.6715 545.261> 325.5 61<166.644 480.38> 485 21G<568 608> 610.915 74.3239<93.9293 552.632> 678 20G<42.042 50.5274 591.399 597.883>
VStem: 28 40<93.8399 209.875> 36 43<494.349 598.256> 123.5 26<242.5 304.54 413.595 461.5> 497.5 23<240.891 291.777 412.72 457.5> 568 40<489.125 595.04>
AnchorPoint: "Top" 332 699 basechar 0
AnchorPoint: "Bottom" 330 -15 basechar 0
LayerCount: 2
Fore
SplineSet
38 544 m 1x39e0
 41.488540233 610.74609375 42.2374991545 641.723974369 41.1884765625 698 c 1x35e0
 59.8662979113 689.765313358 198.456992217 685.238989596 333.069573583 685.238989596 c 3x39e0
 460.009300831 685.238989596 583.411491613 689.264022472 599.385742188 698 c 1x35e0
 597.078512702 638.361703726 598.729640205 593.529296875 606 546 c 1
 548 541 l 1
 539 620 545.101525657 633.589784584 532 633 c 0
 476.762558771 630.513404762 404.106306369 628.915039062 332.758789062 628.915039062 c 3
 245.70311299 628.915039062 168 631 108 634 c 0
 96.6900719989 634.5654964 98.8421484375 620.48453001 94 540 c 1
 38 544 l 1x39e0
614 147 m 1
 601.759367552 78.2919921875 599.129806308 45.9314055266 602.811523438 -12 c 1xb2e0
 583.865813418 -3.76531335831 443.288853306 0.761010403635 306.747072738 0.761010403635 c 3x72e0
 177.988109738 0.761010403635 52.8174296741 -3.26402247191 36.6142578125 -12 c 1
 38.9214872977 51.8984728507 37.2711096256 101.075195312 30 152 c 1
 88 157 l 1xb2e0
 97 68 87.9852674019 52.3827368232 109 53 c 0
 163.806023452 54.6098106406 236.251789814 57.0849609375 307.241210938 57.0849609375 c 3
 393.134898955 57.0849609375 442.986131221 55.5718432525 529 53 c 0
 552.273196894 52.3041236809 539 60 557 151 c 1
 614 147 l 1
515.5 425.5 m 1
 513.443359375 379.96025029 513.918945312 302.064742477 520.5 253.5 c 1
 465.5 251.5 l 1
 461.577086104 310.576740506 459.278405283 315.5 448.5 315.5 c 0
 439.641732283 315.5 371.728346456 315.5 323.5 315.5 c 3
 272.373239437 315.5 200.120104408 315.5 191.5 315.5 c 0
 181.252282445 315.5 182.145446777 285.385399756 181.5 253.5 c 1
 123.5 254.5 l 1
 129.977539062 314.297285245 130.790039062 369.51386808 123.5 429.5 c 1
 180.5 431.5 l 1
 182.166754645 404.828401935 178.516533971 372.5 195.5 372.5 c 0
 203.847826087 372.5 225.181159421 372.5 323.5 372.5 c 3
 419.937184861 372.5 440.74882656 371.5 446.5 371.5 c 0
 457.810557988 371.5 459.227272727 373.141791045 460.5 426.5 c 1
 515.5 425.5 l 1
EndSplineSet
Position2: "cpsp-1" dx=0 dy=0 dh=50 dv=100
Substitution2: "c2pc-1" xi.pcap
Substitution2: "c2sc-1" xi.smcp
EndChar
